RadleyFF.ufo
<glyph name="exclam" format="1">
  <advance width="427"/>
  <unicode hex="0021"/>
  <outline>
    <contour>
      <point x="94" y="92" type="curve" smooth="yes"/>
      <point x="94" y="159"/>
      <point x="147" y="216"/>
      <point x="215" y="216" type="curve" smooth="yes"/>
      <point x="283" y="216"/>
      <point x="339" y="160"/>
      <point x="339" y="92" type="curve" smooth="yes"/>
      <point x="339" y="24"/>
      <point x="282" y="-29"/>
      <point x="215" y="-29" type="curve" smooth="yes"/>
      <point x="148" y="-29"/>
      <point x="94" y="25"/>
    </contour>
    <contour>
      <point x="211" y="1312" type="curve" smooth="yes"/>
      <point x="284" y="1312"/>
      <point x="341" y="1278"/>
      <point x="341" y="1199" type="curve" smooth="yes"/>
      <point x="341" y="1023"/>
      <point x="276" y="647"/>
      <point x="249" y="466" type="curve" smooth="yes"/>
      <point x="246" y="447"/>
      <point x="244" y="356"/>
      <point x="215" y="356" type="curve" smooth="yes"/>
      <point x="181" y="356"/>
      <point x="183" y="427"/>
      <point x="180" y="450" type="curve" smooth="yes"/>
      <point x="155" y="644"/>
      <point x="85" y="1009"/>
      <point x="85" y="1201" type="curve" smooth="yes"/>
      <point x="85" y="1283"/>
      <point x="134" y="1312"/>
    </contour>
  </outline>
</glyph>
<glyph name="quotedbl" format="1">
  <advance width="645"/>
  <unicode hex="0022"/>
  <outline>
    <contour>
      <point x="152" y="753" type="curve"/>
      <point x="120" y="824"/>
      <point x="62" y="1139"/>
      <point x="62" y="1200" type="curve" smooth="yes"/>
      <point x="62" y="1264"/>
      <point x="100" y="1302"/>
      <point x="164" y="1302" type="curve" smooth="yes"/>
      <point x="228" y="1302"/>
      <point x="266" y="1264"/>
      <point x="266" y="1200" type="curve" smooth="yes"/>
      <point x="266" y="1107"/>
      <point x="206" y="752"/>
    </contour>
    <contour>
      <point x="468" y="753" type="curve"/>
      <point x="435" y="829"/>
      <point x="379" y="1137"/>
      <point x="379" y="1200" type="curve" smooth="yes"/>
      <point x="379" y="1264"/>
      <point x="417" y="1302"/>
      <point x="481" y="1302" type="curve" smooth="yes"/>
      <point x="545" y="1302"/>
      <point x="583" y="1264"/>
      <point x="583" y="1200" type="curve" smooth="yes"/>
      <point x="583" y="1166"/>
      <point x="531" y="753"/>
    </contour>
  </outline>
</glyph>
<glyph name="numbersign" format="1">
  <advance width="1155"/>
  <unicode hex="0023"/>
  <outline>
    <contour>
      <point x="403" y="501" type="line"/>
      <point x="679" y="501" type="line"/>
      <point x="724" y="674" type="line"/>
      <point x="450" y="674" type="line"/>
    </contour>
    <contour>
      <point x="648" y="390" type="curve"/>
      <point x="375" y="390" type="line"/>
      <point x="330" y="210"/>
      <point x="297" y="29"/>
      <point x="257" y="-151" type="curve" smooth="yes"/>
      <point x="247" y="-198"/>
      <point x="228" y="-239"/>
      <point x="174" y="-239" type="curve" smooth="yes"/>
      <point x="134" y="-239"/>
      <point x="109" y="-184"/>
      <point x="109" y="-150" type="curve" smooth="yes"/>
      <point x="109" y="-108"/>
      <point x="237" y="320"/>
      <point x="257" y="390" type="curve"/>
      <point x="238" y="390"/>
      <point x="210" y="387"/>
      <point x="181" y="387" type="curve" smooth="yes"/>
      <point x="128" y="387"/>
      <point x="72" y="396"/>
      <point x="72" y="447" type="curve" smooth="yes"/>
      <point x="72" y="495"/>
      <point x="138" y="504"/>
      <point x="200" y="504" type="curve" smooth="yes"/>
      <point x="235" y="504"/>
      <point x="270" y="501"/>
      <point x="288" y="501" type="curve"/>
      <point x="336" y="674" type="line"/>
      <point x="315" y="674"/>
      <point x="280" y="670"/>
      <point x="245" y="670" type="curve" smooth="yes"/>
      <point x="187" y="670"/>
      <point x="127" y="680"/>
      <point x="127" y="731" type="curve" smooth="yes"/>
      <point x="127" y="779"/>
      <point x="199" y="789"/>
      <point x="265" y="789" type="curve" smooth="yes"/>
      <point x="308" y="789"/>
      <point x="348" y="785"/>
      <point x="367" y="785" type="curve"/>
      <point x="417" y="961"/>
      <point x="475" y="1134"/>
      <point x="495" y="1316" type="curve" smooth="yes"/>
      <point x="499" y="1352"/>
      <point x="551" y="1362"/>
      <point x="579" y="1362" type="curve" smooth="yes"/>
      <point x="640" y="1362"/>
      <point x="646" y="1332"/>
      <point x="646" y="1280" type="curve" smooth="yes"/>
      <point x="646" y="1249"/>
      <point x="500" y="840"/>
      <point x="483" y="785" type="curve"/>
      <point x="752" y="785" type="line"/>
      <point x="791" y="946"/>
      <point x="835" y="1111"/>
      <point x="860" y="1275" type="curve" smooth="yes"/>
      <point x="869" y="1333"/>
      <point x="885" y="1362"/>
      <point x="951" y="1362" type="curve" smooth="yes"/>
      <point x="1007" y="1362"/>
      <point x="1028" y="1333"/>
      <point x="1028" y="1280" type="curve" smooth="yes"/>
      <point x="1028" y="1241"/>
      <point x="892" y="843"/>
      <point x="874" y="785" type="curve"/>
      <point x="891" y="785"/>
      <point x="921" y="787"/>
      <point x="954" y="787" type="curve" smooth="yes"/>
      <point x="1014" y="787"/>
      <point x="1080" y="779"/>
      <point x="1080" y="732" type="curve" smooth="yes"/>
      <point x="1080" y="680"/>
      <point x="1014" y="669"/>
      <point x="949" y="669" type="curve" smooth="yes"/>
      <point x="906" y="669"/>
      <point x="863" y="674"/>
      <point x="841" y="674" type="curve"/>
      <point x="793" y="501" type="line"/>
      <point x="811" y="501"/>
      <point x="846" y="504"/>
      <point x="883" y="504" type="curve" smooth="yes"/>
      <point x="950" y="504"/>
      <point x="1026" y="494"/>
      <point x="1026" y="441" type="curve" smooth="yes"/>
      <point x="1026" y="394"/>
      <point x="958" y="384"/>
      <point x="889" y="384" type="curve" smooth="yes"/>
      <point x="838" y="384"/>
      <point x="786" y="390"/>
      <point x="765" y="390" type="curve"/>
      <point x="720" y="211"/>
      <point x="687" y="31"/>
      <point x="648" y="-149" type="curve" smooth="yes"/>
      <point x="637" y="-198"/>
      <point x="611" y="-239"/>
      <point x="556" y="-239" type="curve" smooth="yes"/>
      <point x="516" y="-239"/>
      <point x="491" y="-184"/>
      <point x="491" y="-150" type="curve" smooth="yes"/>
      <point x="491" y="-110"/>
      <point x="628" y="322"/>
    </contour>
  </outline>
</glyph>
<glyph name="dollar" format="1">
  <advance width="1013"/>
  <unicode hex="0024"/>
  <outline>
    <contour>
      <point x="369" y="842" type="curve" smooth="yes"/>
      <point x="464" y="785" type="line"/>
      <point x="464" y="1138" type="line"/>
      <point x="359" y="1130"/>
      <point x="262" y="1075"/>
      <point x="262" y="990" type="curve" smooth="yes"/>
      <point x="262" y="936"/>
      <point x="294" y="887"/>
    </contour>
    <contour>
      <point x="548" y="452" type="curve"/>
      <point x="547" y="335"/>
      <point x="546" y="197"/>
      <point x="546" y="36" type="curve"/>
      <point x="666" y="36"/>
      <point x="767" y="95"/>
      <point x="767" y="222" type="curve" smooth="yes"/>
      <point x="767" y="318"/>
      <point x="703" y="364"/>
    </contour>
    <contour>
      <point x="449" y="-141" type="curve" smooth="yes"/>
      <point x="451" y="-26" type="line"/>
      <point x="314" y="-18"/>
      <point x="179" y="21"/>
      <point x="83" y="80" type="curve"/>
      <point x="104" y="366" type="line"/>
      <point x="115" y="369"/>
      <point x="122" y="371"/>
      <point x="125" y="371" type="curve" smooth="yes"/>
      <point x="150" y="371"/>
      <point x="164" y="317"/>
      <point x="169" y="282" type="curve" smooth="yes"/>
      <point x="185" y="159"/>
      <point x="314" y="72"/>
      <point x="459" y="45" type="curve"/>
      <point x="459" y="502" type="line"/>
      <point x="320" y="581" type="line" smooth="yes"/>
      <point x="173" y="664"/>
      <point x="105" y="763"/>
      <point x="105" y="886" type="curve" smooth="yes"/>
      <point x="105" y="1096"/>
      <point x="275" y="1187"/>
      <point x="470" y="1200" type="curve"/>
      <point x="469" y="1232"/>
      <point x="469" y="1261"/>
      <point x="469" y="1285" type="curve" smooth="yes"/>
      <point x="469" y="1385"/>
      <point x="477" y="1422"/>
      <point x="517" y="1422" type="curve" smooth="yes"/>
      <point x="545" y="1422"/>
      <point x="562" y="1400"/>
      <point x="562" y="1278" type="curve" smooth="yes"/>
      <point x="562" y="1251"/>
      <point x="562" y="1226"/>
      <point x="561" y="1201" type="curve"/>
      <point x="661" y="1196"/>
      <point x="761" y="1173"/>
      <point x="841" y="1138" type="curve"/>
      <point x="871" y="881" type="line"/>
      <point x="859" y="878"/>
      <point x="850" y="876"/>
      <point x="844" y="876" type="curve" smooth="yes"/>
      <point x="818" y="876"/>
      <point x="794" y="928"/>
      <point x="787" y="961" type="curve" smooth="yes"/>
      <point x="765" y="1066"/>
      <point x="667" y="1120"/>
      <point x="560" y="1136" type="curve"/>
      <point x="557" y="1053"/>
      <point x="554" y="943"/>
      <point x="551" y="732" type="curve"/>
      <point x="705" y="641" type="line" smooth="yes"/>
      <point x="894" y="529"/>
      <point x="941" y="455"/>
      <point x="941" y="319" type="curve" smooth="yes"/>
      <point x="941" y="81"/>
      <point x="757" y="-16"/>
      <point x="546" y="-27" type="curve"/>
      <point x="546" y="-125" type="line" smooth="yes"/>
      <point x="546" y="-205"/>
      <point x="516" y="-228"/>
      <point x="494" y="-228" type="curve" smooth="yes"/>
      <point x="474" y="-228"/>
      <point x="450" y="-197"/>
    </contour>
  </outline>
</glyph>
<glyph name="percent" format="1">
  <advance width="1672"/>
  <unicode hex="0025"/>
  <outline>
    <contour>
      <point x="533" y="929" type="curve" smooth="yes"/>
      <point x="533" y="1133"/>
      <point x="480" y="1270"/>
      <point x="369" y="1270" type="curve" smooth="yes"/>
      <point x="268" y="1270"/>
      <point x="218" y="1148"/>
      <point x="218" y="956" type="curve" smooth="yes"/>
      <point x="218" y="765"/>
      <point x="271" y="633"/>
      <point x="384" y="633" type="curve" smooth="yes"/>
      <point x="485" y="633"/>
      <point x="533" y="750"/>
    </contour>
    <contour>
      <point x="65" y="950" type="curve" smooth="yes"/>
      <point x="65" y="1155"/>
      <point x="183" y="1327"/>
      <point x="373" y="1327" type="curve" smooth="yes"/>
      <point x="564" y="1327"/>
      <point x="686" y="1149"/>
      <point x="686" y="941" type="curve" smooth="yes"/>
      <point x="686" y="742"/>
      <point x="571" y="574"/>
      <point x="385" y="571" type="curve" smooth="yes"/>
      <point x="187" y="571"/>
      <point x="65" y="745"/>
    </contour>
    <contour>
      <point x="441" y="-138" type="curve"/>
      <point x="409" y="-138"/>
      <point x="380" y="-125"/>
      <point x="360" y="-108" type="curve"/>
      <point x="386" y="-60"/>
      <point x="413" y="-14"/>
      <point x="441" y="34" type="curve" smooth="yes"/>
      <point x="970" y="1017" type="line" smooth="yes"/>
      <point x="1039" y="1136"/>
      <point x="1092" y="1315"/>
      <point x="1189" y="1396" type="curve"/>
      <point x="1240" y="1396"/>
      <point x="1262" y="1381"/>
      <point x="1282" y="1368" type="curve"/>
      <point x="1205" y="1238" type="line" smooth="yes"/>
      <point x="1077" y="1014"/>
      <point x="813" y="581"/>
      <point x="561" y="18" type="curve" smooth="yes"/>
      <point x="525" y="-54"/>
      <point x="481" y="-98"/>
    </contour>
    <contour>
      <point x="985" y="358" type="curve" smooth="yes"/>
      <point x="985" y="563"/>
      <point x="1103" y="735"/>
      <point x="1292" y="735" type="curve" smooth="yes"/>
      <point x="1483" y="735"/>
      <point x="1605" y="557"/>
      <point x="1605" y="349" type="curve" smooth="yes"/>
      <point x="1605" y="149"/>
      <point x="1490" y="-18"/>
      <point x="1304" y="-22" type="curve" smooth="yes"/>
      <point x="1106" y="-22"/>
      <point x="985" y="152"/>
    </contour>
    <contour>
      <point x="1452" y="337" type="curve" smooth="yes"/>
      <point x="1452" y="541"/>
      <point x="1399" y="677"/>
      <point x="1288" y="677" type="curve" smooth="yes"/>
      <point x="1188" y="677"/>
      <point x="1138" y="555"/>
      <point x="1138" y="363" type="curve" smooth="yes"/>
      <point x="1138" y="172"/>
      <point x="1191" y="41"/>
      <point x="1304" y="41" type="curve" smooth="yes"/>
      <point x="1404" y="41"/>
      <point x="1452" y="158"/>
    </contour>
  </outline>
</glyph>
<glyph name="ampersand" format="1">
  <advance width="1507"/>
  <unicode hex="0026"/>
  <outline>
    <contour>
      <point x="422" y="1104" type="curve" smooth="yes"/>
      <point x="422" y="1035"/>
      <point x="470" y="951"/>
      <point x="553" y="849" type="curve"/>
      <point x="673" y="918"/>
      <point x="744" y="984"/>
      <point x="744" y="1071" type="curve" smooth="yes"/>
      <point x="744" y="1151"/>
      <point x="680" y="1250"/>
      <point x="592" y="1250" type="curve" smooth="yes"/>
      <point x="494" y="1250"/>
      <point x="422" y="1183"/>
    </contour>
    <contour>
      <point x="261" y="435" type="curve" smooth="yes"/>
      <point x="261" y="256"/>
      <point x="403" y="102"/>
      <point x="606" y="102" type="curve" smooth="yes"/>
      <point x="692" y="102"/>
      <point x="756" y="132"/>
      <point x="840" y="209" type="curve"/>
      <point x="712" y="374"/>
      <point x="554" y="576"/>
      <point x="452" y="702" type="curve"/>
      <point x="321" y="612"/>
      <point x="261" y="531"/>
    </contour>
    <contour>
      <point x="979" y="886" type="curve"/>
      <point x="1388" y="886" type="line"/>
      <point x="1389" y="868"/>
      <point x="1389" y="851"/>
      <point x="1389" y="835" type="curve"/>
      <point x="1365" y="815"/>
      <point x="1279" y="813"/>
      <point x="1256" y="776" type="curve" smooth="yes"/>
      <point x="1172" y="643"/>
      <point x="1136" y="488"/>
      <point x="1015" y="296" type="curve"/>
      <point x="1076" y="219"/>
      <point x="1130" y="165"/>
      <point x="1192" y="165" type="curve" smooth="yes"/>
      <point x="1247" y="165"/>
      <point x="1307" y="208"/>
      <point x="1382" y="318" type="curve"/>
      <point x="1441" y="275" type="line"/>
      <point x="1390" y="62"/>
      <point x="1287" y="-28"/>
      <point x="1175" y="-28" type="curve" smooth="yes"/>
      <point x="1076" y="-28"/>
      <point x="969" y="40"/>
      <point x="891" y="152" type="curve"/>
      <point x="760" y="25"/>
      <point x="643" y="-26"/>
      <point x="483" y="-26" type="curve" smooth="yes"/>
      <point x="220" y="-26"/>
      <point x="68" y="136"/>
      <point x="68" y="319" type="curve" smooth="yes"/>
      <point x="68" y="502"/>
      <point x="180" y="610"/>
      <point x="406" y="758" type="curve"/>
      <point x="305" y="870"/>
      <point x="259" y="960"/>
      <point x="259" y="1042" type="curve" smooth="yes"/>
      <point x="259" y="1209"/>
      <point x="456" y="1322"/>
      <point x="629" y="1322" type="curve" smooth="yes"/>
      <point x="765" y="1322"/>
      <point x="887" y="1253"/>
      <point x="887" y="1085" type="curve" smooth="yes"/>
      <point x="887" y="977"/>
      <point x="783" y="911"/>
      <point x="597" y="799" type="curve"/>
      <point x="702" y="681"/>
      <point x="833" y="509"/>
      <point x="964" y="357" type="curve"/>
      <point x="1021" y="457"/>
      <point x="1066" y="571"/>
      <point x="1093" y="692" type="curve"/>
      <point x="1101" y="712"/>
      <point x="1105" y="728"/>
      <point x="1105" y="741" type="curve" smooth="yes"/>
      <point x="1105" y="784"/>
      <point x="1038" y="813"/>
      <point x="979" y="832" type="curve"/>
      <point x="978" y="840"/>
      <point x="977" y="848"/>
      <point x="977" y="858" type="curve" smooth="yes"/>
      <point x="977" y="866"/>
      <point x="978" y="875"/>
    </contour>
  </outline>
</glyph>
<glyph name="quotesingle" format="1">
  <advance width="328"/>
  <unicode hex="0027"/>
  <outline>
    <contour>
      <point x="151" y="753" type="curve"/>
      <point x="119" y="828"/>
      <point x="62" y="1138"/>
      <point x="62" y="1200" type="curve" smooth="yes"/>
      <point x="62" y="1264"/>
      <point x="100" y="1302"/>
      <point x="164" y="1302" type="curve" smooth="yes"/>
      <point x="228" y="1302"/>
      <point x="265" y="1264"/>
      <point x="265" y="1200" type="curve" smooth="yes"/>
      <point x="265" y="1106"/>
      <point x="207" y="752"/>
    </contour>
  </outline>
</glyph>
<glyph name="parenleft" format="1">
  <advance width="649"/>
  <unicode hex="0028"/>
  <outline>
    <contour>
      <point x="596" y="-208" type="curve"/>
      <point x="543" y="-268" type="line"/>
      <point x="216" y="-119"/>
      <point x="77" y="229"/>
      <point x="77" y="571" type="curve" smooth="yes"/>
      <point x="77" y="913"/>
      <point x="215" y="1261"/>
      <point x="543" y="1409" type="curve"/>
      <point x="596" y="1350" type="line"/>
      <point x="319" y="1187"/>
      <point x="209" y="878"/>
      <point x="209" y="571" type="curve" smooth="yes"/>
      <point x="209" y="262"/>
      <point x="319" y="-41"/>
    </contour>
  </outline>
</glyph>
<glyph name="parenright" format="1">
  <advance width="643"/>
  <unicode hex="0029"/>
  <outline>
    <contour>
      <point x="47" y="1350" type="curve"/>
      <point x="57" y="1376"/>
      <point x="79" y="1393"/>
      <point x="100" y="1409" type="curve"/>
      <point x="427" y="1261"/>
      <point x="566" y="913"/>
      <point x="566" y="571" type="curve" smooth="yes"/>
      <point x="566" y="229"/>
      <point x="427" y="-119"/>
      <point x="100" y="-268" type="curve"/>
      <point x="79" y="-252"/>
      <point x="57" y="-234"/>
      <point x="47" y="-208" type="curve"/>
      <point x="321" y="-35"/>
      <point x="434" y="258"/>
      <point x="434" y="571" type="curve" smooth="yes"/>
      <point x="434" y="881"/>
      <point x="322" y="1180"/>
    </contour>
  </outline>
</glyph>
<glyph name="asterisk" format="1">
  <advance width="1161"/>
  <unicode hex="002A"/>
  <outline>
    <contour>
      <point x="671" y="1221" type="curve" smooth="yes"/>
      <point x="671" y="1095"/>
      <point x="637" y="946"/>
      <point x="621" y="820" type="curve"/>
      <point x="685" y="853"/>
      <point x="952" y="1009"/>
      <point x="1011" y="1009" type="curve" smooth="yes"/>
      <point x="1063" y="1009"/>
      <point x="1102" y="961"/>
      <point x="1102" y="911" type="curve" smooth="yes"/>
      <point x="1102" y="869"/>
      <point x="1070" y="833"/>
      <point x="1029" y="824" type="curve" smooth="yes"/>
      <point x="649" y="741" type="line"/>
      <point x="699" y="685"/>
      <point x="931" y="467"/>
      <point x="931" y="389" type="curve" smooth="yes"/>
      <point x="931" y="339"/>
      <point x="884" y="295"/>
      <point x="834" y="295" type="curve" smooth="yes"/>
      <point x="800" y="295"/>
      <point x="768" y="316"/>
      <point x="753" y="346" type="curve" smooth="yes"/>
      <point x="580" y="695" type="line"/>
      <point x="406" y="346" type="line" smooth="yes"/>
      <point x="391" y="316"/>
      <point x="360" y="295"/>
      <point x="325" y="295" type="curve" smooth="yes"/>
      <point x="275" y="295"/>
      <point x="228" y="339"/>
      <point x="228" y="389" type="curve" smooth="yes"/>
      <point x="228" y="467"/>
      <point x="460" y="685"/>
      <point x="510" y="741" type="curve"/>
      <point x="130" y="824" type="line" smooth="yes"/>
      <point x="89" y="833"/>
      <point x="57" y="869"/>
      <point x="57" y="911" type="curve" smooth="yes"/>
      <point x="57" y="961"/>
      <point x="96" y="1009"/>
      <point x="148" y="1009" type="curve" smooth="yes"/>
      <point x="207" y="1009"/>
      <point x="474" y="853"/>
      <point x="538" y="820" type="curve"/>
      <point x="521" y="948"/>
      <point x="486" y="1098"/>
      <point x="486" y="1226" type="curve" smooth="yes"/>
      <point x="486" y="1276"/>
      <point x="533" y="1309"/>
      <point x="580" y="1309" type="curve" smooth="yes"/>
      <point x="630" y="1309"/>
      <point x="671" y="1271"/>
    </contour>
  </outline>
</glyph>
<glyph name="plus" format="1">
  <advance width="1002"/>
  <unicode hex="002B"/>
  <outline>
    <contour>
      <point x="57" y="618" type="curve"/>
      <point x="101" y="635"/>
      <point x="148" y="639"/>
      <point x="241" y="639" type="curve" smooth="yes"/>
      <point x="432" y="639" type="line"/>
      <point x="432" y="828" type="line" smooth="yes"/>
      <point x="432" y="906"/>
      <point x="433" y="963"/>
      <point x="440" y="1012" type="curve"/>
      <point x="458" y="1014"/>
      <point x="479" y="1015"/>
      <point x="500" y="1015" type="curve" smooth="yes"/>
      <point x="521" y="1015"/>
      <point x="540" y="1015"/>
      <point x="558" y="1012" type="curve"/>
      <point x="565" y="964"/>
      <point x="567" y="906"/>
      <point x="567" y="830" type="curve" smooth="yes"/>
      <point x="567" y="639" type="line"/>
      <point x="756" y="639" type="line" smooth="yes"/>
      <point x="833" y="639"/>
      <point x="891" y="636"/>
      <point x="940" y="629" type="curve"/>
      <point x="942" y="611"/>
      <point x="943" y="591"/>
      <point x="943" y="570" type="curve" smooth="yes"/>
      <point x="943" y="549"/>
      <point x="942" y="530"/>
      <point x="940" y="512" type="curve"/>
      <point x="891" y="506"/>
      <point x="834" y="505"/>
      <point x="756" y="505" type="curve" smooth="yes"/>
      <point x="567" y="505" type="line"/>
      <point x="567" y="315" type="line" smooth="yes"/>
      <point x="567" y="238"/>
      <point x="564" y="181"/>
      <point x="557" y="132" type="curve"/>
      <point x="538" y="130"/>
      <point x="518" y="129"/>
      <point x="498" y="129" type="curve" smooth="yes"/>
      <point x="476" y="129"/>
      <point x="457" y="130"/>
      <point x="439" y="132" type="curve"/>
      <point x="433" y="181"/>
      <point x="432" y="237"/>
      <point x="432" y="315" type="curve" smooth="yes"/>
      <point x="432" y="505" type="line"/>
      <point x="109" y="505" type="line"/>
      <point x="59" y="535"/>
      <point x="57" y="568"/>
    </contour>
  </outline>
</glyph>
<glyph name="comma" format="1">
  <advance width="487"/>
  <unicode hex="002C"/>
  <outline>
    <contour>
      <point x="84" y="-268" type="curve"/>
      <point x="75" y="-253"/>
      <point x="66" y="-236"/>
      <point x="66" y="-208" type="curve"/>
      <point x="170" y="-174"/>
      <point x="286" y="-153"/>
      <point x="286" y="-23" type="curve"/>
      <point x="267" y="22"/>
      <point x="237" y="47"/>
      <point x="184" y="56" type="curve" smooth="yes"/>
      <point x="121" y="66"/>
      <point x="86" y="110"/>
      <point x="86" y="174" type="curve" smooth="yes"/>
      <point x="86" y="252"/>
      <point x="141" y="311"/>
      <point x="226" y="311" type="curve" smooth="yes"/>
      <point x="332" y="311"/>
      <point x="419" y="217"/>
      <point x="419" y="45" type="curve" smooth="yes"/>
      <point x="419" y="-161"/>
      <point x="262" y="-265"/>
    </contour>
  </outline>
</glyph>
<glyph name="hyphen" format="1">
  <advance width="726"/>
  <unicode hex="002D"/>
  <outline>
    <contour>
      <point x="64" y="530" type="line"/>
      <point x="666" y="530" type="line"/>
      <point x="666" y="402" type="line"/>
      <point x="64" y="402" type="line"/>
    </contour>
  </outline>
</glyph>
<glyph name="period" format="1">
  <advance width="408"/>
  <unicode hex="002E"/>
  <outline>
    <contour>
      <point x="205" y="251" type="curve" smooth="yes"/>
      <point x="282" y="251"/>
      <point x="343" y="189"/>
      <point x="343" y="116" type="curve" smooth="yes"/>
      <point x="343" y="44"/>
      <point x="282" y="-20"/>
      <point x="205" y="-20" type="curve" smooth="yes"/>
      <point x="129" y="-20"/>
      <point x="68" y="42"/>
      <point x="68" y="116" type="curve" smooth="yes"/>
      <point x="68" y="189"/>
      <point x="129" y="251"/>
    </contour>
  </outline>
</glyph>
<glyph name="slash" format="1">
  <advance width="724"/>
  <unicode hex="002F"/>
  <outline>
    <contour>
      <point x="677" y="1378" type="curve"/>
      <point x="561" y="965"/>
      <point x="348" y="507"/>
      <point x="205" y="89" type="curve" smooth="yes"/>
      <point x="187" y="37"/>
      <point x="166" y="-15"/>
      <point x="143" y="-65" type="curve"/>
      <point x="127" y="-69"/>
      <point x="111" y="-70"/>
      <point x="95" y="-70" type="curve" smooth="yes"/>
      <point x="67" y="-70" type="line"/>
      <point x="63" y="-54"/>
      <point x="62" y="-37"/>
      <point x="62" y="-21" type="curve" smooth="yes"/>
      <point x="62" y="24"/>
      <point x="75" y="67"/>
      <point x="91" y="109" type="curve" smooth="yes"/>
      <point x="460" y="1089" type="line" smooth="yes"/>
      <point x="487" y="1160"/>
      <point x="536" y="1370"/>
      <point x="597" y="1402" type="curve"/>
      <point x="626" y="1402"/>
      <point x="653" y="1395"/>
    </contour>
  </outline>
</glyph>
<glyph name="zero" format="1">
  <advance width="1116"/>
  <unicode hex="0030"/>
  <outline>
    <contour>
      <point x="561" y="-20" type="curve" smooth="yes"/>
      <point x="229" y="-20"/>
      <point x="65" y="218"/>
      <point x="65" y="455" type="curve" smooth="yes"/>
      <point x="65" y="689"/>
      <point x="229" y="926"/>
      <point x="557" y="926" type="curve" smooth="yes"/>
      <point x="887" y="926"/>
      <point x="1053" y="688"/>
      <point x="1053" y="451" type="curve" smooth="yes"/>
      <point x="1053" y="217"/>
      <point x="890" y="-20"/>
    </contour>
    <contour>
      <point x="574" y="858" type="curve" smooth="yes"/>
      <point x="366" y="858"/>
      <point x="264" y="655"/>
      <point x="264" y="456" type="curve" smooth="yes"/>
      <point x="264" y="264"/>
      <point x="359" y="74"/>
      <point x="542" y="74" type="curve" smooth="yes"/>
      <point x="755" y="74"/>
      <point x="849" y="264"/>
      <point x="849" y="459" type="curve" smooth="yes"/>
      <point x="849" y="657"/>
      <point x="749" y="858"/>
    </contour>
  </outline>
</glyph>
<glyph name="one" format="1">
  <advance width="746"/>
  <unicode hex="0031"/>
  <outline>
    <contour>
      <point x="466" y="770" type="curve" smooth="yes"/>
      <point x="466" y="126" type="line" smooth="yes"/>
      <point x="466" y="10"/>
      <point x="671" y="81"/>
      <point x="671" y="16" type="curve" smooth="yes"/>
      <point x="671" y="13"/>
      <point x="669" y="7"/>
      <point x="666" y="-3" type="curve"/>
      <point x="78" y="-3" type="line"/>
      <point x="75" y="6"/>
      <point x="74" y="11"/>
      <point x="74" y="14" type="curve" smooth="yes"/>
      <point x="74" y="73"/>
      <point x="273" y="20"/>
      <point x="273" y="127" type="curve" smooth="yes"/>
      <point x="273" y="769" type="line" smooth="yes"/>
      <point x="273" y="876"/>
      <point x="74" y="823"/>
      <point x="74" y="882" type="curve" smooth="yes"/>
      <point x="74" y="885"/>
      <point x="75" y="890"/>
      <point x="78" y="899" type="curve"/>
      <point x="666" y="899" type="line"/>
      <point x="669" y="889"/>
      <point x="671" y="883"/>
      <point x="671" y="880" type="curve" smooth="yes"/>
      <point x="671" y="815"/>
      <point x="466" y="886"/>
    </contour>
  </outline>
</glyph>
<glyph name="two" format="1">
  <advance width="844"/>
  <unicode hex="0032"/>
  <outline>
    <contour>
      <point x="491" y="323" type="curve" smooth="yes"/>
      <point x="320" y="146" type="line"/>
      <point x="558" y="146" type="line" smooth="yes"/>
      <point x="742" y="152"/>
      <point x="660" y="316"/>
      <point x="749" y="316" type="curve"/>
      <point x="776" y="313" type="line"/>
      <point x="726" y="0" type="line"/>
      <point x="101" y="0" type="line"/>
      <point x="90" y="39" type="line"/>
      <point x="373" y="375" type="line" smooth="yes"/>
      <point x="425" y="436"/>
      <point x="489" y="564"/>
      <point x="489" y="664" type="curve" smooth="yes"/>
      <point x="489" y="744"/>
      <point x="449" y="807"/>
      <point x="331" y="807" type="curve" smooth="yes"/>
      <point x="243" y="807"/>
      <point x="144" y="774"/>
      <point x="97" y="740" type="curve"/>
      <point x="75" y="813" type="line"/>
      <point x="153" y="887"/>
      <point x="284" y="927"/>
      <point x="413" y="927" type="curve" smooth="yes"/>
      <point x="565" y="927"/>
      <point x="697" y="834"/>
      <point x="697" y="680" type="curve" smooth="yes"/>
      <point x="697" y="582"/>
      <point x="631" y="468"/>
    </contour>
  </outline>
</glyph>
<glyph name="three" format="1">
  <advance width="842"/>
  <unicode hex="0033"/>
  <outline>
    <contour>
      <point x="448" y="432" type="curve"/>
      <point x="662" y="432"/>
      <point x="771" y="285"/>
      <point x="771" y="103" type="curve" smooth="yes"/>
      <point x="771" y="-69"/>
      <point x="626" y="-249"/>
      <point x="339" y="-249" type="curve" smooth="yes"/>
      <point x="145" y="-249"/>
      <point x="70" y="-201"/>
      <point x="70" y="-163" type="curve" smooth="yes"/>
      <point x="70" y="-113"/>
      <point x="98" y="-67"/>
      <point x="144" y="-67" type="curve" smooth="yes"/>
      <point x="161" y="-67"/>
      <point x="275" y="-193"/>
      <point x="316" y="-193" type="curve" smooth="yes"/>
      <point x="485" y="-193"/>
      <point x="573" y="-52"/>
      <point x="573" y="86" type="curve" smooth="yes"/>
      <point x="573" y="219"/>
      <point x="492" y="349"/>
      <point x="324" y="349" type="curve" smooth="yes"/>
      <point x="290" y="349"/>
      <point x="257" y="344"/>
      <point x="224" y="336" type="curve"/>
      <point x="179" y="388" type="line"/>
      <point x="312" y="432"/>
      <point x="529" y="534"/>
      <point x="529" y="699" type="curve" smooth="yes"/>
      <point x="529" y="782"/>
      <point x="475" y="822"/>
      <point x="387" y="822" type="curve" smooth="yes"/>
      <point x="268" y="822"/>
      <point x="199" y="754"/>
      <point x="96" y="711" type="curve"/>
      <point x="87" y="720"/>
      <point x="79" y="739"/>
      <point x="79" y="758" type="curve"/>
      <point x="82" y="774" type="line"/>
      <point x="158" y="872"/>
      <point x="288" y="926"/>
      <point x="410" y="926" type="curve" smooth="yes"/>
      <point x="549" y="926"/>
      <point x="683" y="858"/>
      <point x="683" y="703" type="curve" smooth="yes"/>
      <point x="683" y="548"/>
      <point x="568" y="445"/>
    </contour>
  </outline>
</glyph>
<glyph name="four" format="1">
  <advance width="971"/>
  <unicode hex="0034"/>
  <outline>
    <contour>
      <point x="543" y="757" type="line"/>
      <point x="189" y="178" type="line"/>
      <point x="543" y="178" type="line"/>
    </contour>
    <contour>
      <point x="543" y="-124" type="curve" smooth="yes"/>
      <point x="543" y="74" type="line"/>
      <point x="72" y="74" type="line"/>
      <point x="58" y="121" type="line"/>
      <point x="532" y="894" type="line"/>
      <point x="570" y="902"/>
      <point x="630" y="911"/>
      <point x="736" y="911" type="curve"/>
      <point x="736" y="178" type="line"/>
      <point x="869" y="178" type="line" smooth="yes"/>
      <point x="892" y="178"/>
      <point x="899" y="156"/>
      <point x="899" y="127" type="curve" smooth="yes"/>
      <point x="899" y="100"/>
      <point x="892" y="74"/>
      <point x="884" y="74" type="curve" smooth="yes"/>
      <point x="737" y="74" type="line"/>
      <point x="737" y="-129" type="line" smooth="yes"/>
      <point x="737" y="-213"/>
      <point x="910" y="-179"/>
      <point x="910" y="-223" type="curve" smooth="yes"/>
      <point x="910" y="-228"/>
      <point x="909" y="-234"/>
      <point x="906" y="-239" type="curve"/>
      <point x="368" y="-239" type="line"/>
      <point x="365" y="-231"/>
      <point x="364" y="-226"/>
      <point x="364" y="-223" type="curve" smooth="yes"/>
      <point x="364" y="-171"/>
      <point x="543" y="-211"/>
    </contour>
  </outline>
</glyph>
<glyph name="five" format="1">
  <advance width="864"/>
  <unicode hex="0035"/>
  <outline>
    <contour>
      <point x="298" y="-193" type="curve" smooth="yes"/>
      <point x="480" y="-193"/>
      <point x="554" y="-58"/>
      <point x="554" y="89" type="curve" smooth="yes"/>
      <point x="554" y="257"/>
      <point x="442" y="423"/>
      <point x="175" y="458" type="curve" smooth="yes"/>
      <point x="164" y="460"/>
      <point x="149" y="469"/>
      <point x="149" y="481" type="curve"/>
      <point x="242" y="899" type="line"/>
      <point x="789" y="899" type="line"/>
      <point x="753" y="764" type="line"/>
      <point x="318" y="764" type="line"/>
      <point x="256" y="546" type="line"/>
      <point x="553" y="546"/>
      <point x="761" y="342"/>
      <point x="761" y="124" type="curve" smooth="yes"/>
      <point x="761" y="-64"/>
      <point x="619" y="-249"/>
      <point x="321" y="-249" type="curve" smooth="yes"/>
      <point x="127" y="-249"/>
      <point x="52" y="-201"/>
      <point x="52" y="-163" type="curve" smooth="yes"/>
      <point x="52" y="-113"/>
      <point x="80" y="-67"/>
      <point x="126" y="-67" type="curve" smooth="yes"/>
      <point x="143" y="-67"/>
      <point x="257" y="-193"/>
    </contour>
  </outline>
</glyph>
<glyph name="six" format="1">
  <advance width="993"/>
  <unicode hex="0036"/>
  <outline>
    <contour>
      <point x="732" y="393" type="curve" smooth="yes"/>
      <point x="732" y="612"/>
      <point x="632" y="714"/>
      <point x="483" y="714" type="curve" smooth="yes"/>
      <point x="426" y="714"/>
      <point x="363" y="696"/>
      <point x="299" y="659" type="curve"/>
      <point x="283" y="577"/>
      <point x="275" y="522"/>
      <point x="275" y="456" type="curve" smooth="yes"/>
      <point x="275" y="183"/>
      <point x="382" y="49"/>
      <point x="523" y="49" type="curve" smooth="yes"/>
      <point x="635" y="49"/>
      <point x="732" y="165"/>
    </contour>
    <contour>
      <point x="640" y="1244" type="curve"/>
      <point x="651" y="1247"/>
      <point x="665" y="1248"/>
      <point x="677" y="1248" type="curve" smooth="yes"/>
      <point x="698" y="1248"/>
      <point x="704" y="1243"/>
      <point x="704" y="1220" type="curve" smooth="yes"/>
      <point x="704" y="1208"/>
      <point x="703" y="1201"/>
      <point x="684" y="1194" type="curve" smooth="yes"/>
      <point x="535" y="1135"/>
      <point x="361" y="949"/>
      <point x="308" y="728" type="curve"/>
      <point x="384" y="764"/>
      <point x="462" y="780"/>
      <point x="535" y="780" type="curve" smooth="yes"/>
      <point x="759" y="780"/>
      <point x="932" y="639"/>
      <point x="932" y="386" type="curve" smooth="yes"/>
      <point x="932" y="144"/>
      <point x="723" y="-20"/>
      <point x="504" y="-20" type="curve" smooth="yes"/>
      <point x="197" y="-20"/>
      <point x="71" y="192"/>
      <point x="71" y="444" type="curve" smooth="yes"/>
      <point x="71" y="785"/>
      <point x="303" y="1196"/>
    </contour>
  </outline>
</glyph>
<glyph name="seven" format="1">
  <advance width="904"/>
  <unicode hex="0037"/>
  <outline>
    <contour>
      <point x="471" y="-302" type="curve"/>
      <point x="261" y="-302" type="line"/>
      <point x="355" y="31"/>
      <point x="513" y="509"/>
      <point x="702" y="795" type="curve"/>
      <point x="270" y="767" type="line" smooth="yes"/>
      <point x="91" y="755"/>
      <point x="164" y="549"/>
      <point x="85" y="549" type="curve" smooth="yes"/>
      <point x="79" y="549"/>
      <point x="70" y="552"/>
      <point x="65" y="553" type="curve"/>
      <point x="88" y="888" type="line"/>
      <point x="98" y="899" type="line"/>
      <point x="831" y="899" type="line"/>
      <point x="846" y="847" type="line"/>
      <point x="670" y="491"/>
      <point x="558" y="85"/>
    </contour>
  </outline>
</glyph>
<glyph name="eight" format="1">
  <advance width="995"/>
  <unicode hex="0038"/>
  <outline>
    <contour>
      <point x="307" y="1005" type="curve" smooth="yes"/>
      <point x="307" y="897"/>
      <point x="402" y="825"/>
      <point x="518" y="754" type="curve"/>
      <point x="633" y="829"/>
      <point x="705" y="889"/>
      <point x="705" y="986" type="curve" smooth="yes"/>
      <point x="705" y="1065"/>
      <point x="666" y="1142"/>
      <point x="508" y="1142" type="curve" smooth="yes"/>
      <point x="379" y="1142"/>
      <point x="307" y="1091"/>
    </contour>
    <contour>
      <point x="496" y="59" type="curve" smooth="yes"/>
      <point x="675" y="59"/>
      <point x="727" y="183"/>
      <point x="727" y="285" type="curve" smooth="yes"/>
      <point x="727" y="392"/>
      <point x="613" y="465"/>
      <point x="486" y="547" type="curve" smooth="yes"/>
      <point x="466" y="560" type="line"/>
      <point x="327" y="472"/>
      <point x="206" y="391"/>
      <point x="206" y="285" type="curve" smooth="yes"/>
      <point x="206" y="147"/>
      <point x="305" y="59"/>
    </contour>
    <contour>
      <point x="74" y="283" type="curve" smooth="yes"/>
      <point x="74" y="436"/>
      <point x="201" y="537"/>
      <point x="341" y="631" type="curve"/>
      <point x="228" y="714"/>
      <point x="129" y="811"/>
      <point x="129" y="951" type="curve" smooth="yes"/>
      <point x="129" y="1099"/>
      <point x="262" y="1215"/>
      <point x="508" y="1215" type="curve" smooth="yes"/>
      <point x="748" y="1215"/>
      <point x="833" y="1078"/>
      <point x="833" y="980" type="curve" smooth="yes"/>
      <point x="833" y="846"/>
      <point x="747" y="767"/>
      <point x="634" y="681" type="curve"/>
      <point x="782" y="588"/>
      <point x="927" y="480"/>
      <point x="927" y="272" type="curve" smooth="yes"/>
      <point x="927" y="132"/>
      <point x="828" y="-20"/>
      <point x="481" y="-20" type="curve" smooth="yes"/>
      <point x="233" y="-20"/>
      <point x="74" y="115"/>
    </contour>
  </outline>
</glyph>
<glyph name="nine" format="1">
  <advance width="993"/>
  <unicode hex="0039"/>
  <outline>
    <contour>
      <point x="262" y="513" type="curve" smooth="yes"/>
      <point x="262" y="294"/>
      <point x="362" y="192"/>
      <point x="511" y="192" type="curve" smooth="yes"/>
      <point x="568" y="192"/>
      <point x="631" y="210"/>
      <point x="695" y="247" type="curve"/>
      <point x="711" y="329"/>
      <point x="719" y="384"/>
      <point x="719" y="450" type="curve" smooth="yes"/>
      <point x="719" y="723"/>
      <point x="612" y="857"/>
      <point x="471" y="857" type="curve" smooth="yes"/>
      <point x="359" y="857"/>
      <point x="262" y="741"/>
    </contour>
    <contour>
      <point x="354" y="-338" type="curve"/>
      <point x="343" y="-341"/>
      <point x="329" y="-342"/>
      <point x="317" y="-342" type="curve" smooth="yes"/>
      <point x="296" y="-342"/>
      <point x="290" y="-337"/>
      <point x="290" y="-314" type="curve" smooth="yes"/>
      <point x="290" y="-302"/>
      <point x="291" y="-296"/>
      <point x="310" y="-288" type="curve" smooth="yes"/>
      <point x="459" y="-230"/>
      <point x="633" y="-44"/>
      <point x="686" y="178" type="curve"/>
      <point x="610" y="142"/>
      <point x="532" y="126"/>
      <point x="459" y="126" type="curve" smooth="yes"/>
      <point x="235" y="126"/>
      <point x="62" y="267"/>
      <point x="62" y="520" type="curve" smooth="yes"/>
      <point x="62" y="762"/>
      <point x="271" y="926"/>
      <point x="490" y="926" type="curve" smooth="yes"/>
      <point x="797" y="926"/>
      <point x="923" y="714"/>
      <point x="923" y="462" type="curve" smooth="yes"/>
      <point x="923" y="121"/>
      <point x="691" y="-290"/>
    </contour>
  </outline>
</glyph>
<glyph name="colon" format="1">
  <advance width="436"/>
  <unicode hex="003A"/>
  <outline>
    <contour>
      <point x="218" y="1039" type="curve" smooth="yes"/>
      <point x="295" y="1039"/>
      <point x="357" y="976"/>
      <point x="357" y="904" type="curve" smooth="yes"/>
      <point x="357" y="832"/>
      <point x="295" y="768"/>
      <point x="218" y="768" type="curve" smooth="yes"/>
      <point x="142" y="768"/>
      <point x="81" y="830"/>
      <point x="81" y="904" type="curve" smooth="yes"/>
      <point x="81" y="976"/>
      <point x="142" y="1039"/>
    </contour>
    <contour>
      <point x="218" y="251" type="curve" smooth="yes"/>
      <point x="295" y="251"/>
      <point x="357" y="189"/>
      <point x="357" y="116" type="curve" smooth="yes"/>
      <point x="357" y="44"/>
      <point x="295" y="-20"/>
      <point x="218" y="-20" type="curve" smooth="yes"/>
      <point x="142" y="-20"/>
      <point x="81" y="42"/>
      <point x="81" y="116" type="curve" smooth="yes"/>
      <point x="81" y="189"/>
      <point x="142" y="251"/>
    </contour>
  </outline>
</glyph>
<glyph name="semicolon" format="1">
  <advance width="501"/>
  <unicode hex="003B"/>
  <outline>
    <contour>
      <point x="90" y="-268" type="curve"/>
      <point x="81" y="-253"/>
      <point x="73" y="-236"/>
      <point x="73" y="-208" type="curve"/>
      <point x="177" y="-174"/>
      <point x="292" y="-153"/>
      <point x="292" y="-23" type="curve"/>
      <point x="273" y="22"/>
      <point x="243" y="47"/>
      <point x="190" y="56" type="curve" smooth="yes"/>
      <point x="128" y="66"/>
      <point x="92" y="110"/>
      <point x="92" y="174" type="curve" smooth="yes"/>
      <point x="92" y="252"/>
      <point x="147" y="311"/>
      <point x="233" y="311" type="curve" smooth="yes"/>
      <point x="338" y="311"/>
      <point x="425" y="217"/>
      <point x="425" y="45" type="curve" smooth="yes"/>
      <point x="425" y="-163"/>
      <point x="269" y="-264"/>
    </contour>
    <contour>
      <point x="251" y="1039" type="curve" smooth="yes"/>
      <point x="328" y="1039"/>
      <point x="390" y="976"/>
      <point x="390" y="904" type="curve" smooth="yes"/>
      <point x="390" y="832"/>
      <point x="328" y="768"/>
      <point x="251" y="768" type="curve" smooth="yes"/>
      <point x="175" y="768"/>
      <point x="114" y="830"/>
      <point x="114" y="904" type="curve" smooth="yes"/>
      <point x="114" y="976"/>
      <point x="175" y="1039"/>
    </contour>
  </outline>
</glyph>
<glyph name="less" format="1">
  <advance width="603"/>
  <unicode hex="003C"/>
  <outline>
    <contour>
      <point x="470" y="18" type="curve" smooth="yes"/>
      <point x="434" y="18"/>
      <point x="415" y="29"/>
      <point x="394" y="59" type="curve" smooth="yes"/>
      <point x="55" y="553" type="line"/>
      <point x="142" y="668"/>
      <point x="352" y="996"/>
      <point x="460" y="1068" type="curve"/>
      <point x="493" y="1068"/>
      <point x="533" y="1047"/>
      <point x="533" y="1009" type="curve"/>
      <point x="463" y="855"/>
      <point x="293" y="688"/>
      <point x="186" y="553" type="curve"/>
      <point x="237" y="482"/>
      <point x="515" y="144"/>
      <point x="515" y="69" type="curve" smooth="yes"/>
      <point x="515" y="42"/>
      <point x="499" y="18"/>
    </contour>
  </outline>
</glyph>
<glyph name="equal" format="1">
  <advance width="718"/>
  <unicode hex="003D"/>
  <outline>
    <contour>
      <point x="164" y="487" type="curve" smooth="yes"/>
      <point x="539" y="487" type="line" smooth="yes"/>
      <point x="583" y="487"/>
      <point x="650" y="483"/>
      <point x="650" y="437" type="curve" smooth="yes"/>
      <point x="650" y="400"/>
      <point x="606" y="393"/>
      <point x="566" y="393" type="curve" smooth="yes"/>
      <point x="546" y="393"/>
      <point x="527" y="395"/>
      <point x="515" y="395" type="curve" smooth="yes"/>
      <point x="203" y="395" type="line" smooth="yes"/>
      <point x="192" y="395"/>
      <point x="175" y="394"/>
      <point x="158" y="394" type="curve" smooth="yes"/>
      <point x="116" y="394"/>
      <point x="68" y="400"/>
      <point x="68" y="442" type="curve" smooth="yes"/>
      <point x="68" y="482"/>
      <point x="122" y="487"/>
    </contour>
    <contour>
      <point x="164" y="729" type="curve" smooth="yes"/>
      <point x="539" y="729" type="line" smooth="yes"/>
      <point x="583" y="729"/>
      <point x="650" y="725"/>
      <point x="650" y="679" type="curve" smooth="yes"/>
      <point x="650" y="642"/>
      <point x="606" y="635"/>
      <point x="566" y="635" type="curve" smooth="yes"/>
      <point x="546" y="635"/>
      <point x="527" y="637"/>
      <point x="515" y="637" type="curve" smooth="yes"/>
      <point x="203" y="637" type="line" smooth="yes"/>
      <point x="192" y="637"/>
      <point x="175" y="636"/>
      <point x="158" y="636" type="curve" smooth="yes"/>
      <point x="116" y="636"/>
      <point x="68" y="642"/>
      <point x="68" y="684" type="curve" smooth="yes"/>
      <point x="68" y="724"/>
      <point x="122" y="729"/>
    </contour>
  </outline>
</glyph>
<glyph name="greater" format="1">
  <advance width="604"/>
  <unicode hex="003E"/>
  <outline>
    <contour>
      <point x="134" y="18" type="curve" smooth="yes"/>
      <point x="105" y="18"/>
      <point x="89" y="42"/>
      <point x="89" y="69" type="curve" smooth="yes"/>
      <point x="89" y="145"/>
      <point x="366" y="480"/>
      <point x="418" y="553" type="curve"/>
      <point x="311" y="688"/>
      <point x="141" y="855"/>
      <point x="71" y="1009" type="curve"/>
      <point x="71" y="1047"/>
      <point x="111" y="1068"/>
      <point x="144" y="1068" type="curve"/>
      <point x="252" y="996"/>
      <point x="462" y="668"/>
      <point x="549" y="553" type="curve"/>
      <point x="210" y="59" type="line" smooth="yes"/>
      <point x="189" y="29"/>
      <point x="170" y="18"/>
    </contour>
  </outline>
</glyph>
<glyph name="question" format="1">
  <advance width="778"/>
  <unicode hex="003F"/>
  <outline>
    <contour>
      <point x="321" y="397" type="curve" smooth="yes"/>
      <point x="321" y="358" type="line"/>
      <point x="240" y="358" type="line"/>
      <point x="233" y="431"/>
      <point x="208" y="502"/>
      <point x="208" y="576" type="curve" smooth="yes"/>
      <point x="208" y="690"/>
      <point x="576" y="756"/>
      <point x="576" y="984" type="curve" smooth="yes"/>
      <point x="576" y="1110"/>
      <point x="459" y="1218"/>
      <point x="335" y="1218" type="curve" smooth="yes"/>
      <point x="246" y="1218"/>
      <point x="215" y="1096"/>
      <point x="127" y="1096" type="curve" smooth="yes"/>
      <point x="83" y="1096"/>
      <point x="51" y="1138"/>
      <point x="51" y="1179" type="curve" smooth="yes"/>
      <point x="51" y="1294"/>
      <point x="202" y="1329"/>
      <point x="307" y="1329" type="curve" smooth="yes"/>
      <point x="501" y="1329"/>
      <point x="713" y="1161"/>
      <point x="713" y="970" type="curve" smooth="yes"/>
      <point x="713" y="613"/>
      <point x="321" y="649"/>
    </contour>
    <contour>
      <point x="287" y="236" type="curve" smooth="yes"/>
      <point x="355" y="236"/>
      <point x="413" y="179"/>
      <point x="413" y="111" type="curve" smooth="yes"/>
      <point x="413" y="43"/>
      <point x="354" y="-13"/>
      <point x="287" y="-13" type="curve" smooth="yes"/>
      <point x="220" y="-13"/>
      <point x="164" y="45"/>
      <point x="164" y="111" type="curve" smooth="yes"/>
      <point x="164" y="178"/>
      <point x="219" y="236"/>
    </contour>
  </outline>
</glyph>
<glyph name="at" format="1">
  <advance width="1621"/>
  <unicode hex="0040"/>
  <outline>
    <contour>
      <point x="547" y="446" type="curve" smooth="yes"/>
      <point x="547" y="332"/>
      <point x="596" y="231"/>
      <point x="705" y="229" type="curve" smooth="yes"/>
      <point x="793" y="229"/>
      <point x="895" y="318"/>
      <point x="956" y="484" type="curve"/>
      <point x="979" y="601"/>
      <point x="981" y="587"/>
      <point x="991" y="705" type="curve" smooth="yes"/>
      <point x="993" y="731"/>
      <point x="997" y="766"/>
      <point x="997" y="801" type="curve" smooth="yes"/>
      <point x="997" y="872"/>
      <point x="980" y="944"/>
      <point x="896" y="945" type="curve" smooth="yes"/>
      <point x="894" y="945" type="line" smooth="yes"/>
      <point x="715" y="945"/>
      <point x="547" y="665"/>
    </contour>
    <contour>
      <point x="1132" y="317" type="curve" smooth="yes"/>
      <point x="1132" y="244"/>
      <point x="1181" y="194"/>
      <point x="1240" y="194" type="curve" smooth="yes"/>
      <point x="1330" y="194"/>
      <point x="1445" y="312"/>
      <point x="1445" y="646" type="curve" smooth="yes"/>
      <point x="1445" y="1073"/>
      <point x="1173" y="1216"/>
      <point x="921" y="1216" type="curve" smooth="yes"/>
      <point x="490" y="1216"/>
      <point x="171" y="915"/>
      <point x="171" y="445" type="curve" smooth="yes"/>
      <point x="171" y="99"/>
      <point x="467" y="-72"/>
      <point x="797" y="-72" type="curve" smooth="yes"/>
      <point x="974" y="-72"/>
      <point x="1062" y="-37"/>
      <point x="1182" y="7" type="curve"/>
      <point x="1175" y="-66" type="line"/>
      <point x="1049" y="-126"/>
      <point x="904" y="-157"/>
      <point x="761" y="-157" type="curve" smooth="yes"/>
      <point x="409" y="-157"/>
      <point x="73" y="47"/>
      <point x="73" y="455" type="curve" smooth="yes"/>
      <point x="73" y="943"/>
      <point x="430" y="1295"/>
      <point x="924" y="1295" type="curve" smooth="yes"/>
      <point x="1281" y="1295"/>
      <point x="1548" y="1063"/>
      <point x="1548" y="647" type="curve" smooth="yes"/>
      <point x="1548" y="433"/>
      <point x="1448" y="135"/>
      <point x="1199" y="135" type="curve" smooth="yes"/>
      <point x="1196" y="135" type="line" smooth="yes"/>
      <point x="1086" y="136"/>
      <point x="975" y="185"/>
      <point x="961" y="388" type="curve"/>
      <point x="892" y="206"/>
      <point x="770" y="132"/>
      <point x="659" y="132" type="curve" smooth="yes"/>
      <point x="657" y="132" type="line" smooth="yes"/>
      <point x="480" y="134"/>
      <point x="389" y="279"/>
      <point x="389" y="442" type="curve" smooth="yes"/>
      <point x="389" y="455"/>
      <point x="390" y="469"/>
      <point x="391" y="482" type="curve" smooth="yes"/>
      <point x="414" y="752"/>
      <point x="633" y="1024"/>
      <point x="919" y="1024" type="curve" smooth="yes"/>
      <point x="924" y="1024" type="line" smooth="yes"/>
      <point x="1117" y="1022"/>
      <point x="1173" y="902"/>
      <point x="1173" y="743" type="curve" smooth="yes"/>
      <point x="1173" y="584"/>
      <point x="1132" y="468"/>
    </contour>
  </outline>
</glyph>
<glyph name="A" format="1">
  <advance width="1509"/>
  <unicode hex="0041"/>
  <outline>
    <contour>
      <point x="539" y="57" type="curve"/>
      <point x="539" y="0" type="line"/>
      <point x="56" y="0" type="line"/>
      <point x="56" y="52" type="line"/>
      <point x="107" y="78"/>
      <point x="186" y="85"/>
      <point x="227" y="163" type="curve" smooth="yes"/>
      <point x="245" y="198"/>
      <point x="258" y="236"/>
      <point x="273" y="273" type="curve" smooth="yes"/>
      <point x="647" y="1231" type="line" smooth="yes"/>
      <point x="657" y="1258"/>
      <point x="647" y="1299"/>
      <point x="666" y="1324" type="curve"/>
      <point x="727" y="1324"/>
      <point x="772" y="1315"/>
      <point x="822" y="1277" type="curve"/>
      <point x="1281" y="176" type="line" smooth="yes"/>
      <point x="1318" y="86"/>
      <point x="1384" y="78"/>
      <point x="1454" y="52" type="curve"/>
      <point x="1452" y="0" type="line"/>
      <point x="870" y="0" type="line"/>
      <point x="868" y="52" type="line"/>
      <point x="928" y="70"/>
      <point x="1036" y="101"/>
      <point x="1036" y="180" type="curve" smooth="yes"/>
      <point x="1036" y="227"/>
      <point x="937" y="472"/>
      <point x="915" y="532" type="curve"/>
      <point x="464" y="532" type="line"/>
      <point x="444" y="477"/>
      <point x="348" y="253"/>
      <point x="348" y="175" type="curve" smooth="yes"/>
      <point x="348" y="90"/>
      <point x="467" y="72"/>
    </contour>
    <contour>
      <point x="878" y="620" type="line"/>
      <point x="681" y="1112" type="line"/>
      <point x="498" y="620" type="line"/>
    </contour>
    <contour>
      <point x="717" y="1302" type="move" name="top"/>
    </contour>
    <contour>
      <point x="1267" y="10" type="move" name="ogonek"/>
    </contour>
  </outline>
</glyph>
<glyph name="B" format="1">
  <advance width="1368"/>
  <unicode hex="0042"/>
  <outline>
    <contour>
      <point x="530" y="1227" type="curve" smooth="yes"/>
      <point x="484" y="1227" type="line"/>
      <point x="484" y="730" type="line"/>
      <point x="503" y="713"/>
      <point x="538" y="700"/>
      <point x="564" y="700" type="curve" smooth="yes"/>
      <point x="697" y="700" type="line" smooth="yes"/>
      <point x="865" y="700"/>
      <point x="1017" y="749"/>
      <point x="1017" y="943" type="curve" smooth="yes"/>
      <point x="1017" y="1223"/>
      <point x="739" y="1227"/>
    </contour>
    <contour>
      <point x="509" y="630" type="curve"/>
      <point x="484" y="608"/>
      <point x="484" y="572"/>
      <point x="484" y="542" type="curve" smooth="yes"/>
      <point x="484" y="274" type="line" smooth="yes"/>
      <point x="484" y="205"/>
      <point x="503" y="87"/>
      <point x="594" y="87" type="curve" smooth="yes"/>
      <point x="756" y="87" type="line" smooth="yes"/>
      <point x="907" y="87"/>
      <point x="1032" y="177"/>
      <point x="1032" y="336" type="curve" smooth="yes"/>
      <point x="1032" y="627"/>
      <point x="721" y="630"/>
    </contour>
    <contour>
      <point x="269" y="221" type="curve" smooth="yes"/>
      <point x="269" y="1023" type="line" smooth="yes"/>
      <point x="269" y="1236"/>
      <point x="208" y="1188"/>
      <point x="53" y="1251" type="curve"/>
      <point x="55" y="1302" type="line"/>
      <point x="623" y="1302" type="line" smooth="yes"/>
      <point x="856" y="1302"/>
      <point x="1216" y="1292"/>
      <point x="1216" y="975" type="curve" smooth="yes"/>
      <point x="1216" y="771"/>
      <point x="1027" y="698"/>
      <point x="855" y="669" type="curve"/>
      <point x="1043" y="660"/>
      <point x="1282" y="574"/>
      <point x="1282" y="349" type="curve" smooth="yes"/>
      <point x="1282" y="81"/>
      <point x="994" y="0"/>
      <point x="775" y="0" type="curve" smooth="yes"/>
      <point x="55" y="0" type="line"/>
      <point x="53" y="52" type="line"/>
      <point x="148" y="80"/>
      <point x="269" y="95"/>
    </contour>
  </outline>
</glyph>
<glyph name="C" format="1">
  <advance width="1368"/>
  <unicode hex="0043"/>
  <outline>
    <contour>
      <point x="1235" y="1245" type="curve"/>
      <point x="1276" y="943" type="line"/>
      <point x="1229" y="941" type="line"/>
      <point x="1190" y="980"/>
      <point x="1153" y="1075"/>
      <point x="1111" y="1117" type="curve" smooth="yes"/>
      <point x="1019" y="1209"/>
      <point x="907" y="1250"/>
      <point x="791" y="1250" type="curve" smooth="yes"/>
      <point x="536" y="1250"/>
      <point x="301" y="1048"/>
      <point x="301" y="680" type="curve" smooth="yes"/>
      <point x="301" y="315"/>
      <point x="510" y="81"/>
      <point x="833" y="81" type="curve" smooth="yes"/>
      <point x="1011" y="81"/>
      <point x="1159" y="155"/>
      <point x="1238" y="304" type="curve"/>
      <point x="1287" y="297" type="line"/>
      <point x="1278" y="108" type="line"/>
      <point x="1131" y="26"/>
      <point x="923" y="-26"/>
      <point x="761" y="-26" type="curve" smooth="yes"/>
      <point x="370" y="-26"/>
      <point x="67" y="225"/>
      <point x="67" y="640" type="curve" smooth="yes"/>
      <point x="67" y="1022"/>
      <point x="360" y="1327"/>
      <point x="819" y="1327" type="curve" smooth="yes"/>
      <point x="954" y="1327"/>
      <point x="1091" y="1301"/>
    </contour>
    <contour>
      <point x="713" y="1302" type="move" name="top"/>
    </contour>
    <contour>
      <point x="713" y="0" type="move" name="bottom"/>
    </contour>
  </outline>
</glyph>
<glyph name="D" format="1">
  <advance width="1584"/>
  <unicode hex="0044"/>
  <outline>
    <contour>
      <point x="295" y="219" type="curve" smooth="yes"/>
      <point x="295" y="1010" type="line" smooth="yes"/>
      <point x="295" y="1053"/>
      <point x="291" y="1094"/>
      <point x="285" y="1131" type="curve" smooth="yes"/>
      <point x="270" y="1212"/>
      <point x="143" y="1226"/>
      <point x="71" y="1251" type="curve"/>
      <point x="73" y="1302" type="line"/>
      <point x="665" y="1302" type="line" smooth="yes"/>
      <point x="1141" y="1302"/>
      <point x="1515" y="1130"/>
      <point x="1515" y="658" type="curve" smooth="yes"/>
      <point x="1515" y="321"/>
      <point x="1270" y="0"/>
      <point x="792" y="0" type="curve" smooth="yes"/>
      <point x="73" y="0" type="line"/>
      <point x="71" y="52" type="line"/>
      <point x="168" y="81"/>
      <point x="295" y="81"/>
    </contour>
    <contour>
      <point x="678" y="1225" type="curve" smooth="yes"/>
      <point x="510" y="1225" type="line"/>
      <point x="510" y="271" type="line" smooth="yes"/>
      <point x="510" y="166"/>
      <point x="543" y="85"/>
      <point x="658" y="80" type="curve" smooth="yes"/>
      <point x="695" y="78"/>
      <point x="736" y="77"/>
      <point x="773" y="77" type="curve" smooth="yes"/>
      <point x="1119" y="77"/>
      <point x="1277" y="352"/>
      <point x="1277" y="609" type="curve" smooth="yes"/>
      <point x="1277" y="954"/>
      <point x="1097" y="1225"/>
    </contour>
    <contour>
      <point x="802" y="1302" type="move" name="top"/>
    </contour>
    <contour>
      <point x="802" y="651" type="move" name="center"/>
    </contour>
  </outline>
</glyph>
<glyph name="E" format="1">
  <advance width="1382"/>
  <unicode hex="0045"/>
  <outline>
    <contour>
      <point x="1249" y="342" type="curve"/>
      <point x="1312" y="342" type="line"/>
      <point x="1246" y="-9" type="line"/>
      <point x="1235" y="-11"/>
      <point x="1225" y="-12"/>
      <point x="1214" y="-12" type="curve" smooth="yes"/>
      <point x="1175" y="-12"/>
      <point x="1138" y="0"/>
      <point x="1099" y="0" type="curve" smooth="yes"/>
      <point x="73" y="0" type="line"/>
      <point x="71" y="49" type="line"/>
      <point x="215" y="128"/>
      <point x="284" y="26"/>
      <point x="284" y="267" type="curve" smooth="yes"/>
      <point x="284" y="1024" type="line" smooth="yes"/>
      <point x="284" y="1225"/>
      <point x="226" y="1190"/>
      <point x="71" y="1251" type="curve"/>
      <point x="73" y="1302" type="line"/>
      <point x="1093" y="1302" type="line" smooth="yes"/>
      <point x="1129" y="1302"/>
      <point x="1165" y="1312"/>
      <point x="1201" y="1312" type="curve" smooth="yes"/>
      <point x="1213" y="1312"/>
      <point x="1226" y="1311"/>
      <point x="1238" y="1308" type="curve"/>
      <point x="1238" y="997" type="line"/>
      <point x="1186" y="995" type="line"/>
      <point x="1123" y="1057"/>
      <point x="1132" y="1175"/>
      <point x="1036" y="1207" type="curve" smooth="yes"/>
      <point x="951" y="1235"/>
      <point x="801" y="1235"/>
      <point x="705" y="1235" type="curve" smooth="yes"/>
      <point x="632" y="1235"/>
      <point x="569" y="1234"/>
      <point x="503" y="1226" type="curve"/>
      <point x="500" y="1192"/>
      <point x="499" y="1157"/>
      <point x="499" y="1123" type="curve" smooth="yes"/>
      <point x="499" y="717" type="line"/>
      <point x="787" y="717" type="line" smooth="yes"/>
      <point x="946" y="717"/>
      <point x="961" y="748"/>
      <point x="1025" y="864" type="curve" smooth="yes"/>
      <point x="1040" y="891" type="line"/>
      <point x="1097" y="891" type="line"/>
      <point x="1097" y="462" type="line"/>
      <point x="1040" y="459" type="line"/>
      <point x="1002" y="561"/>
      <point x="945" y="641"/>
      <point x="826" y="641" type="curve" smooth="yes"/>
      <point x="499" y="641" type="line"/>
      <point x="499" y="304" type="line" smooth="yes"/>
      <point x="499" y="88"/>
      <point x="576" y="70"/>
      <point x="727" y="70" type="curve" smooth="yes"/>
      <point x="825" y="70" type="line" smooth="yes"/>
      <point x="955" y="70"/>
      <point x="1112" y="84"/>
      <point x="1178" y="215" type="curve" smooth="yes"/>
      <point x="1199" y="258"/>
      <point x="1215" y="306"/>
    </contour>
    <contour>
      <point x="693" y="1302" type="move" name="top"/>
    </contour>
    <contour>
      <point x="693" y="0" type="move" name="bottom"/>
    </contour>
    <contour>
      <point x="1247" y="10" type="move" name="ogonek"/>
    </contour>
  </outline>
</glyph>
<glyph name="F" format="1">
  <advance width="1305"/>
  <unicode hex="0046"/>
  <outline>
    <contour>
      <point x="1027" y="903" type="curve"/>
      <point x="1086" y="901" type="line"/>
      <point x="1086" y="466" type="line"/>
      <point x="1067" y="464"/>
      <point x="1048" y="463"/>
      <point x="1029" y="463" type="curve"/>
      <point x="941" y="645"/>
      <point x="918" y="657"/>
      <point x="756" y="657" type="curve" smooth="yes"/>
      <point x="507" y="657" type="line"/>
      <point x="507" y="258" type="line" smooth="yes"/>
      <point x="507" y="36"/>
      <point x="599" y="106"/>
      <point x="751" y="52" type="curve"/>
      <point x="751" y="0" type="line"/>
      <point x="77" y="0" type="line"/>
      <point x="75" y="52" type="line"/>
      <point x="217" y="116"/>
      <point x="292" y="40"/>
      <point x="292" y="261" type="curve" smooth="yes"/>
      <point x="292" y="1021" type="line" smooth="yes"/>
      <point x="292" y="1231"/>
      <point x="229" y="1193"/>
      <point x="69" y="1251" type="curve"/>
      <point x="69" y="1302" type="line"/>
      <point x="75" y="1302"/>
      <point x="1051" y="1303"/>
      <point x="1070" y="1303" type="curve" smooth="yes"/>
      <point x="1238" y="1305" type="line"/>
      <point x="1238" y="995" type="line"/>
      <point x="1193" y="993" type="line"/>
      <point x="1126" y="1067"/>
      <point x="1107" y="1205"/>
      <point x="993" y="1222" type="curve" smooth="yes"/>
      <point x="923" y="1232"/>
      <point x="851" y="1232"/>
      <point x="780" y="1232" type="curve" smooth="yes"/>
      <point x="588" y="1232" type="line" smooth="yes"/>
      <point x="520" y="1232"/>
      <point x="507" y="1229"/>
      <point x="507" y="1160" type="curve" smooth="yes"/>
      <point x="507" y="733" type="line"/>
      <point x="587" y="733"/>
      <point x="654" y="729"/>
      <point x="720" y="729" type="curve" smooth="yes"/>
      <point x="787" y="729"/>
      <point x="853" y="733"/>
      <point x="914" y="749" type="curve" smooth="yes"/>
      <point x="983" y="767"/>
      <point x="995" y="850"/>
    </contour>
  </outline>
</glyph>
<glyph name="G" format="1">
  <advance width="1568"/>
  <unicode hex="0047"/>
  <outline>
    <contour>
      <point x="1341" y="463" type="curve" smooth="yes"/>
      <point x="1341" y="95" type="line"/>
      <point x="1207" y="25"/>
      <point x="1016" y="-26"/>
      <point x="825" y="-26" type="curve" smooth="yes"/>
      <point x="369" y="-26"/>
      <point x="67" y="237"/>
      <point x="67" y="638" type="curve" smooth="yes"/>
      <point x="67" y="1055"/>
      <point x="433" y="1327"/>
      <point x="862" y="1327" type="curve" smooth="yes"/>
      <point x="1020" y="1327"/>
      <point x="1137" y="1305"/>
      <point x="1301" y="1247" type="curve"/>
      <point x="1331" y="945" type="line"/>
      <point x="1310" y="943"/>
      <point x="1290" y="942"/>
      <point x="1273" y="942" type="curve"/>
      <point x="1236" y="974"/>
      <point x="1207" y="1062"/>
      <point x="1175" y="1100" type="curve" smooth="yes"/>
      <point x="1082" y="1211"/>
      <point x="963" y="1250"/>
      <point x="836" y="1250" type="curve" smooth="yes"/>
      <point x="527" y="1250"/>
      <point x="306" y="1003"/>
      <point x="306" y="675" type="curve" smooth="yes"/>
      <point x="306" y="322"/>
      <point x="523" y="62"/>
      <point x="842" y="62" type="curve" smooth="yes"/>
      <point x="949" y="62"/>
      <point x="1030" y="78"/>
      <point x="1109" y="127" type="curve"/>
      <point x="1117" y="195"/>
      <point x="1121" y="277"/>
      <point x="1121" y="381" type="curve" smooth="yes"/>
      <point x="1121" y="439"/>
      <point x="1113" y="498"/>
      <point x="1093" y="553" type="curve" smooth="yes"/>
      <point x="1069" y="621"/>
      <point x="959" y="609"/>
      <point x="905" y="632" type="curve"/>
      <point x="905" y="649"/>
      <point x="907" y="684"/>
      <point x="907" y="684" type="curve"/>
      <point x="1507" y="684" type="line"/>
      <point x="1507" y="684"/>
      <point x="1509" y="648"/>
      <point x="1509" y="632" type="curve"/>
      <point x="1427" y="601"/>
      <point x="1341" y="587"/>
    </contour>
    <contour>
      <point x="788" y="1302" type="move" name="top"/>
    </contour>
    <contour>
      <point x="788" y="0" type="move" name="bottom"/>
    </contour>
  </outline>
</glyph>
<glyph name="H" format="1">
  <advance width="1709"/>
  <unicode hex="0048"/>
  <outline>
    <contour>
      <point x="1211" y="252" type="curve" smooth="yes"/>
      <point x="1211" y="625" type="line"/>
      <point x="497" y="625" type="line"/>
      <point x="497" y="255" type="line" smooth="yes"/>
      <point x="497" y="42"/>
      <point x="576" y="110"/>
      <point x="719" y="52" type="curve"/>
      <point x="717" y="0" type="line"/>
      <point x="73" y="0" type="line"/>
      <point x="72" y="17"/>
      <point x="70" y="35"/>
      <point x="70" y="52" type="curve"/>
      <point x="221" y="116"/>
      <point x="282" y="43"/>
      <point x="282" y="265" type="curve" smooth="yes"/>
      <point x="282" y="1038" type="line" smooth="yes"/>
      <point x="282" y="1245"/>
      <point x="212" y="1188"/>
      <point x="71" y="1251" type="curve"/>
      <point x="73" y="1302" type="line"/>
      <point x="716" y="1302" type="line"/>
      <point x="718" y="1250" type="line"/>
      <point x="577" y="1186"/>
      <point x="497" y="1253"/>
      <point x="497" y="1037" type="curve" smooth="yes"/>
      <point x="497" y="712" type="line"/>
      <point x="1211" y="712" type="line"/>
      <point x="1211" y="1047" type="line" smooth="yes"/>
      <point x="1211" y="1241"/>
      <point x="1136" y="1188"/>
      <point x="1008" y="1251" type="curve"/>
      <point x="1010" y="1302" type="line"/>
      <point x="1637" y="1302" type="line"/>
      <point x="1639" y="1250" type="line"/>
      <point x="1484" y="1195"/>
      <point x="1426" y="1233"/>
      <point x="1426" y="1030" type="curve" smooth="yes"/>
      <point x="1426" y="267" type="line" smooth="yes"/>
      <point x="1426" y="55"/>
      <point x="1481" y="107"/>
      <point x="1639" y="52" type="curve"/>
      <point x="1639" y="0" type="line"/>
      <point x="1010" y="0" type="line"/>
      <point x="1008" y="52" type="line"/>
      <point x="1132" y="119"/>
      <point x="1211" y="38"/>
    </contour>
    <contour>
      <point x="852" y="1302" type="move" name="top"/>
    </contour>
    <contour>
      <point x="852" y="651" type="move" name="center"/>
    </contour>
  </outline>
</glyph>
<glyph name="I" format="1">
  <advance width="810"/>
  <unicode hex="0049"/>
  <outline>
    <contour>
      <point x="511" y="1081" type="curve" smooth="yes"/>
      <point x="511" y="260" type="line" smooth="yes"/>
      <point x="511" y="46"/>
      <point x="588" y="108"/>
      <point x="741" y="53" type="curve"/>
      <point x="739" y="0" type="line"/>
      <point x="74" y="0" type="line"/>
      <point x="74" y="52" type="line"/>
      <point x="221" y="119"/>
      <point x="296" y="20"/>
      <point x="296" y="278" type="curve" smooth="yes"/>
      <point x="296" y="1030" type="line" smooth="yes"/>
      <point x="296" y="1284"/>
      <point x="193" y="1178"/>
      <point x="70" y="1251" type="curve"/>
      <point x="72" y="1302" type="line"/>
      <point x="735" y="1302" type="line"/>
      <point x="737" y="1250" type="line"/>
      <point x="641" y="1217"/>
      <point x="511" y="1217"/>
    </contour>
    <contour>
      <point x="404" y="1302" type="move" name="top"/>
    </contour>
    <contour>
      <point x="726" y="10" type="move" name="ogonek"/>
    </contour>
  </outline>
</glyph>
<glyph name="J" format="1">
  <advance width="854"/>
  <unicode hex="004A"/>
  <outline>
    <contour>
      <point x="142" y="1250" type="curve"/>
      <point x="145" y="1302" type="line"/>
      <point x="812" y="1302" type="line"/>
      <point x="812" y="1251" type="line"/>
      <point x="670" y="1190"/>
      <point x="585" y="1260"/>
      <point x="585" y="1044" type="curve" smooth="yes"/>
      <point x="585" y="170" type="line" smooth="yes"/>
      <point x="585" y="-59"/>
      <point x="516" y="-333"/>
      <point x="238" y="-333" type="curve" smooth="yes"/>
      <point x="162" y="-333"/>
      <point x="38" y="-304"/>
      <point x="38" y="-207" type="curve" smooth="yes"/>
      <point x="38" y="-155"/>
      <point x="77" y="-122"/>
      <point x="127" y="-122" type="curve" smooth="yes"/>
      <point x="231" y="-122"/>
      <point x="213" y="-251"/>
      <point x="291" y="-251" type="curve" smooth="yes"/>
      <point x="363" y="-251"/>
      <point x="370" y="-90"/>
      <point x="370" y="6" type="curve" smooth="yes"/>
      <point x="370" y="1035" type="line" smooth="yes"/>
      <point x="370" y="1249"/>
      <point x="297" y="1195"/>
    </contour>
    <contour>
      <point x="388" y="1302" type="move" name="top"/>
    </contour>
  </outline>
</glyph>
<glyph name="K" format="1">
  <advance width="1559"/>
  <unicode hex="004B"/>
  <outline>
    <contour>
      <point x="513" y="1166" type="curve" smooth="yes"/>
      <point x="513" y="726" type="line"/>
      <point x="599" y="726" type="line"/>
      <point x="1055" y="1178" type="line"/>
      <point x="1058" y="1187"/>
      <point x="1059" y="1194"/>
      <point x="1059" y="1200" type="curve" smooth="yes"/>
      <point x="1059" y="1277"/>
      <point x="886" y="1228"/>
      <point x="886" y="1284" type="curve" smooth="yes"/>
      <point x="886" y="1288"/>
      <point x="888" y="1293"/>
      <point x="891" y="1302" type="curve"/>
      <point x="1455" y="1302" type="line"/>
      <point x="1459" y="1284" type="line"/>
      <point x="1459" y="1265"/>
      <point x="1390" y="1247"/>
      <point x="1317" y="1231" type="curve" smooth="yes"/>
      <point x="1249" y="1216"/>
      <point x="1203" y="1195"/>
      <point x="1175" y="1172" type="curve"/>
      <point x="787" y="774" type="line"/>
      <point x="1255" y="130" type="line"/>
      <point x="1295" y="86"/>
      <point x="1499" y="56"/>
      <point x="1499" y="18" type="curve" smooth="yes"/>
      <point x="1499" y="11"/>
      <point x="1498" y="5"/>
      <point x="1495" y="0" type="curve"/>
      <point x="811" y="0" type="line"/>
      <point x="806" y="11"/>
      <point x="805" y="14"/>
      <point x="805" y="17" type="curve" smooth="yes"/>
      <point x="805" y="67"/>
      <point x="979" y="33"/>
      <point x="979" y="102" type="curve" smooth="yes"/>
      <point x="979" y="106"/>
      <point x="975" y="117"/>
      <point x="962" y="134" type="curve"/>
      <point x="603" y="660" type="line"/>
      <point x="513" y="660" type="line"/>
      <point x="513" y="124" type="line" smooth="yes"/>
      <point x="513" y="9"/>
      <point x="750" y="83"/>
      <point x="750" y="19" type="curve" smooth="yes"/>
      <point x="750" y="16"/>
      <point x="748" y="10"/>
      <point x="745" y="0" type="curve"/>
      <point x="75" y="0" type="line"/>
      <point x="72" y="9"/>
      <point x="71" y="14"/>
      <point x="71" y="17" type="curve" smooth="yes"/>
      <point x="71" y="76"/>
      <point x="298" y="23"/>
      <point x="298" y="130" type="curve" smooth="yes"/>
      <point x="298" y="1166" type="line" smooth="yes"/>
      <point x="298" y="1268"/>
      <point x="70" y="1230"/>
      <point x="70" y="1284" type="curve" smooth="yes"/>
      <point x="70" y="1288"/>
      <point x="72" y="1293"/>
      <point x="75" y="1302" type="curve"/>
      <point x="741" y="1302" type="line"/>
      <point x="744" y="1292"/>
      <point x="745" y="1286"/>
      <point x="745" y="1285" type="curve" smooth="yes"/>
      <point x="745" y="1227"/>
      <point x="513" y="1271"/>
    </contour>
    <contour>
      <point x="736" y="1302" type="move" name="top"/>
    </contour>
    <contour>
      <point x="736" y="0" type="move" name="bottom"/>
    </contour>
  </outline>
</glyph>
<glyph name="L" format="1">
  <advance width="1370"/>
  <unicode hex="004C"/>
  <outline>
    <contour>
      <point x="302" y="240" type="curve" smooth="yes"/>
      <point x="302" y="1034" type="line" smooth="yes"/>
      <point x="302" y="1250"/>
      <point x="236" y="1199"/>
      <point x="72" y="1251" type="curve"/>
      <point x="74" y="1302" type="line"/>
      <point x="750" y="1302" type="line"/>
      <point x="750" y="1250" type="line"/>
      <point x="597" y="1188"/>
      <point x="518" y="1263"/>
      <point x="518" y="1040" type="curve" smooth="yes"/>
      <point x="518" y="312" type="line" smooth="yes"/>
      <point x="518" y="79"/>
      <point x="559" y="74"/>
      <point x="868" y="74" type="curve" smooth="yes"/>
      <point x="991" y="74"/>
      <point x="1108" y="91"/>
      <point x="1174" y="217" type="curve" smooth="yes"/>
      <point x="1196" y="260"/>
      <point x="1214" y="308"/>
      <point x="1248" y="344" type="curve"/>
      <point x="1308" y="342" type="line"/>
      <point x="1245" y="-11" type="line"/>
      <point x="1172" y="-5"/>
      <point x="1099" y="0"/>
      <point x="1026" y="0" type="curve" smooth="yes"/>
      <point x="73" y="0" type="line"/>
      <point x="71" y="54" type="line"/>
      <point x="181" y="92"/>
      <point x="302" y="88"/>
    </contour>
    <contour>
      <point x="648" y="1302" type="move" name="top"/>
    </contour>
    <contour>
      <point x="648" y="0" type="move" name="bottom"/>
    </contour>
  </outline>
</glyph>
<glyph name="M" format="1">
  <advance width="1986"/>
  <unicode hex="004D"/>
  <outline>
    <contour>
      <point x="1634" y="1082" type="curve"/>
      <point x="1706" y="271" type="line" smooth="yes"/>
      <point x="1711" y="216"/>
      <point x="1724" y="159"/>
      <point x="1762" y="117" type="curve"/>
      <point x="1782" y="59"/>
      <point x="1887" y="83"/>
      <point x="1927" y="52" type="curve"/>
      <point x="1925" y="0" type="line"/>
      <point x="1302" y="0" type="line"/>
      <point x="1300" y="52" type="line"/>
      <point x="1384" y="80"/>
      <point x="1494" y="99"/>
      <point x="1494" y="211" type="curve"/>
      <point x="1432" y="1068" type="line"/>
      <point x="1050" y="205" type="line" smooth="yes"/>
      <point x="1021" y="139"/>
      <point x="998" y="69"/>
      <point x="977" y="0" type="curve"/>
      <point x="898" y="0" type="line"/>
      <point x="789" y="240"/>
      <point x="562" y="678"/>
      <point x="423" y="1029" type="curve"/>
      <point x="400" y="766"/>
      <point x="358" y="495"/>
      <point x="358" y="232" type="curve" smooth="yes"/>
      <point x="358" y="101"/>
      <point x="449" y="88"/>
      <point x="549" y="52" type="curve"/>
      <point x="547" y="0" type="line"/>
      <point x="63" y="0" type="line"/>
      <point x="61" y="52" type="line"/>
      <point x="154" y="90"/>
      <point x="251" y="94"/>
      <point x="264" y="220" type="curve" smooth="yes"/>
      <point x="340" y="968" type="line" smooth="yes"/>
      <point x="344" y="1009"/>
      <point x="347" y="1054"/>
      <point x="347" y="1096" type="curve" smooth="yes"/>
      <point x="347" y="1219"/>
      <point x="242" y="1209"/>
      <point x="162" y="1251" type="curve"/>
      <point x="164" y="1302" type="line"/>
      <point x="553" y="1302" type="line"/>
      <point x="575" y="1210"/>
      <point x="600" y="1119"/>
      <point x="640" y="1034" type="curve" smooth="yes"/>
      <point x="1000" y="267" type="line"/>
      <point x="1357" y="1081" type="line" smooth="yes"/>
      <point x="1394" y="1166"/>
      <point x="1405" y="1247"/>
      <point x="1405" y="1302" type="curve"/>
      <point x="1819" y="1302" type="line"/>
      <point x="1819" y="1250" type="line"/>
      <point x="1731" y="1221"/>
      <point x="1634" y="1195"/>
    </contour>
  </outline>
</glyph>
<glyph name="N" format="1">
  <advance width="1700"/>
  <unicode hex="004E"/>
  <outline>
    <contour>
      <point x="79" y="54" type="curve"/>
      <point x="190" y="85"/>
      <point x="311" y="92"/>
      <point x="324" y="239" type="curve"/>
      <point x="324" y="1091" type="line"/>
      <point x="253" y="1208"/>
      <point x="179" y="1205"/>
      <point x="69" y="1250" type="curve"/>
      <point x="69" y="1302" type="line"/>
      <point x="418" y="1302" type="line"/>
      <point x="1359" y="329" type="line"/>
      <point x="1359" y="958" type="line" smooth="yes"/>
      <point x="1359" y="1019"/>
      <point x="1352" y="1073"/>
      <point x="1332" y="1131" type="curve" smooth="yes"/>
      <point x="1298" y="1230"/>
      <point x="1203" y="1211"/>
      <point x="1127" y="1249" type="curve"/>
      <point x="1127" y="1267"/>
      <point x="1128" y="1284"/>
      <point x="1130" y="1302" type="curve"/>
      <point x="1657" y="1302" type="line"/>
      <point x="1657" y="1248" type="line"/>
      <point x="1479" y="1167"/>
      <point x="1448" y="1184"/>
      <point x="1446" y="959" type="curve" smooth="yes"/>
      <point x="1444" y="757"/>
      <point x="1441" y="555"/>
      <point x="1441" y="353" type="curve" smooth="yes"/>
      <point x="1441" y="231"/>
      <point x="1461" y="112"/>
      <point x="1464" y="-9" type="curve"/>
      <point x="1448" y="-15"/>
      <point x="1431" y="-16"/>
      <point x="1415" y="-16" type="curve" smooth="yes"/>
      <point x="1396" y="-16"/>
      <point x="1376" y="-14"/>
      <point x="1358" y="-9" type="curve"/>
      <point x="1306" y="55"/>
      <point x="1251" y="117"/>
      <point x="1194" y="178" type="curve" smooth="yes"/>
      <point x="404" y="1009" type="line"/>
      <point x="404" y="307" type="line" smooth="yes"/>
      <point x="404" y="262"/>
      <point x="410" y="216"/>
      <point x="421" y="172" type="curve" smooth="yes"/>
      <point x="448" y="65"/>
      <point x="572" y="92"/>
      <point x="648" y="53" type="curve"/>
      <point x="648" y="35"/>
      <point x="647" y="18"/>
      <point x="645" y="0" type="curve"/>
      <point x="81" y="0" type="line"/>
      <point x="79" y="18"/>
      <point x="79" y="36"/>
    </contour>
    <contour>
      <point x="862" y="1302" type="move" name="top"/>
    </contour>
    <contour>
      <point x="862" y="0" type="move" name="bottom"/>
    </contour>
  </outline>
</glyph>
<glyph name="O" format="1">
  <advance width="1517"/>
  <unicode hex="004F"/>
  <outline>
    <contour>
      <point x="69" y="637" type="curve" smooth="yes"/>
      <point x="69" y="1095"/>
      <point x="417" y="1327"/>
      <point x="761" y="1327" type="curve" smooth="yes"/>
      <point x="1135" y="1327"/>
      <point x="1448" y="1063"/>
      <point x="1448" y="648" type="curve" smooth="yes"/>
      <point x="1448" y="240"/>
      <point x="1124" y="-26"/>
      <point x="741" y="-26" type="curve" smooth="yes"/>
      <point x="392" y="-26"/>
      <point x="69" y="224"/>
    </contour>
    <contour>
      <point x="302" y="720" type="curve" smooth="yes"/>
      <point x="302" y="340"/>
      <point x="507" y="51"/>
      <point x="794" y="51" type="curve" smooth="yes"/>
      <point x="1033" y="51"/>
      <point x="1215" y="248"/>
      <point x="1215" y="585" type="curve" smooth="yes"/>
      <point x="1215" y="958"/>
      <point x="1017" y="1250"/>
      <point x="726" y="1250" type="curve" smooth="yes"/>
      <point x="498" y="1250"/>
      <point x="302" y="1071"/>
    </contour>
    <contour>
      <point x="803" y="1302" type="move" name="top"/>
    </contour>
  </outline>
</glyph>
<glyph name="P" format="1">
  <advance width="1339"/>
  <unicode hex="0050"/>
  <outline>
    <contour>
      <point x="281" y="222" type="curve" smooth="yes"/>
      <point x="281" y="1031" type="line" smooth="yes"/>
      <point x="281" y="1235"/>
      <point x="216" y="1189"/>
      <point x="70" y="1251" type="curve"/>
      <point x="72" y="1302" type="line"/>
      <point x="568" y="1302" type="line" smooth="yes"/>
      <point x="838" y="1302"/>
      <point x="1248" y="1292"/>
      <point x="1248" y="939" type="curve" smooth="yes"/>
      <point x="1248" y="668"/>
      <point x="1034" y="564"/>
      <point x="787" y="564" type="curve" smooth="yes"/>
      <point x="754" y="564"/>
      <point x="579" y="569"/>
      <point x="579" y="614" type="curve" smooth="yes"/>
      <point x="579" y="630"/>
      <point x="605" y="632"/>
      <point x="623" y="632" type="curve" smooth="yes"/>
      <point x="638" y="632" type="line" smooth="yes"/>
      <point x="851" y="632"/>
      <point x="1015" y="681"/>
      <point x="1015" y="936" type="curve" smooth="yes"/>
      <point x="1015" y="1172"/>
      <point x="792" y="1232"/>
      <point x="594" y="1232" type="curve" smooth="yes"/>
      <point x="562" y="1232"/>
      <point x="529" y="1230"/>
      <point x="497" y="1227" type="curve"/>
      <point x="497" y="275" type="line" smooth="yes"/>
      <point x="497" y="33"/>
      <point x="560" y="117"/>
      <point x="724" y="52" type="curve"/>
      <point x="722" y="0" type="line"/>
      <point x="72" y="0" type="line"/>
      <point x="69" y="52" type="line"/>
      <point x="165" y="80"/>
      <point x="281" y="96"/>
    </contour>
  </outline>
</glyph>
<glyph name="Q" format="1">
  <advance width="1598"/>
  <unicode hex="0051"/>
  <outline>
    <contour>
      <point x="1548" y="-213" type="curve"/>
      <point x="1560" y="-285" type="line"/>
      <point x="1509" y="-302"/>
      <point x="1431" y="-314"/>
      <point x="1356" y="-314" type="curve" smooth="yes"/>
      <point x="1219" y="-314"/>
      <point x="1138" y="-293"/>
      <point x="1036" y="-244" type="curve" smooth="yes"/>
      <point x="931" y="-194"/>
      <point x="702" y="-73"/>
      <point x="608" y="-11" type="curve"/>
      <point x="296" y="71"/>
      <point x="70" y="286"/>
      <point x="70" y="641" type="curve" smooth="yes"/>
      <point x="70" y="1061"/>
      <point x="385" y="1327"/>
      <point x="762" y="1327" type="curve" smooth="yes"/>
      <point x="1136" y="1327"/>
      <point x="1449" y="1063"/>
      <point x="1449" y="651" type="curve" smooth="yes"/>
      <point x="1449" y="295"/>
      <point x="1199" y="51"/>
      <point x="882" y="-11" type="curve"/>
      <point x="1147" y="-138"/>
      <point x="1266" y="-188"/>
    </contour>
    <contour>
      <point x="304" y="729" type="curve" smooth="yes"/>
      <point x="304" y="314"/>
      <point x="524" y="51"/>
      <point x="793" y="51" type="curve" smooth="yes"/>
      <point x="1022" y="51"/>
      <point x="1216" y="233"/>
      <point x="1216" y="587" type="curve" smooth="yes"/>
      <point x="1216" y="953"/>
      <point x="1018" y="1250"/>
      <point x="728" y="1250" type="curve" smooth="yes"/>
      <point x="493" y="1250"/>
      <point x="304" y="1052"/>
    </contour>
  </outline>
</glyph>
<glyph name="R" format="1">
  <advance width="1500"/>
  <unicode hex="0052"/>
  <outline>
    <contour>
      <point x="514" y="1227" type="curve" smooth="yes"/>
      <point x="492" y="1227" type="line"/>
      <point x="492" y="703" type="line"/>
      <point x="508" y="703"/>
      <point x="525" y="703"/>
      <point x="542" y="703" type="curve" smooth="yes"/>
      <point x="734" y="703"/>
      <point x="989" y="713"/>
      <point x="989" y="958" type="curve" smooth="yes"/>
      <point x="989" y="1226"/>
      <point x="713" y="1227"/>
    </contour>
    <contour>
      <point x="1268" y="-26" type="curve" smooth="yes"/>
      <point x="989" y="-26"/>
      <point x="830" y="344"/>
      <point x="698" y="542" type="curve" smooth="yes"/>
      <point x="655" y="606"/>
      <point x="636" y="627"/>
      <point x="555" y="632" type="curve" smooth="yes"/>
      <point x="492" y="636" type="line"/>
      <point x="492" y="251" type="line" smooth="yes"/>
      <point x="492" y="36"/>
      <point x="577" y="114"/>
      <point x="708" y="52" type="curve"/>
      <point x="706" y="0" type="line"/>
      <point x="73" y="0" type="line"/>
      <point x="71" y="52" type="line"/>
      <point x="203" y="124"/>
      <point x="277" y="22"/>
      <point x="277" y="277" type="curve" smooth="yes"/>
      <point x="277" y="1035" type="line" smooth="yes"/>
      <point x="277" y="1231"/>
      <point x="211" y="1188"/>
      <point x="71" y="1250" type="curve"/>
      <point x="73" y="1302" type="line"/>
      <point x="534" y="1302" type="line" smooth="yes"/>
      <point x="782" y="1302"/>
      <point x="1222" y="1302"/>
      <point x="1222" y="970" type="curve" smooth="yes"/>
      <point x="1222" y="770"/>
      <point x="1032" y="672"/>
      <point x="858" y="647" type="curve"/>
      <point x="978" y="484"/>
      <point x="1100" y="300"/>
      <point x="1222" y="153" type="curve"/>
      <point x="1276" y="95"/>
      <point x="1320" y="54"/>
      <point x="1444" y="54" type="curve"/>
      <point x="1444" y="-2" type="line"/>
      <point x="1386" y="-16"/>
      <point x="1327" y="-26"/>
    </contour>
    <contour>
      <point x="719" y="1302" type="move" name="top"/>
    </contour>
    <contour>
      <point x="719" y="0" type="move" name="bottom"/>
    </contour>
  </outline>
</glyph>
<glyph name="S" format="1">
  <advance width="1081"/>
  <unicode hex="0053"/>
  <outline>
    <contour>
      <point x="79" y="77" type="curve"/>
      <point x="79" y="400" type="line"/>
      <point x="138" y="402" type="line"/>
      <point x="157" y="370"/>
      <point x="165" y="333"/>
      <point x="176" y="297" type="curve" smooth="yes"/>
      <point x="224" y="137"/>
      <point x="373" y="58"/>
      <point x="533" y="58" type="curve" smooth="yes"/>
      <point x="658" y="58"/>
      <point x="805" y="124"/>
      <point x="805" y="268" type="curve" smooth="yes"/>
      <point x="805" y="543"/>
      <point x="96" y="617"/>
      <point x="96" y="991" type="curve" smooth="yes"/>
      <point x="96" y="1237"/>
      <point x="336" y="1327"/>
      <point x="546" y="1327" type="curve" smooth="yes"/>
      <point x="677" y="1327"/>
      <point x="810" y="1294"/>
      <point x="927" y="1234" type="curve"/>
      <point x="940" y="949" type="line"/>
      <point x="878" y="949" type="line"/>
      <point x="861" y="981"/>
      <point x="852" y="1017"/>
      <point x="840" y="1051" type="curve" smooth="yes"/>
      <point x="793" y="1187"/>
      <point x="668" y="1250"/>
      <point x="530" y="1250" type="curve" smooth="yes"/>
      <point x="428" y="1250"/>
      <point x="283" y="1198"/>
      <point x="283" y="1075" type="curve" smooth="yes"/>
      <point x="283" y="817"/>
      <point x="1000" y="737"/>
      <point x="1000" y="344" type="curve" smooth="yes"/>
      <point x="1000" y="79"/>
      <point x="750" y="-26"/>
      <point x="520" y="-26" type="curve" smooth="yes"/>
      <point x="384" y="-26"/>
      <point x="189" y="10"/>
    </contour>
    <contour>
      <point x="574" y="1302" type="move" name="top"/>
    </contour>
    <contour>
      <point x="574" y="0" type="move" name="bottom"/>
    </contour>
  </outline>
</glyph>
<glyph name="T" format="1">
  <advance width="1451"/>
  <unicode hex="0054"/>
  <outline>
    <contour>
      <point x="612" y="241" type="curve" smooth="yes"/>
      <point x="612" y="1228" type="line"/>
      <point x="466" y="1228" type="line" smooth="yes"/>
      <point x="417" y="1228"/>
      <point x="367" y="1227"/>
      <point x="320" y="1220" type="curve" smooth="yes"/>
      <point x="214" y="1204"/>
      <point x="167" y="1056"/>
      <point x="106" y="982" type="curve"/>
      <point x="60" y="982" type="line"/>
      <point x="85" y="1308" type="line"/>
      <point x="226" y="1302"/>
      <point x="369" y="1301"/>
      <point x="511" y="1301" type="curve" smooth="yes"/>
      <point x="641" y="1301"/>
      <point x="771" y="1302"/>
      <point x="901" y="1302" type="curve" smooth="yes"/>
      <point x="945" y="1302"/>
      <point x="988" y="1302"/>
      <point x="1032" y="1302" type="curve" smooth="yes"/>
      <point x="1141" y="1302"/>
      <point x="1250" y="1303"/>
      <point x="1359" y="1310" type="curve"/>
      <point x="1391" y="981" type="line"/>
      <point x="1343" y="981" type="line"/>
      <point x="1284" y="1054"/>
      <point x="1237" y="1205"/>
      <point x="1135" y="1220" type="curve" smooth="yes"/>
      <point x="1084" y="1228"/>
      <point x="1032" y="1228"/>
      <point x="980" y="1228" type="curve" smooth="yes"/>
      <point x="827" y="1228" type="line"/>
      <point x="827" y="241" type="line" smooth="yes"/>
      <point x="827" y="80"/>
      <point x="916" y="69"/>
      <point x="1053" y="52" type="curve"/>
      <point x="1053" y="35"/>
      <point x="1053" y="17"/>
      <point x="1051" y="0" type="curve"/>
      <point x="389" y="0" type="line"/>
      <point x="387" y="52" type="line"/>
      <point x="495" y="89"/>
      <point x="612" y="95"/>
    </contour>
    <contour>
      <point x="702" y="1302" type="move" name="top"/>
    </contour>
    <contour>
      <point x="702" y="0" type="move" name="bottom"/>
    </contour>
    <contour>
      <point x="702" y="651" type="move" name="center"/>
    </contour>
  </outline>
</glyph>
<glyph name="U" format="1">
  <advance width="1677"/>
  <unicode hex="0055"/>
  <outline>
    <contour>
      <point x="39" y="1251" type="curve"/>
      <point x="42" y="1302" type="line"/>
      <point x="702" y="1302" type="line"/>
      <point x="704" y="1250" type="line"/>
      <point x="537" y="1190"/>
      <point x="472" y="1251"/>
      <point x="472" y="1023" type="curve" smooth="yes"/>
      <point x="472" y="596" type="line" smooth="yes"/>
      <point x="472" y="303"/>
      <point x="561" y="82"/>
      <point x="894" y="82" type="curve" smooth="yes"/>
      <point x="1226" y="82"/>
      <point x="1330" y="322"/>
      <point x="1330" y="613" type="curve" smooth="yes"/>
      <point x="1330" y="1006" type="line" smooth="yes"/>
      <point x="1330" y="1236"/>
      <point x="1274" y="1190"/>
      <point x="1097" y="1251" type="curve"/>
      <point x="1097" y="1302" type="line"/>
      <point x="1636" y="1302" type="line"/>
      <point x="1638" y="1250" type="line"/>
      <point x="1573" y="1216"/>
      <point x="1455" y="1238"/>
      <point x="1428" y="1150" type="curve" smooth="yes"/>
      <point x="1416" y="1109"/>
      <point x="1412" y="1065"/>
      <point x="1412" y="1022" type="curve" smooth="yes"/>
      <point x="1412" y="922"/>
      <point x="1416" y="817"/>
      <point x="1416" y="714" type="curve" smooth="yes"/>
      <point x="1416" y="330"/>
      <point x="1368" y="-26"/>
      <point x="842" y="-26" type="curve" smooth="yes"/>
      <point x="566" y="-26"/>
      <point x="296" y="101"/>
      <point x="264" y="401" type="curve" smooth="yes"/>
      <point x="254" y="488"/>
      <point x="252" y="576"/>
      <point x="252" y="664" type="curve" smooth="yes"/>
      <point x="252" y="785"/>
      <point x="257" y="906"/>
      <point x="257" y="1024" type="curve" smooth="yes"/>
      <point x="257" y="1062"/>
      <point x="256" y="1102"/>
      <point x="247" y="1139" type="curve" smooth="yes"/>
      <point x="228" y="1218"/>
      <point x="103" y="1228"/>
    </contour>
    <contour>
      <point x="823" y="1302" type="move" name="top"/>
    </contour>
    <contour>
      <point x="1478" y="10" type="move" name="ogonek"/>
    </contour>
  </outline>
</glyph>
<glyph name="V" format="1">
  <advance width="1530"/>
  <unicode hex="0056"/>
  <outline>
    <contour>
      <point x="457" y="1138" type="curve" smooth="yes"/>
      <point x="457" y="1073"/>
      <point x="742" y="486"/>
      <point x="834" y="251" type="curve"/>
      <point x="913" y="465"/>
      <point x="1157" y="976"/>
      <point x="1157" y="1114" type="curve" smooth="yes"/>
      <point x="1157" y="1217"/>
      <point x="1036" y="1216"/>
      <point x="960" y="1240" type="curve"/>
      <point x="958" y="1249"/>
      <point x="957" y="1259"/>
      <point x="957" y="1269" type="curve" smooth="yes"/>
      <point x="957" y="1280"/>
      <point x="958" y="1291"/>
      <point x="960" y="1302" type="curve"/>
      <point x="1488" y="1302" type="line"/>
      <point x="1490" y="1284"/>
      <point x="1491" y="1265"/>
      <point x="1491" y="1247" type="curve"/>
      <point x="1435" y="1227"/>
      <point x="1393" y="1201"/>
      <point x="1350" y="1181" type="curve" smooth="yes"/>
      <point x="1252" y="1135"/>
      <point x="1204" y="929"/>
      <point x="1163" y="833" type="curve" smooth="yes"/>
      <point x="1047" y="559"/>
      <point x="825" y="-11"/>
      <point x="825" y="-11" type="curve"/>
      <point x="825" y="-11"/>
      <point x="793" y="-19"/>
      <point x="776" y="-19" type="curve" smooth="yes"/>
      <point x="762" y="-19"/>
      <point x="749" y="-19"/>
      <point x="735" y="-17" type="curve"/>
      <point x="574" y="353"/>
      <point x="410" y="720"/>
      <point x="243" y="1088" type="curve" smooth="yes"/>
      <point x="194" y="1197"/>
      <point x="145" y="1213"/>
      <point x="39" y="1245" type="curve"/>
      <point x="41" y="1302" type="line"/>
      <point x="636" y="1302" type="line"/>
      <point x="637" y="1282"/>
      <point x="642" y="1262"/>
      <point x="642" y="1242" type="curve"/>
      <point x="590" y="1225"/>
      <point x="457" y="1211"/>
    </contour>
  </outline>
</glyph>
<glyph name="W" format="1">
  <advance width="2197"/>
  <unicode hex="0057"/>
  <outline>
    <contour>
      <point x="515" y="1182" type="curve" smooth="yes"/>
      <point x="515" y="1161"/>
      <point x="743" y="524"/>
      <point x="805" y="353" type="curve"/>
      <point x="1074" y="1071" type="line"/>
      <point x="1057" y="1111"/>
      <point x="1042" y="1152"/>
      <point x="1025" y="1192" type="curve"/>
      <point x="999" y="1214"/>
      <point x="840" y="1260"/>
      <point x="840" y="1282" type="curve" smooth="yes"/>
      <point x="840" y="1285"/>
      <point x="846" y="1299"/>
      <point x="847" y="1302" type="curve"/>
      <point x="1489" y="1302" type="line"/>
      <point x="1490" y="1298"/>
      <point x="1495" y="1286"/>
      <point x="1495" y="1282" type="curve" smooth="yes"/>
      <point x="1495" y="1211"/>
      <point x="1303" y="1274"/>
      <point x="1303" y="1188" type="curve" smooth="yes"/>
      <point x="1303" y="1156"/>
      <point x="1533" y="445"/>
      <point x="1564" y="355" type="curve"/>
      <point x="1597" y="456"/>
      <point x="1826" y="1135"/>
      <point x="1826" y="1187" type="curve" smooth="yes"/>
      <point x="1826" y="1260"/>
      <point x="1681" y="1241"/>
      <point x="1625" y="1271" type="curve"/>
      <point x="1619" y="1282" type="line"/>
      <point x="1625" y="1302" type="line"/>
      <point x="2142" y="1302" type="line" smooth="yes"/>
      <point x="2147" y="1302"/>
      <point x="2157" y="1296"/>
      <point x="2160" y="1291" type="curve"/>
      <point x="2160" y="1237"/>
      <point x="1922" y="1259"/>
      <point x="1886" y="1157" type="curve" smooth="yes"/>
      <point x="1867" y="1103"/>
      <point x="1852" y="1047"/>
      <point x="1836" y="992" type="curve" smooth="yes"/>
      <point x="1537" y="1" type="line" smooth="yes"/>
      <point x="1532" y="-16"/>
      <point x="1509" y="-19"/>
      <point x="1495" y="-19" type="curve" smooth="yes"/>
      <point x="1477" y="-19"/>
      <point x="1461" y="-16"/>
      <point x="1452" y="1" type="curve" smooth="yes"/>
      <point x="1427" y="49"/>
      <point x="1414" y="115"/>
      <point x="1396" y="167" type="curve" smooth="yes"/>
      <point x="1112" y="994" type="line"/>
      <point x="853" y="249" type="line" smooth="yes"/>
      <point x="826" y="171"/>
      <point x="804" y="74"/>
      <point x="767" y="1" type="curve" smooth="yes"/>
      <point x="758" y="-17"/>
      <point x="744" y="-21"/>
      <point x="725" y="-21" type="curve" smooth="yes"/>
      <point x="669" y="-21"/>
      <point x="638" y="119"/>
      <point x="622" y="161" type="curve" smooth="yes"/>
      <point x="501" y="483"/>
      <point x="383" y="807"/>
      <point x="260" y="1128" type="curve" smooth="yes"/>
      <point x="220" y="1232"/>
      <point x="102" y="1216"/>
      <point x="37" y="1280" type="curve"/>
      <point x="44" y="1302" type="line"/>
      <point x="687" y="1302" type="line"/>
      <point x="688" y="1297"/>
      <point x="692" y="1288"/>
      <point x="692" y="1282" type="curve" smooth="yes"/>
      <point x="692" y="1217"/>
      <point x="515" y="1270"/>
    </contour>
    <contour>
      <point x="1095" y="1302" type="move" name="top"/>
    </contour>
  </outline>
</glyph>
<glyph name="X" format="1">
  <advance width="1572"/>
  <unicode hex="0058"/>
  <outline>
    <contour>
      <point x="1106" y="1029" type="curve" smooth="yes"/>
      <point x="864" y="725" type="line"/>
      <point x="1235" y="236" type="line" smooth="yes"/>
      <point x="1310" y="137"/>
      <point x="1339" y="100"/>
      <point x="1419" y="78" type="curve" smooth="yes"/>
      <point x="1450" y="69"/>
      <point x="1491" y="59"/>
      <point x="1509" y="52" type="curve"/>
      <point x="1509" y="36"/>
      <point x="1508" y="19"/>
      <point x="1507" y="0" type="curve"/>
      <point x="861" y="0" type="line"/>
      <point x="859" y="17"/>
      <point x="859" y="34"/>
      <point x="859" y="52" type="curve"/>
      <point x="934" y="69"/>
      <point x="1015" y="98"/>
      <point x="1015" y="156" type="curve" smooth="yes"/>
      <point x="1015" y="171"/>
      <point x="1009" y="197"/>
      <point x="995" y="216" type="curve" smooth="yes"/>
      <point x="732" y="565" type="line"/>
      <point x="509" y="294" type="line" smooth="yes"/>
      <point x="470" y="246"/>
      <point x="430" y="182"/>
      <point x="430" y="144" type="curve" smooth="yes"/>
      <point x="430" y="94"/>
      <point x="513" y="73"/>
      <point x="594" y="57" type="curve"/>
      <point x="595" y="48"/>
      <point x="595" y="39"/>
      <point x="595" y="30" type="curve" smooth="yes"/>
      <point x="595" y="21"/>
      <point x="595" y="11"/>
      <point x="594" y="0" type="curve"/>
      <point x="73" y="0" type="line"/>
      <point x="71" y="17"/>
      <point x="71" y="34"/>
      <point x="71" y="52" type="curve"/>
      <point x="125" y="73"/>
      <point x="232" y="94"/>
      <point x="298" y="165" type="curve" smooth="yes"/>
      <point x="320" y="189"/>
      <point x="345" y="219"/>
      <point x="372" y="252" type="curve" smooth="yes"/>
      <point x="685" y="628" type="line"/>
      <point x="326" y="1097" type="line" smooth="yes"/>
      <point x="243" y="1206"/>
      <point x="142" y="1220"/>
      <point x="74" y="1246" type="curve"/>
      <point x="74" y="1262"/>
      <point x="74" y="1279"/>
      <point x="76" y="1302" type="curve"/>
      <point x="718" y="1302" type="line"/>
      <point x="719" y="1285"/>
      <point x="720" y="1267"/>
      <point x="720" y="1250" type="curve"/>
      <point x="643" y="1234"/>
      <point x="565" y="1198"/>
      <point x="565" y="1144" type="curve" smooth="yes"/>
      <point x="565" y="1129"/>
      <point x="572" y="1115"/>
      <point x="582" y="1095" type="curve"/>
      <point x="815" y="788" type="line"/>
      <point x="998" y="1014" type="line" smooth="yes"/>
      <point x="1048" y="1076"/>
      <point x="1060" y="1096"/>
      <point x="1060" y="1130" type="curve" smooth="yes"/>
      <point x="1060" y="1183"/>
      <point x="1004" y="1228"/>
      <point x="914" y="1246" type="curve"/>
      <point x="912" y="1254"/>
      <point x="912" y="1263"/>
      <point x="912" y="1273" type="curve" smooth="yes"/>
      <point x="912" y="1281"/>
      <point x="912" y="1291"/>
      <point x="914" y="1302" type="curve"/>
      <point x="1451" y="1302" type="line"/>
      <point x="1453" y="1285"/>
      <point x="1453" y="1267"/>
      <point x="1453" y="1250" type="curve"/>
      <point x="1411" y="1233"/>
      <point x="1264" y="1208"/>
      <point x="1189" y="1126" type="curve" smooth="yes"/>
      <point x="1163" y="1098"/>
      <point x="1135" y="1066"/>
    </contour>
  </outline>
</glyph>
<glyph name="Y" format="1">
  <advance width="1421"/>
  <unicode hex="0059"/>
  <outline>
    <contour>
      <point x="877" y="1302" type="curve"/>
      <point x="1379" y="1302" type="line"/>
      <point x="1379" y="1250" type="line"/>
      <point x="1282" y="1210"/>
      <point x="1203" y="1180"/>
      <point x="1141" y="1086" type="curve" smooth="yes"/>
      <point x="813" y="583" type="line"/>
      <point x="813" y="246" type="line" smooth="yes"/>
      <point x="813" y="41"/>
      <point x="902" y="111"/>
      <point x="1030" y="52" type="curve"/>
      <point x="1028" y="0" type="line"/>
      <point x="382" y="0" type="line"/>
      <point x="380" y="52" type="line"/>
      <point x="503" y="121"/>
      <point x="598" y="25"/>
      <point x="598" y="254" type="curve" smooth="yes"/>
      <point x="598" y="562" type="line"/>
      <point x="233" y="1134" type="line" smooth="yes"/>
      <point x="200" y="1185"/>
      <point x="94" y="1238"/>
      <point x="36" y="1251" type="curve"/>
      <point x="36" y="1302" type="line"/>
      <point x="656" y="1302" type="line"/>
      <point x="658" y="1250" type="line"/>
      <point x="605" y="1241"/>
      <point x="497" y="1211"/>
      <point x="497" y="1142" type="curve" smooth="yes"/>
      <point x="497" y="1081"/>
      <point x="737" y="738"/>
      <point x="782" y="667" type="curve"/>
      <point x="809" y="711"/>
      <point x="1042" y="1037"/>
      <point x="1042" y="1140" type="curve" smooth="yes"/>
      <point x="1042" y="1211"/>
      <point x="929" y="1230"/>
      <point x="877" y="1246" type="curve"/>
      <point x="875" y="1273" type="line"/>
      <point x="875" y="1282"/>
      <point x="876" y="1291"/>
    </contour>
    <contour>
      <point x="703" y="1302" type="move" name="top"/>
    </contour>
  </outline>
</glyph>
<glyph name="Z" format="1">
  <advance width="1272"/>
  <unicode hex="005A"/>
  <outline>
    <contour>
      <point x="1141" y="359" type="curve"/>
      <point x="1197" y="357" type="line"/>
      <point x="1137" y="-10" type="line"/>
      <point x="1096" y="-10" type="line" smooth="yes"/>
      <point x="1047" y="-10"/>
      <point x="999" y="0"/>
      <point x="952" y="0" type="curve" smooth="yes"/>
      <point x="75" y="0" type="line"/>
      <point x="71" y="43" type="line"/>
      <point x="831" y="1119" type="line" smooth="yes"/>
      <point x="842" y="1134"/>
      <point x="905" y="1225"/>
      <point x="905" y="1225" type="curve"/>
      <point x="509" y="1225" type="line" smooth="yes"/>
      <point x="398" y="1225"/>
      <point x="316" y="1224"/>
      <point x="254" y="1112" type="curve" smooth="yes"/>
      <point x="228" y="1065"/>
      <point x="205" y="1016"/>
      <point x="174" y="972" type="curve"/>
      <point x="156" y="972"/>
      <point x="139" y="973"/>
      <point x="121" y="975" type="curve"/>
      <point x="148" y="1303" type="line"/>
      <point x="180" y="1303" type="line" smooth="yes"/>
      <point x="508" y="1303"/>
      <point x="837" y="1302"/>
      <point x="1166" y="1302" type="curve"/>
      <point x="1178" y="1297"/>
      <point x="1179" y="1283"/>
      <point x="1179" y="1272" type="curve"/>
      <point x="1178" y="1245" type="line"/>
      <point x="433" y="198" type="line" smooth="yes"/>
      <point x="408" y="162"/>
      <point x="382" y="127"/>
      <point x="359" y="89" type="curve"/>
      <point x="388" y="80"/>
      <point x="418" y="74"/>
      <point x="449" y="74" type="curve" smooth="yes"/>
      <point x="588" y="74" type="line" smooth="yes"/>
      <point x="689" y="74"/>
      <point x="790" y="76"/>
      <point x="888" y="92" type="curve" smooth="yes"/>
      <point x="967" y="104"/>
      <point x="998" y="134"/>
      <point x="1035" y="203" type="curve" smooth="yes"/>
      <point x="1064" y="257"/>
      <point x="1098" y="315"/>
    </contour>
    <contour>
      <point x="653" y="1302" type="move" name="top"/>
    </contour>
  </outline>
</glyph>
<glyph name="bracketleft" format="1">
  <advance width="787"/>
  <unicode hex="005B"/>
  <outline>
    <contour>
      <point x="98" y="1449" type="curve" smooth="yes"/>
      <point x="98" y="1485"/>
      <point x="151" y="1524"/>
      <point x="185" y="1524" type="curve" smooth="yes"/>
      <point x="337" y="1524"/>
      <point x="490" y="1529"/>
      <point x="642" y="1529" type="curve" smooth="yes"/>
      <point x="688" y="1529"/>
      <point x="741" y="1509"/>
      <point x="741" y="1455" type="curve" smooth="yes"/>
      <point x="741" y="1399"/>
      <point x="694" y="1380"/>
      <point x="646" y="1380" type="curve" smooth="yes"/>
      <point x="254" y="1380" type="line"/>
      <point x="254" y="1097"/>
      <point x="236" y="815"/>
      <point x="236" y="532" type="curve" smooth="yes"/>
      <point x="236" y="334"/>
      <point x="238" y="136"/>
      <point x="241" y="-62" type="curve"/>
      <point x="363" y="-61"/>
      <point x="485" y="-56"/>
      <point x="607" y="-56" type="curve" smooth="yes"/>
      <point x="643" y="-56"/>
      <point x="682" y="-109"/>
      <point x="682" y="-143" type="curve" smooth="yes"/>
      <point x="682" y="-200"/>
      <point x="644" y="-214"/>
      <point x="594" y="-214" type="curve" smooth="yes"/>
      <point x="452" y="-214"/>
      <point x="310" y="-199"/>
      <point x="168" y="-199" type="curve" smooth="yes"/>
      <point x="114" y="-199"/>
      <point x="104" y="-165"/>
      <point x="104" y="-119" type="curve" smooth="yes"/>
      <point x="104" y="18"/>
      <point x="109" y="155"/>
      <point x="109" y="292" type="curve" smooth="yes"/>
      <point x="109" y="678"/>
      <point x="98" y="1063"/>
    </contour>
  </outline>
</glyph>
<glyph name="backslash" format="1">
  <advance width="730"/>
  <unicode hex="005C"/>
  <outline>
    <contour>
      <point x="42" y="1378" type="curve"/>
      <point x="65" y="1396"/>
      <point x="93" y="1402"/>
      <point x="122" y="1402" type="curve"/>
      <point x="192" y="1336"/>
      <point x="208" y="1229"/>
      <point x="241" y="1142" type="curve" smooth="yes"/>
      <point x="642" y="72" type="line" smooth="yes"/>
      <point x="663" y="17"/>
      <point x="664" y="-58"/>
      <point x="669" y="-117" type="curve"/>
      <point x="650" y="-117" type="line" smooth="yes"/>
      <point x="631" y="-117"/>
      <point x="611" y="-117"/>
      <point x="592" y="-112" type="curve"/>
      <point x="567" y="-58"/>
      <point x="546" y="-3"/>
      <point x="527" y="53" type="curve" smooth="yes"/>
      <point x="375" y="498"/>
      <point x="177" y="928"/>
    </contour>
  </outline>
</glyph>
<glyph name="bracketright" format="1">
  <advance width="792"/>
  <unicode hex="005D"/>
  <outline>
    <contour>
      <point x="190" y="-214" type="curve" smooth="yes"/>
      <point x="140" y="-214"/>
      <point x="102" y="-200"/>
      <point x="102" y="-143" type="curve" smooth="yes"/>
      <point x="102" y="-64"/>
      <point x="188" y="-54"/>
      <point x="249" y="-54" type="curve" smooth="yes"/>
      <point x="299" y="-54"/>
      <point x="348" y="-63"/>
      <point x="398" y="-63" type="curve" smooth="yes"/>
      <point x="543" y="-63" type="line"/>
      <point x="546" y="135"/>
      <point x="548" y="334"/>
      <point x="548" y="532" type="curve" smooth="yes"/>
      <point x="548" y="815"/>
      <point x="531" y="1097"/>
      <point x="530" y="1380" type="curve"/>
      <point x="124" y="1380" type="line" smooth="yes"/>
      <point x="82" y="1380"/>
      <point x="43" y="1411"/>
      <point x="43" y="1455" type="curve" smooth="yes"/>
      <point x="43" y="1509"/>
      <point x="96" y="1529"/>
      <point x="142" y="1529" type="curve" smooth="yes"/>
      <point x="294" y="1529"/>
      <point x="447" y="1524"/>
      <point x="599" y="1524" type="curve" smooth="yes"/>
      <point x="633" y="1524"/>
      <point x="686" y="1485"/>
      <point x="686" y="1449" type="curve" smooth="yes"/>
      <point x="686" y="1113"/>
      <point x="678" y="776"/>
      <point x="678" y="440" type="curve" smooth="yes"/>
      <point x="678" y="219"/>
      <point x="695" y="57"/>
      <point x="695" y="-48" type="curve" smooth="yes"/>
      <point x="695" y="-150"/>
      <point x="679" y="-199"/>
      <point x="616" y="-199" type="curve" smooth="yes"/>
      <point x="474" y="-199"/>
      <point x="332" y="-214"/>
    </contour>
  </outline>
</glyph>
<glyph name="underscore" format="1">
  <advance width="970"/>
  <unicode hex="005F"/>
  <outline>
    <contour>
      <point x="909" y="-129" type="curve"/>
      <point x="875" y="-145"/>
      <point x="826" y="-147"/>
      <point x="784" y="-147" type="curve" smooth="yes"/>
      <point x="118" y="-147" type="line"/>
      <point x="79" y="-131"/>
      <point x="60" y="-112"/>
      <point x="60" y="-68" type="curve"/>
      <point x="105" y="-49"/>
      <point x="163" y="-49"/>
      <point x="212" y="-49" type="curve" smooth="yes"/>
      <point x="851" y="-49" type="line"/>
      <point x="888" y="-65"/>
      <point x="909" y="-88"/>
    </contour>
  </outline>
</glyph>
<glyph name="a" format="1">
  <advance width="1028"/>
  <unicode hex="0061"/>
  <outline>
    <contour>
      <point x="645" y="514" type="curve"/>
      <point x="645" y="609" type="line" smooth="yes"/>
      <point x="645" y="739"/>
      <point x="621" y="852"/>
      <point x="462" y="852" type="curve" smooth="yes"/>
      <point x="416" y="852"/>
      <point x="303" y="821"/>
      <point x="303" y="762" type="curve" smooth="yes"/>
      <point x="303" y="727"/>
      <point x="337" y="700"/>
      <point x="337" y="665" type="curve" smooth="yes"/>
      <point x="337" y="612"/>
      <point x="300" y="572"/>
      <point x="246" y="572" type="curve" smooth="yes"/>
      <point x="176" y="572"/>
      <point x="137" y="633"/>
      <point x="137" y="698" type="curve" smooth="yes"/>
      <point x="137" y="866"/>
      <point x="376" y="926"/>
      <point x="507" y="926" type="curve" smooth="yes"/>
      <point x="797" y="926"/>
      <point x="831" y="767"/>
      <point x="831" y="511" type="curve" smooth="yes"/>
      <point x="831" y="484"/>
      <point x="831" y="359"/>
      <point x="831" y="264" type="curve" smooth="yes"/>
      <point x="831" y="152"/>
      <point x="835" y="99"/>
      <point x="873" y="99" type="curve" smooth="yes"/>
      <point x="905" y="99"/>
      <point x="943" y="145"/>
      <point x="961" y="168" type="curve"/>
      <point x="1003" y="123" type="line"/>
      <point x="953" y="40"/>
      <point x="905" y="-20"/>
      <point x="803" y="-20" type="curve" smooth="yes"/>
      <point x="714" y="-20"/>
      <point x="653" y="41"/>
      <point x="648" y="129" type="curve"/>
      <point x="566" y="40"/>
      <point x="459" y="-20"/>
      <point x="336" y="-20" type="curve" smooth="yes"/>
      <point x="215" y="-20"/>
      <point x="106" y="47"/>
      <point x="106" y="178" type="curve" smooth="yes"/>
      <point x="106" y="412"/>
      <point x="473" y="469"/>
    </contour>
    <contour>
      <point x="645" y="200" type="curve"/>
      <point x="645" y="455" type="line"/>
      <point x="542" y="420"/>
      <point x="303" y="361"/>
      <point x="303" y="220" type="curve" smooth="yes"/>
      <point x="303" y="142"/>
      <point x="348" y="93"/>
      <point x="427" y="93" type="curve" smooth="yes"/>
      <point x="511" y="93"/>
      <point x="587" y="143"/>
    </contour>
    <contour>
      <point x="537" y="899" type="move" name="top"/>
    </contour>
    <contour>
      <point x="942" y="10" type="move" name="ogonek"/>
    </contour>
  </outline>
</glyph>
<glyph name="b" format="1">
  <advance width="1169"/>
  <unicode hex="0062"/>
  <outline>
    <contour>
      <point x="163" y="134" type="curve" smooth="yes"/>
      <point x="163" y="1163" type="line"/>
      <point x="135" y="1208"/>
      <point x="-25" y="1254"/>
      <point x="-25" y="1254" type="curve"/>
      <point x="-23" y="1288" type="line"/>
      <point x="263" y="1367" type="line"/>
      <point x="349" y="1376" type="line"/>
      <point x="349" y="758" type="line"/>
      <point x="441" y="857"/>
      <point x="534" y="926"/>
      <point x="666" y="926" type="curve" smooth="yes"/>
      <point x="903" y="926"/>
      <point x="1041" y="691"/>
      <point x="1041" y="462" type="curve" smooth="yes"/>
      <point x="1041" y="95"/>
      <point x="771" y="-20"/>
      <point x="521" y="-20" type="curve" smooth="yes"/>
      <point x="332" y="-20"/>
      <point x="163" y="48"/>
    </contour>
    <contour>
      <point x="349" y="677" type="curve"/>
      <point x="349" y="124" type="line" smooth="yes"/>
      <point x="349" y="85"/>
      <point x="426" y="58"/>
      <point x="531" y="58" type="curve" smooth="yes"/>
      <point x="679" y="58"/>
      <point x="849" y="139"/>
      <point x="855" y="412" type="curve" smooth="yes"/>
      <point x="855" y="417"/>
      <point x="855" y="423"/>
      <point x="855" y="428" type="curve" smooth="yes"/>
      <point x="855" y="646"/>
      <point x="753" y="806"/>
      <point x="588" y="806" type="curve" smooth="yes"/>
      <point x="486" y="806"/>
      <point x="405" y="745"/>
    </contour>
  </outline>
</glyph>
<glyph name="c" format="1">
  <advance width="946"/>
  <unicode hex="0063"/>
  <outline>
    <contour>
      <point x="839" y="211" type="curve"/>
      <point x="871" y="188" type="line"/>
      <point x="828" y="49"/>
      <point x="670" y="-20"/>
      <point x="517" y="-20" type="curve" smooth="yes"/>
      <point x="231" y="-20"/>
      <point x="74" y="203"/>
      <point x="74" y="448" type="curve" smooth="yes"/>
      <point x="74" y="713"/>
      <point x="248" y="926"/>
      <point x="545" y="926" type="curve" smooth="yes"/>
      <point x="712" y="926"/>
      <point x="875" y="845"/>
      <point x="876" y="722" type="curve" smooth="yes"/>
      <point x="876" y="655"/>
      <point x="821" y="642"/>
      <point x="787" y="642" type="curve" smooth="yes"/>
      <point x="637" y="642"/>
      <point x="776" y="848"/>
      <point x="549" y="857" type="curve" smooth="yes"/>
      <point x="546" y="857"/>
      <point x="542" y="857"/>
      <point x="539" y="857" type="curve" smooth="yes"/>
      <point x="392" y="857"/>
      <point x="257" y="729"/>
      <point x="257" y="502" type="curve" smooth="yes"/>
      <point x="257" y="298"/>
      <point x="367" y="120"/>
      <point x="574" y="120" type="curve" smooth="yes"/>
      <point x="695" y="120"/>
      <point x="760" y="149"/>
    </contour>
    <contour>
      <point x="497" y="899" type="move" name="top"/>
    </contour>
    <contour>
      <point x="497" y="0" type="move" name="bottom"/>
    </contour>
  </outline>
</glyph>
<glyph name="d" format="1">
  <advance width="1194"/>
  <unicode hex="0064"/>
  <outline>
    <contour>
      <point x="801" y="849" type="curve"/>
      <point x="801" y="1175" type="line"/>
      <point x="772" y="1220"/>
      <point x="631" y="1266"/>
      <point x="631" y="1266" type="curve"/>
      <point x="633" y="1301" type="line"/>
      <point x="915" y="1369" type="line"/>
      <point x="987" y="1376" type="line"/>
      <point x="987" y="199" type="line" smooth="yes"/>
      <point x="987" y="109"/>
      <point x="1091" y="87"/>
      <point x="1149" y="87" type="curve"/>
      <point x="1149" y="32" type="line"/>
      <point x="882" y="-12" type="line"/>
      <point x="815" y="-12" type="line"/>
      <point x="806" y="143" type="line"/>
      <point x="712" y="35"/>
      <point x="610" y="-20"/>
      <point x="490" y="-20" type="curve" smooth="yes"/>
      <point x="263" y="-20"/>
      <point x="86" y="153"/>
      <point x="82" y="414" type="curve" smooth="yes"/>
      <point x="82" y="418"/>
      <point x="82" y="421"/>
      <point x="82" y="425" type="curve" smooth="yes"/>
      <point x="82" y="728"/>
      <point x="284" y="923"/>
      <point x="546" y="923" type="curve" smooth="yes"/>
      <point x="636" y="923"/>
      <point x="716" y="889"/>
    </contour>
    <contour>
      <point x="801" y="222" type="curve"/>
      <point x="801" y="510" type="line" smooth="yes"/>
      <point x="801" y="625"/>
      <point x="790" y="706"/>
      <point x="715" y="772" type="curve" smooth="yes"/>
      <point x="663" y="818"/>
      <point x="600" y="849"/>
      <point x="536" y="849" type="curve" smooth="yes"/>
      <point x="372" y="849"/>
      <point x="268" y="671"/>
      <point x="268" y="477" type="curve" smooth="yes"/>
      <point x="268" y="296"/>
      <point x="364" y="92"/>
      <point x="564" y="92" type="curve" smooth="yes"/>
      <point x="671" y="92"/>
      <point x="750" y="154"/>
    </contour>
    <contour>
      <point x="614" y="450" type="move" name="center"/>
    </contour>
  </outline>
</glyph>
<glyph name="e" format="1">
  <advance width="950"/>
  <unicode hex="0065"/>
  <outline>
    <contour>
      <point x="244" y="543" type="curve"/>
      <point x="622" y="558" type="line" smooth="yes"/>
      <point x="649" y="559"/>
      <point x="675" y="564"/>
      <point x="696" y="574" type="curve"/>
      <point x="686" y="749"/>
      <point x="617" y="859"/>
      <point x="485" y="859" type="curve" smooth="yes"/>
      <point x="349" y="859"/>
      <point x="256" y="727"/>
    </contour>
    <contour>
      <point x="876" y="503" type="curve" smooth="yes"/>
      <point x="876" y="494" type="line"/>
      <point x="244" y="494" type="line"/>
      <point x="244" y="234"/>
      <point x="400" y="121"/>
      <point x="582" y="121" type="curve" smooth="yes"/>
      <point x="668" y="121"/>
      <point x="747" y="145"/>
      <point x="825" y="193" type="curve"/>
      <point x="854" y="165" type="line"/>
      <point x="804" y="44"/>
      <point x="637" y="-20"/>
      <point x="507" y="-20" type="curve" smooth="yes"/>
      <point x="252" y="-20"/>
      <point x="67" y="169"/>
      <point x="67" y="447" type="curve" smooth="yes"/>
      <point x="67" y="734"/>
      <point x="276" y="926"/>
      <point x="508" y="926" type="curve" smooth="yes"/>
      <point x="701" y="926"/>
      <point x="839" y="788"/>
      <point x="865" y="588" type="curve"/>
      <point x="872" y="559"/>
      <point x="876" y="530"/>
    </contour>
    <contour>
      <point x="482" y="899" type="move" name="top"/>
    </contour>
    <contour>
      <point x="482" y="0" type="move" name="bottom"/>
    </contour>
    <contour>
      <point x="867" y="10" type="move" name="ogonek"/>
    </contour>
  </outline>
</glyph>
<glyph name="f" format="1">
  <advance width="897"/>
  <unicode hex="0066"/>
  <outline>
    <contour>
      <point x="489" y="899" type="line"/>
      <point x="719" y="899" type="line"/>
      <point x="721" y="824" type="line"/>
      <point x="489" y="824" type="line"/>
      <point x="489" y="259" type="line" smooth="yes"/>
      <point x="489" y="251"/>
      <point x="489" y="241"/>
      <point x="489" y="230" type="curve" smooth="yes"/>
      <point x="489" y="163"/>
      <point x="501" y="59"/>
      <point x="687" y="50" type="curve"/>
      <point x="687" y="35"/>
      <point x="687" y="19"/>
      <point x="686" y="0" type="curve"/>
      <point x="125" y="0" type="line"/>
      <point x="124" y="19"/>
      <point x="123" y="35"/>
      <point x="123" y="50" type="curve"/>
      <point x="241" y="83"/>
      <point x="303" y="75"/>
      <point x="303" y="215" type="curve" smooth="yes"/>
      <point x="303" y="824" type="line"/>
      <point x="147" y="824" type="line"/>
      <point x="145" y="899" type="line"/>
      <point x="214" y="899" type="line" smooth="yes"/>
      <point x="278" y="899"/>
      <point x="298" y="901"/>
      <point x="299" y="971" type="curve" smooth="yes"/>
      <point x="304" y="1231"/>
      <point x="433" y="1374"/>
      <point x="659" y="1374" type="curve" smooth="yes"/>
      <point x="792" y="1374"/>
      <point x="901" y="1323"/>
      <point x="901" y="1230" type="curve" smooth="yes"/>
      <point x="901" y="1179"/>
      <point x="867" y="1140"/>
      <point x="807" y="1140" type="curve" smooth="yes"/>
      <point x="699" y="1140"/>
      <point x="731" y="1311"/>
      <point x="626" y="1311" type="curve" smooth="yes"/>
      <point x="540" y="1311"/>
      <point x="489" y="1249"/>
      <point x="489" y="1021" type="curve" smooth="yes"/>
    </contour>
  </outline>
</glyph>
<glyph name="g" format="1">
  <advance width="1020"/>
  <unicode hex="0067"/>
  <outline>
    <contour>
      <point x="950" y="918" type="curve"/>
      <point x="955" y="805" type="line"/>
      <point x="939" y="810"/>
      <point x="912" y="812"/>
      <point x="883" y="812" type="curve" smooth="yes"/>
      <point x="819" y="812"/>
      <point x="742" y="803"/>
      <point x="742" y="803" type="curve"/>
      <point x="742" y="803"/>
      <point x="821" y="714"/>
      <point x="821" y="626" type="curve" smooth="yes"/>
      <point x="821" y="427"/>
      <point x="639" y="326"/>
      <point x="467" y="326" type="curve" smooth="yes"/>
      <point x="429" y="326"/>
      <point x="391" y="332"/>
      <point x="339" y="344" type="curve"/>
      <point x="308" y="308"/>
      <point x="268" y="293"/>
      <point x="268" y="219" type="curve" smooth="yes"/>
      <point x="268" y="150"/>
      <point x="413" y="165"/>
      <point x="665" y="147" type="curve" smooth="yes"/>
      <point x="826" y="135"/>
      <point x="948" y="63"/>
      <point x="948" y="-76" type="curve" smooth="yes"/>
      <point x="948" y="-262"/>
      <point x="720" y="-375"/>
      <point x="451" y="-375" type="curve" smooth="yes"/>
      <point x="213" y="-375"/>
      <point x="85" y="-287"/>
      <point x="85" y="-208" type="curve" smooth="yes"/>
      <point x="85" y="-152"/>
      <point x="128" y="-81"/>
      <point x="238" y="0" type="curve"/>
      <point x="165" y="30"/>
      <point x="119" y="79"/>
      <point x="119" y="139" type="curve" smooth="yes"/>
      <point x="119" y="232"/>
      <point x="189" y="303"/>
      <point x="284" y="370" type="curve"/>
      <point x="181" y="424"/>
      <point x="119" y="506"/>
      <point x="119" y="613" type="curve" smooth="yes"/>
      <point x="119" y="796"/>
      <point x="265" y="926"/>
      <point x="466" y="926" type="curve" smooth="yes"/>
      <point x="551" y="926"/>
      <point x="623" y="906"/>
      <point x="686" y="873" type="curve"/>
      <point x="686" y="873"/>
      <point x="812" y="922"/>
      <point x="903" y="922" type="curve" smooth="yes"/>
      <point x="926" y="922"/>
      <point x="950" y="918"/>
    </contour>
    <contour>
      <point x="458" y="852" type="curve" smooth="yes"/>
      <point x="368" y="852"/>
      <point x="297" y="764"/>
      <point x="297" y="634" type="curve" smooth="yes"/>
      <point x="297" y="501"/>
      <point x="355" y="392"/>
      <point x="486" y="392" type="curve" smooth="yes"/>
      <point x="598" y="392"/>
      <point x="646" y="477"/>
      <point x="646" y="597" type="curve" smooth="yes"/>
      <point x="646" y="763"/>
      <point x="563" y="852"/>
    </contour>
    <contour>
      <point x="569" y="-23" type="curve" smooth="yes"/>
      <point x="484" y="-21" type="line" smooth="yes"/>
      <point x="426" y="-20"/>
      <point x="375" y="-16"/>
      <point x="312" y="-9" type="curve"/>
      <point x="242" y="-69"/>
      <point x="215" y="-118"/>
      <point x="215" y="-161" type="curve" smooth="yes"/>
      <point x="215" y="-266"/>
      <point x="394" y="-292"/>
      <point x="477" y="-292" type="curve" smooth="yes"/>
      <point x="611" y="-292"/>
      <point x="812" y="-247"/>
      <point x="812" y="-142" type="curve" smooth="yes"/>
      <point x="812" y="-72"/>
      <point x="739" y="-27"/>
    </contour>
    <contour>
      <point x="519" y="899" type="move" name="top"/>
    </contour>
  </outline>
</glyph>
<glyph name="h" format="1">
  <advance width="1279"/>
  <unicode hex="0068"/>
  <outline>
    <contour>
      <point x="1070" y="568" type="curve" smooth="yes"/>
      <point x="1070" y="221" type="line" smooth="yes"/>
      <point x="1070" y="117"/>
      <point x="1125" y="59"/>
      <point x="1222" y="50" type="curve"/>
      <point x="1222" y="34"/>
      <point x="1220" y="0"/>
      <point x="1220" y="0" type="curve"/>
      <point x="728" y="0" type="line"/>
      <point x="728" y="0"/>
      <point x="726" y="34"/>
      <point x="726" y="50" type="curve"/>
      <point x="832" y="96"/>
      <point x="884" y="66"/>
      <point x="884" y="214" type="curve" smooth="yes"/>
      <point x="884" y="577" type="line" smooth="yes"/>
      <point x="884" y="713"/>
      <point x="832" y="818"/>
      <point x="692" y="818" type="curve" smooth="yes"/>
      <point x="589" y="818"/>
      <point x="497" y="752"/>
      <point x="432" y="684" type="curve"/>
      <point x="432" y="233" type="line" smooth="yes"/>
      <point x="432" y="112"/>
      <point x="484" y="62"/>
      <point x="607" y="50" type="curve"/>
      <point x="607" y="34"/>
      <point x="606" y="0"/>
      <point x="606" y="0" type="curve"/>
      <point x="73" y="0" type="line"/>
      <point x="73" y="0"/>
      <point x="71" y="34"/>
      <point x="71" y="50" type="curve"/>
      <point x="183" y="59"/>
      <point x="246" y="115"/>
      <point x="246" y="233" type="curve" smooth="yes"/>
      <point x="246" y="1164" type="line"/>
      <point x="224" y="1196"/>
      <point x="111" y="1253"/>
      <point x="75" y="1258" type="curve"/>
      <point x="75" y="1293" type="line"/>
      <point x="361" y="1369" type="line"/>
      <point x="432" y="1376" type="line"/>
      <point x="432" y="768" type="line"/>
      <point x="527" y="862"/>
      <point x="620" y="926"/>
      <point x="763" y="926" type="curve" smooth="yes"/>
      <point x="937" y="926"/>
      <point x="1070" y="821"/>
    </contour>
    <contour>
      <point x="612" y="899" type="move" name="top"/>
    </contour>
    <contour>
      <point x="612" y="450" type="move" name="center"/>
    </contour>
  </outline>
</glyph>
<glyph name="i" format="1">
  <advance width="661"/>
  <unicode hex="0069"/>
  <outline>
    <contour>
      <point x="243" y="181" type="curve" smooth="yes"/>
      <point x="243" y="735" type="line"/>
      <point x="213" y="786"/>
      <point x="84" y="819"/>
      <point x="84" y="819" type="curve"/>
      <point x="86" y="854" type="line"/>
      <point x="367" y="922" type="line"/>
      <point x="429" y="926" type="line"/>
      <point x="429" y="220" type="line" smooth="yes"/>
      <point x="429" y="217"/>
      <point x="429" y="214"/>
      <point x="429" y="211" type="curve" smooth="yes"/>
      <point x="429" y="170"/>
      <point x="436" y="67"/>
      <point x="604" y="50" type="curve"/>
      <point x="604" y="33"/>
      <point x="604" y="17"/>
      <point x="603" y="0" type="curve"/>
      <point x="81" y="0" type="line"/>
      <point x="79" y="18"/>
      <point x="79" y="34"/>
      <point x="79" y="50" type="curve"/>
      <point x="151" y="72"/>
      <point x="243" y="83"/>
    </contour>
    <contour>
      <point x="207" y="1260" type="curve" smooth="yes"/>
      <point x="207" y="1324"/>
      <point x="258" y="1376"/>
      <point x="323" y="1376" type="curve" smooth="yes"/>
      <point x="387" y="1376"/>
      <point x="439" y="1324"/>
      <point x="439" y="1260" type="curve" smooth="yes"/>
      <point x="439" y="1195"/>
      <point x="387" y="1144"/>
      <point x="323" y="1144" type="curve" smooth="yes"/>
      <point x="258" y="1144"/>
      <point x="207" y="1195"/>
    </contour>
  </outline>
</glyph>
<glyph name="j" format="1">
  <advance width="541"/>
  <unicode hex="006A"/>
  <outline>
    <contour>
      <point x="236" y="88" type="curve" smooth="yes"/>
      <point x="236" y="736" type="line"/>
      <point x="206" y="786"/>
      <point x="84" y="819"/>
      <point x="74" y="819" type="curve"/>
      <point x="74" y="854" type="line"/>
      <point x="354" y="921" type="line"/>
      <point x="422" y="926" type="line"/>
      <point x="422" y="125" type="line" smooth="yes"/>
      <point x="422" y="-168"/>
      <point x="286" y="-282"/>
      <point x="49" y="-308" type="curve"/>
      <point x="34" y="-250" type="line"/>
      <point x="198" y="-176"/>
      <point x="225" y="-136"/>
    </contour>
    <contour>
      <point x="200" y="1260" type="curve" smooth="yes"/>
      <point x="200" y="1324"/>
      <point x="251" y="1376"/>
      <point x="315" y="1376" type="curve" smooth="yes"/>
      <point x="380" y="1376"/>
      <point x="431" y="1324"/>
      <point x="431" y="1260" type="curve" smooth="yes"/>
      <point x="431" y="1195"/>
      <point x="380" y="1144"/>
      <point x="315" y="1144" type="curve" smooth="yes"/>
      <point x="251" y="1144"/>
      <point x="200" y="1195"/>
    </contour>
  </outline>
</glyph>
<glyph name="k" format="1">
  <advance width="1231"/>
  <unicode hex="006B"/>
  <outline>
    <contour>
      <point x="584" y="50" type="curve"/>
      <point x="584" y="33"/>
      <point x="582" y="0"/>
      <point x="582" y="0" type="curve"/>
      <point x="84" y="0" type="line"/>
      <point x="84" y="0"/>
      <point x="83" y="16"/>
      <point x="83" y="32" type="curve" smooth="yes"/>
      <point x="83" y="40"/>
      <point x="83" y="48"/>
      <point x="84" y="54" type="curve"/>
      <point x="174" y="75"/>
      <point x="239" y="89"/>
      <point x="239" y="185" type="curve" smooth="yes"/>
      <point x="239" y="1164" type="line"/>
      <point x="217" y="1196"/>
      <point x="104" y="1253"/>
      <point x="68" y="1258" type="curve"/>
      <point x="68" y="1293" type="line"/>
      <point x="354" y="1369" type="line"/>
      <point x="425" y="1376" type="line"/>
      <point x="425" y="475" type="line"/>
      <point x="507" y="475" type="line"/>
      <point x="827" y="789" type="line"/>
      <point x="829" y="794"/>
      <point x="829" y="798"/>
      <point x="829" y="800" type="curve" smooth="yes"/>
      <point x="829" y="863"/>
      <point x="700" y="824"/>
      <point x="700" y="866" type="curve" smooth="yes"/>
      <point x="700" y="873"/>
      <point x="701" y="886"/>
      <point x="703" y="899" type="curve"/>
      <point x="1127" y="899" type="line"/>
      <point x="1130" y="866" type="line"/>
      <point x="1130" y="851"/>
      <point x="1100" y="839"/>
      <point x="1047" y="828" type="curve" smooth="yes"/>
      <point x="998" y="818"/>
      <point x="965" y="802"/>
      <point x="945" y="785" type="curve"/>
      <point x="669" y="502" type="line"/>
      <point x="933" y="160" type="line" smooth="yes"/>
      <point x="1003" y="69"/>
      <point x="1143" y="53"/>
      <point x="1159" y="53" type="curve"/>
      <point x="1159" y="53"/>
      <point x="1157" y="10"/>
      <point x="1156" y="0" type="curve"/>
      <point x="661" y="0" type="line"/>
      <point x="661" y="0"/>
      <point x="654" y="52"/>
      <point x="656" y="52" type="curve" smooth="yes"/>
      <point x="744" y="52"/>
      <point x="756" y="81"/>
      <point x="756" y="96" type="curve" smooth="yes"/>
      <point x="756" y="99"/>
      <point x="754" y="107"/>
      <point x="743" y="119" type="curve"/>
      <point x="510" y="420" type="line"/>
      <point x="425" y="420" type="line"/>
      <point x="425" y="222" type="line" smooth="yes"/>
      <point x="425" y="101"/>
      <point x="473" y="61"/>
    </contour>
    <contour>
      <point x="563" y="0" type="move" name="bottom"/>
    </contour>
  </outline>
</glyph>
<glyph name="l" format="1">
  <advance width="631"/>
  <unicode hex="006C"/>
  <outline>
    <contour>
      <point x="70" y="1258" type="curve"/>
      <point x="72" y="1293" type="line"/>
      <point x="350" y="1369" type="line"/>
      <point x="422" y="1376" type="line"/>
      <point x="422" y="234" type="line" smooth="yes"/>
      <point x="422" y="126"/>
      <point x="460" y="62"/>
      <point x="571" y="50" type="curve"/>
      <point x="571" y="33"/>
      <point x="569" y="0"/>
      <point x="569" y="0" type="curve"/>
      <point x="77" y="0" type="line"/>
      <point x="77" y="0"/>
      <point x="76" y="34"/>
      <point x="76" y="50" type="curve"/>
      <point x="115" y="76"/>
      <point x="216" y="74"/>
      <point x="228" y="140" type="curve" smooth="yes"/>
      <point x="233" y="167"/>
      <point x="236" y="196"/>
      <point x="236" y="228" type="curve" smooth="yes"/>
      <point x="236" y="542"/>
      <point x="235" y="855"/>
      <point x="235" y="1169" type="curve"/>
      <point x="208" y="1213"/>
      <point x="70" y="1258"/>
    </contour>
    <contour>
      <point x="303" y="899" type="move" name="top"/>
    </contour>
    <contour>
      <point x="303" y="0" type="move" name="bottom"/>
    </contour>
    <contour>
      <point x="580" y="899" type="move" name="topright"/>
    </contour>
  </outline>
</glyph>
<glyph name="m" format="1">
  <advance width="1822"/>
  <unicode hex="006D"/>
  <outline>
    <contour>
      <point x="423" y="678" type="curve"/>
      <point x="423" y="235" type="line" smooth="yes"/>
      <point x="423" y="71"/>
      <point x="513" y="66"/>
      <point x="599" y="50" type="curve"/>
      <point x="599" y="33"/>
      <point x="597" y="0"/>
      <point x="597" y="0" type="curve"/>
      <point x="81" y="0" type="line"/>
      <point x="81" y="53" type="line"/>
      <point x="119" y="66"/>
      <point x="217" y="76"/>
      <point x="230" y="140" type="curve"/>
      <point x="237" y="165"/>
      <point x="237" y="190"/>
      <point x="237" y="222" type="curve" smooth="yes"/>
      <point x="237" y="734" type="line"/>
      <point x="209" y="787"/>
      <point x="78" y="819"/>
      <point x="78" y="819" type="curve"/>
      <point x="81" y="853" type="line"/>
      <point x="356" y="921" type="line"/>
      <point x="415" y="925" type="line"/>
      <point x="417" y="887"/>
      <point x="426" y="754"/>
      <point x="426" y="754" type="curve"/>
      <point x="497" y="846"/>
      <point x="602" y="926"/>
      <point x="744" y="926" type="curve" smooth="yes"/>
      <point x="875" y="926"/>
      <point x="959" y="873"/>
      <point x="1004" y="765" type="curve"/>
      <point x="1090" y="859"/>
      <point x="1170" y="924"/>
      <point x="1311" y="924" type="curve" smooth="yes"/>
      <point x="1478" y="924"/>
      <point x="1597" y="849"/>
      <point x="1612" y="676" type="curve" smooth="yes"/>
      <point x="1617" y="617"/>
      <point x="1620" y="555"/>
      <point x="1620" y="487" type="curve" smooth="yes"/>
      <point x="1620" y="225" type="line" smooth="yes"/>
      <point x="1620" y="194"/>
      <point x="1622" y="165"/>
      <point x="1627" y="140" type="curve" smooth="yes"/>
      <point x="1638" y="78"/>
      <point x="1709" y="65"/>
      <point x="1763" y="50" type="curve"/>
      <point x="1763" y="34"/>
      <point x="1761" y="0"/>
      <point x="1761" y="0" type="curve"/>
      <point x="1280" y="0" type="line"/>
      <point x="1280" y="0"/>
      <point x="1278" y="34"/>
      <point x="1278" y="50" type="curve"/>
      <point x="1327" y="65"/>
      <point x="1411" y="77"/>
      <point x="1425" y="138" type="curve" smooth="yes"/>
      <point x="1430" y="163"/>
      <point x="1433" y="192"/>
      <point x="1433" y="225" type="curve" smooth="yes"/>
      <point x="1433" y="622" type="line" smooth="yes"/>
      <point x="1433" y="746"/>
      <point x="1367" y="819"/>
      <point x="1248" y="819" type="curve" smooth="yes"/>
      <point x="1158" y="819"/>
      <point x="1071" y="753"/>
      <point x="1017" y="694" type="curve"/>
      <point x="1023" y="625"/>
      <point x="1023" y="551"/>
      <point x="1023" y="472" type="curve" smooth="yes"/>
      <point x="1023" y="230" type="line" smooth="yes"/>
      <point x="1023" y="198"/>
      <point x="1024" y="168"/>
      <point x="1029" y="142" type="curve" smooth="yes"/>
      <point x="1040" y="78"/>
      <point x="1127" y="66"/>
      <point x="1177" y="50" type="curve"/>
      <point x="1177" y="33"/>
      <point x="1175" y="0"/>
      <point x="1175" y="0" type="curve"/>
      <point x="675" y="0" type="line"/>
      <point x="675" y="0"/>
      <point x="673" y="34"/>
      <point x="673" y="50" type="curve"/>
      <point x="710" y="58"/>
      <point x="836" y="70"/>
      <point x="836" y="229" type="curve" smooth="yes"/>
      <point x="836" y="577" type="line" smooth="yes"/>
      <point x="836" y="720"/>
      <point x="801" y="818"/>
      <point x="670" y="818" type="curve" smooth="yes"/>
      <point x="566" y="818"/>
      <point x="489" y="753"/>
    </contour>
  </outline>
</glyph>
<glyph name="n" format="1">
  <advance width="1269"/>
  <unicode hex="006E"/>
  <outline>
    <contour>
      <point x="422" y="668" type="curve"/>
      <point x="422" y="222" type="line" smooth="yes"/>
      <point x="422" y="101"/>
      <point x="487" y="61"/>
      <point x="598" y="50" type="curve"/>
      <point x="598" y="33"/>
      <point x="596" y="0"/>
      <point x="596" y="0" type="curve"/>
      <point x="81" y="0" type="line"/>
      <point x="81" y="0"/>
      <point x="80" y="16"/>
      <point x="80" y="32" type="curve" smooth="yes"/>
      <point x="80" y="40"/>
      <point x="80" y="48"/>
      <point x="81" y="54" type="curve"/>
      <point x="171" y="75"/>
      <point x="236" y="89"/>
      <point x="236" y="185" type="curve" smooth="yes"/>
      <point x="236" y="735" type="line"/>
      <point x="210" y="786"/>
      <point x="77" y="819"/>
      <point x="77" y="819" type="curve"/>
      <point x="80" y="853" type="line"/>
      <point x="353" y="921" type="line"/>
      <point x="414" y="925" type="line"/>
      <point x="425" y="755" type="line"/>
      <point x="493" y="847"/>
      <point x="611" y="926"/>
      <point x="750" y="926" type="curve" smooth="yes"/>
      <point x="941" y="926"/>
      <point x="1053" y="819"/>
      <point x="1062" y="599" type="curve" smooth="yes"/>
      <point x="1064" y="556"/>
      <point x="1065" y="512"/>
      <point x="1065" y="468" type="curve" smooth="yes"/>
      <point x="1065" y="245" type="line" smooth="yes"/>
      <point x="1065" y="73"/>
      <point x="1098" y="91"/>
      <point x="1210" y="54" type="curve"/>
      <point x="1211" y="48"/>
      <point x="1211" y="40"/>
      <point x="1211" y="32" type="curve" smooth="yes"/>
      <point x="1211" y="16"/>
      <point x="1210" y="0"/>
      <point x="1210" y="0" type="curve"/>
      <point x="717" y="0" type="line"/>
      <point x="717" y="0"/>
      <point x="715" y="34"/>
      <point x="715" y="50" type="curve"/>
      <point x="766" y="70"/>
      <point x="862" y="76"/>
      <point x="874" y="149" type="curve" smooth="yes"/>
      <point x="878" y="172"/>
      <point x="879" y="198"/>
      <point x="879" y="226" type="curve" smooth="yes"/>
      <point x="879" y="449" type="line" smooth="yes"/>
      <point x="879" y="657"/>
      <point x="878" y="818"/>
      <point x="688" y="818" type="curve" smooth="yes"/>
      <point x="585" y="818"/>
      <point x="495" y="745"/>
    </contour>
    <contour>
      <point x="600" y="899" type="move" name="top"/>
    </contour>
    <contour>
      <point x="600" y="0" type="move" name="bottom"/>
    </contour>
  </outline>
</glyph>
<glyph name="o" format="1">
  <advance width="1075"/>
  <unicode hex="006F"/>
  <outline>
    <contour>
      <point x="65" y="456" type="curve" smooth="yes"/>
      <point x="65" y="739"/>
      <point x="284" y="926"/>
      <point x="532" y="926" type="curve" smooth="yes"/>
      <point x="796" y="926"/>
      <point x="1012" y="747"/>
      <point x="1012" y="457" type="curve" smooth="yes"/>
      <point x="1012" y="166"/>
      <point x="795" y="-20"/>
      <point x="543" y="-20" type="curve" smooth="yes"/>
      <point x="291" y="-20"/>
      <point x="65" y="174"/>
    </contour>
    <contour>
      <point x="265" y="515" type="curve" smooth="yes"/>
      <point x="265" y="291"/>
      <point x="375" y="58"/>
      <point x="556" y="58" type="curve" smooth="yes"/>
      <point x="732" y="58"/>
      <point x="815" y="200"/>
      <point x="815" y="388" type="curve" smooth="yes"/>
      <point x="815" y="642"/>
      <point x="704" y="859"/>
      <point x="526" y="859" type="curve" smooth="yes"/>
      <point x="379" y="859"/>
      <point x="265" y="755"/>
    </contour>
    <contour>
      <point x="556" y="899" type="move" name="top"/>
    </contour>
  </outline>
</glyph>
<glyph name="p" format="1">
  <advance width="1179"/>
  <unicode hex="0070"/>
  <outline>
    <contour>
      <point x="39" y="822" type="curve"/>
      <point x="39" y="856" type="line"/>
      <point x="309" y="921" type="line"/>
      <point x="377" y="926" type="line"/>
      <point x="385" y="754" type="line"/>
      <point x="471" y="850"/>
      <point x="566" y="926"/>
      <point x="705" y="926" type="curve" smooth="yes"/>
      <point x="931" y="926"/>
      <point x="1092" y="752"/>
      <point x="1092" y="473" type="curve" smooth="yes"/>
      <point x="1092" y="176"/>
      <point x="903" y="-19"/>
      <point x="644" y="-19" type="curve" smooth="yes"/>
      <point x="554" y="-19"/>
      <point x="462" y="14"/>
      <point x="391" y="75" type="curve"/>
      <point x="391" y="-144" type="line" smooth="yes"/>
      <point x="391" y="-272"/>
      <point x="452" y="-314"/>
      <point x="575" y="-328" type="curve"/>
      <point x="575" y="-344"/>
      <point x="573" y="-378"/>
      <point x="573" y="-378" type="curve"/>
      <point x="46" y="-378" type="line"/>
      <point x="46" y="-378"/>
      <point x="44" y="-344"/>
      <point x="44" y="-328" type="curve"/>
      <point x="147" y="-314"/>
      <point x="205" y="-261"/>
      <point x="205" y="-153" type="curve" smooth="yes"/>
      <point x="205" y="722" type="line"/>
      <point x="177" y="773"/>
      <point x="76" y="808"/>
    </contour>
    <contour>
      <point x="391" y="682" type="curve"/>
      <point x="391" y="347" type="line" smooth="yes"/>
      <point x="391" y="185"/>
      <point x="485" y="57"/>
      <point x="651" y="57" type="curve" smooth="yes"/>
      <point x="822" y="57"/>
      <point x="906" y="208"/>
      <point x="906" y="428" type="curve" smooth="yes"/>
      <point x="906" y="680"/>
      <point x="774" y="796"/>
      <point x="632" y="796" type="curve" smooth="yes"/>
      <point x="540" y="796"/>
      <point x="456" y="745"/>
    </contour>
  </outline>
</glyph>
<glyph name="q" format="1">
  <advance width="1141"/>
  <unicode hex="0071"/>
  <outline>
    <contour>
      <point x="798" y="-186" type="curve" smooth="yes"/>
      <point x="798" y="146" type="line"/>
      <point x="753" y="49"/>
      <point x="620" y="-22"/>
      <point x="512" y="-22" type="curve" smooth="yes"/>
      <point x="267" y="-22"/>
      <point x="95" y="204"/>
      <point x="95" y="439" type="curve" smooth="yes"/>
      <point x="95" y="759"/>
      <point x="290" y="924"/>
      <point x="556" y="924" type="curve" smooth="yes"/>
      <point x="672" y="924"/>
      <point x="782" y="885"/>
      <point x="872" y="831" type="curve"/>
      <point x="905" y="910"/>
      <point x="926" y="929"/>
      <point x="947" y="929" type="curve" smooth="yes"/>
      <point x="974" y="929"/>
      <point x="983" y="898"/>
      <point x="983" y="858" type="curve" smooth="yes"/>
      <point x="983" y="-138" type="line" smooth="yes"/>
      <point x="983" y="-250"/>
      <point x="1021" y="-309"/>
      <point x="1137" y="-329" type="curve"/>
      <point x="1137" y="-345"/>
      <point x="1135" y="-378"/>
      <point x="1135" y="-378" type="curve"/>
      <point x="618" y="-378" type="line"/>
      <point x="618" y="-378"/>
      <point x="616" y="-344"/>
      <point x="616" y="-329" type="curve"/>
      <point x="683" y="-305"/>
      <point x="798" y="-295"/>
    </contour>
    <contour>
      <point x="797" y="227" type="curve"/>
      <point x="797" y="624" type="line"/>
      <point x="780" y="759"/>
      <point x="693" y="859"/>
      <point x="536" y="859" type="curve" smooth="yes"/>
      <point x="371" y="859"/>
      <point x="276" y="708"/>
      <point x="276" y="502" type="curve" smooth="yes"/>
      <point x="276" y="264"/>
      <point x="397" y="104"/>
      <point x="554" y="104" type="curve" smooth="yes"/>
      <point x="635" y="104"/>
      <point x="729" y="118"/>
    </contour>
  </outline>
</glyph>
<glyph name="r" format="1">
  <advance width="878"/>
  <unicode hex="0072"/>
  <outline>
    <contour>
      <point x="422" y="646" type="curve"/>
      <point x="422" y="231" type="line" smooth="yes"/>
      <point x="422" y="161"/>
      <point x="430" y="60"/>
      <point x="603" y="50" type="curve"/>
      <point x="603" y="33"/>
      <point x="602" y="0"/>
      <point x="602" y="0" type="curve"/>
      <point x="81" y="0" type="line"/>
      <point x="81" y="0"/>
      <point x="81" y="23"/>
      <point x="81" y="39" type="curve" smooth="yes"/>
      <point x="81" y="47"/>
      <point x="81" y="53"/>
      <point x="81" y="54" type="curve"/>
      <point x="194" y="86"/>
      <point x="236" y="80"/>
      <point x="236" y="225" type="curve" smooth="yes"/>
      <point x="236" y="738" type="line"/>
      <point x="207" y="788"/>
      <point x="78" y="820"/>
      <point x="78" y="820" type="curve"/>
      <point x="80" y="855" type="line"/>
      <point x="346" y="924" type="line"/>
      <point x="403" y="926" type="line"/>
      <point x="419" y="717" type="line"/>
      <point x="496" y="858"/>
      <point x="574" y="921"/>
      <point x="674" y="921" type="curve" smooth="yes"/>
      <point x="757" y="921"/>
      <point x="817" y="867"/>
      <point x="817" y="794" type="curve" smooth="yes"/>
      <point x="817" y="732"/>
      <point x="786" y="692"/>
      <point x="730" y="692" type="curve" smooth="yes"/>
      <point x="642" y="692"/>
      <point x="647" y="807"/>
      <point x="585" y="807" type="curve" smooth="yes"/>
      <point x="509" y="807"/>
      <point x="468" y="722"/>
    </contour>
    <contour>
      <point x="400" y="899" type="move" name="top"/>
    </contour>
    <contour>
      <point x="400" y="0" type="move" name="bottom"/>
    </contour>
  </outline>
</glyph>
<glyph name="s" format="1">
  <advance width="791"/>
  <unicode hex="0073"/>
  <outline>
    <contour>
      <point x="650" y="853" type="curve"/>
      <point x="656" y="631" type="line"/>
      <point x="642" y="630"/>
      <point x="623" y="630"/>
      <point x="609" y="630" type="curve"/>
      <point x="575" y="750"/>
      <point x="503" y="859"/>
      <point x="372" y="859" type="curve" smooth="yes"/>
      <point x="291" y="859"/>
      <point x="236" y="819"/>
      <point x="236" y="738" type="curve" smooth="yes"/>
      <point x="236" y="634"/>
      <point x="386" y="575"/>
      <point x="505" y="512" type="curve" smooth="yes"/>
      <point x="647" y="436"/>
      <point x="720" y="361"/>
      <point x="720" y="237" type="curve" smooth="yes"/>
      <point x="720" y="67"/>
      <point x="584" y="-20"/>
      <point x="401" y="-20" type="curve" smooth="yes"/>
      <point x="292" y="-20"/>
      <point x="170" y="8"/>
      <point x="97" y="52" type="curve"/>
      <point x="97" y="296" type="line"/>
      <point x="128" y="300"/>
      <point x="139" y="301"/>
      <point x="150" y="301" type="curve"/>
      <point x="177" y="169"/>
      <point x="246" y="50"/>
      <point x="392" y="50" type="curve" smooth="yes"/>
      <point x="488" y="50"/>
      <point x="562" y="102"/>
      <point x="562" y="183" type="curve" smooth="yes"/>
      <point x="562" y="296"/>
      <point x="413" y="329"/>
      <point x="235" y="441" type="curve" smooth="yes"/>
      <point x="139" y="501"/>
      <point x="82" y="573"/>
      <point x="82" y="684" type="curve" smooth="yes"/>
      <point x="82" y="843"/>
      <point x="213" y="926"/>
      <point x="378" y="926" type="curve" smooth="yes"/>
      <point x="482" y="926"/>
      <point x="576" y="900"/>
    </contour>
    <contour>
      <point x="437" y="899" type="move" name="top"/>
    </contour>
    <contour>
      <point x="437" y="0" type="move" name="bottom"/>
    </contour>
  </outline>
</glyph>
<glyph name="t" format="1">
  <advance width="754"/>
  <unicode hex="0074"/>
  <outline>
    <contour>
      <point x="376" y="899" type="line"/>
      <point x="627" y="899" type="line"/>
      <point x="627" y="824" type="line"/>
      <point x="378" y="824" type="line"/>
      <point x="378" y="297" type="line" smooth="yes"/>
      <point x="378" y="118"/>
      <point x="431" y="86"/>
      <point x="521" y="86" type="curve" smooth="yes"/>
      <point x="560" y="86"/>
      <point x="623" y="108"/>
      <point x="651" y="120" type="curve"/>
      <point x="670" y="55" type="line"/>
      <point x="629" y="28"/>
      <point x="554" y="-20"/>
      <point x="444" y="-20" type="curve" smooth="yes"/>
      <point x="252" y="-20"/>
      <point x="192" y="66"/>
      <point x="192" y="317" type="curve" smooth="yes"/>
      <point x="192" y="824" type="line"/>
      <point x="42" y="824" type="line"/>
      <point x="42" y="859" type="line"/>
      <point x="186" y="917"/>
      <point x="241" y="1002"/>
      <point x="305" y="1101" type="curve" smooth="yes"/>
      <point x="330" y="1141"/>
      <point x="341" y="1149"/>
      <point x="353" y="1149" type="curve" smooth="yes"/>
      <point x="365" y="1149"/>
      <point x="376" y="1139"/>
      <point x="376" y="1110" type="curve" smooth="yes"/>
    </contour>
    <contour>
      <point x="328" y="450" type="move" name="center"/>
    </contour>
    <contour>
      <point x="328" y="0" type="move" name="bottom"/>
    </contour>
  </outline>
</glyph>
<glyph name="u" format="1">
  <advance width="1240"/>
  <unicode hex="0075"/>
  <outline>
    <contour>
      <point x="1165" y="32" type="curve"/>
      <point x="837" y="-15" type="line"/>
      <point x="829" y="145" type="line"/>
      <point x="724" y="28"/>
      <point x="611" y="-20"/>
      <point x="498" y="-20" type="curve" smooth="yes"/>
      <point x="241" y="-20"/>
      <point x="200" y="149"/>
      <point x="200" y="381" type="curve" smooth="yes"/>
      <point x="200" y="735" type="line"/>
      <point x="170" y="786"/>
      <point x="41" y="819"/>
      <point x="41" y="819" type="curve"/>
      <point x="43" y="854" type="line"/>
      <point x="324" y="922" type="line"/>
      <point x="386" y="926" type="line"/>
      <point x="386" y="440" type="line" smooth="yes"/>
      <point x="386" y="190"/>
      <point x="427" y="98"/>
      <point x="562" y="98" type="curve" smooth="yes"/>
      <point x="651" y="98"/>
      <point x="737" y="134"/>
      <point x="824" y="220" type="curve"/>
      <point x="824" y="735" type="line"/>
      <point x="794" y="786"/>
      <point x="665" y="819"/>
      <point x="665" y="819" type="curve"/>
      <point x="667" y="854" type="line"/>
      <point x="948" y="922" type="line"/>
      <point x="1010" y="926" type="line"/>
      <point x="1010" y="201" type="line" smooth="yes"/>
      <point x="1010" y="112"/>
      <point x="1087" y="99"/>
      <point x="1168" y="85" type="curve"/>
      <point x="1168" y="68"/>
      <point x="1165" y="32"/>
    </contour>
    <contour>
      <point x="560" y="899" type="move" name="top"/>
    </contour>
    <contour>
      <point x="1036" y="10" type="move" name="ogonek"/>
    </contour>
  </outline>
</glyph>
<glyph name="v" format="1">
  <advance width="1089"/>
  <unicode hex="0076"/>
  <outline>
    <contour>
      <point x="871" y="706" type="curve" smooth="yes"/>
      <point x="561" y="-12" type="line"/>
      <point x="553" y="-16"/>
      <point x="543" y="-18"/>
      <point x="531" y="-18" type="curve" smooth="yes"/>
      <point x="518" y="-18"/>
      <point x="508" y="-16"/>
      <point x="501" y="-12" type="curve"/>
      <point x="195" y="724" type="line" smooth="yes"/>
      <point x="147" y="840"/>
      <point x="127" y="813"/>
      <point x="54" y="847" type="curve"/>
      <point x="54" y="899" type="line"/>
      <point x="504" y="899" type="line"/>
      <point x="505" y="882"/>
      <point x="509" y="860"/>
      <point x="509" y="845" type="curve"/>
      <point x="442" y="827"/>
      <point x="380" y="810"/>
      <point x="380" y="760" type="curve" smooth="yes"/>
      <point x="380" y="752"/>
      <point x="382" y="743"/>
      <point x="385" y="733" type="curve"/>
      <point x="589" y="230" type="line"/>
      <point x="761" y="649" type="line" smooth="yes"/>
      <point x="776" y="686"/>
      <point x="789" y="728"/>
      <point x="789" y="755" type="curve"/>
      <point x="785" y="805"/>
      <point x="738" y="824"/>
      <point x="659" y="843" type="curve"/>
      <point x="658" y="849"/>
      <point x="658" y="858"/>
      <point x="658" y="866" type="curve" smooth="yes"/>
      <point x="658" y="883"/>
      <point x="659" y="899"/>
      <point x="659" y="899" type="curve"/>
      <point x="1031" y="899" type="line"/>
      <point x="1033" y="882"/>
      <point x="1033" y="866"/>
      <point x="1033" y="848" type="curve"/>
      <point x="986" y="818"/>
      <point x="922" y="821"/>
    </contour>
  </outline>
</glyph>
<glyph name="w" format="1">
  <advance width="1549"/>
  <unicode hex="0077"/>
  <outline>
    <contour>
      <point x="375" y="726" type="curve"/>
      <point x="375" y="723"/>
      <point x="375" y="722"/>
      <point x="376" y="719" type="curve" smooth="yes"/>
      <point x="561" y="243" type="line"/>
      <point x="744" y="688" type="line"/>
      <point x="721" y="769"/>
      <point x="670" y="846"/>
      <point x="576" y="851" type="curve"/>
      <point x="578" y="899" type="line"/>
      <point x="1020" y="899" type="line"/>
      <point x="1021" y="882"/>
      <point x="1022" y="867"/>
      <point x="1022" y="851" type="curve"/>
      <point x="972" y="827"/>
      <point x="907" y="825"/>
      <point x="907" y="768" type="curve" smooth="yes"/>
      <point x="907" y="749"/>
      <point x="915" y="725"/>
      <point x="925" y="698" type="curve" smooth="yes"/>
      <point x="1088" y="251" type="line"/>
      <point x="1244" y="672" type="line" smooth="yes"/>
      <point x="1254" y="698"/>
      <point x="1263" y="727"/>
      <point x="1263" y="754" type="curve" smooth="yes"/>
      <point x="1263" y="830"/>
      <point x="1219" y="825"/>
      <point x="1142" y="848" type="curve"/>
      <point x="1141" y="855"/>
      <point x="1140" y="863"/>
      <point x="1140" y="872" type="curve" smooth="yes"/>
      <point x="1140" y="881"/>
      <point x="1141" y="890"/>
      <point x="1142" y="899" type="curve"/>
      <point x="1493" y="899" type="line"/>
      <point x="1493" y="846" type="line"/>
      <point x="1434" y="838"/>
      <point x="1355" y="768"/>
      <point x="1335" y="714" type="curve" smooth="yes"/>
      <point x="1065" y="-14" type="line"/>
      <point x="1058" y="-18"/>
      <point x="1048" y="-20"/>
      <point x="1035" y="-20" type="curve" smooth="yes"/>
      <point x="1022" y="-20"/>
      <point x="1012" y="-18"/>
      <point x="1004" y="-14" type="curve"/>
      <point x="777" y="596" type="line"/>
      <point x="536" y="-14" type="line"/>
      <point x="528" y="-18"/>
      <point x="518" y="-20"/>
      <point x="505" y="-20" type="curve" smooth="yes"/>
      <point x="491" y="-20"/>
      <point x="480" y="-18"/>
      <point x="473" y="-14" type="curve"/>
      <point x="194" y="699" type="line" smooth="yes"/>
      <point x="163" y="778"/>
      <point x="140" y="832"/>
      <point x="56" y="850" type="curve"/>
      <point x="58" y="899" type="line"/>
      <point x="470" y="899" type="line"/>
      <point x="471" y="882"/>
      <point x="471" y="867"/>
      <point x="471" y="851" type="curve"/>
      <point x="421" y="834"/>
      <point x="370" y="813"/>
      <point x="370" y="758" type="curve" smooth="yes"/>
      <point x="370" y="749"/>
      <point x="371" y="738"/>
    </contour>
    <contour>
      <point x="715" y="899" type="move" name="top"/>
    </contour>
  </outline>
</glyph>
<glyph name="x" format="1">
  <advance width="1147"/>
  <unicode hex="0078"/>
  <outline>
    <contour>
      <point x="247" y="152" type="curve" smooth="yes"/>
      <point x="494" y="431" type="line"/>
      <point x="227" y="772" type="line" smooth="yes"/>
      <point x="189" y="821"/>
      <point x="128" y="836"/>
      <point x="98" y="851" type="curve"/>
      <point x="98" y="866"/>
      <point x="99" y="899"/>
      <point x="99" y="899" type="curve"/>
      <point x="542" y="899" type="line"/>
      <point x="542" y="899"/>
      <point x="543" y="866"/>
      <point x="543" y="851" type="curve"/>
      <point x="494" y="836"/>
      <point x="455" y="811"/>
      <point x="455" y="779" type="curve" smooth="yes"/>
      <point x="455" y="768"/>
      <point x="459" y="761"/>
      <point x="464" y="748" type="curve"/>
      <point x="604" y="561" type="line"/>
      <point x="726" y="710" type="line" smooth="yes"/>
      <point x="747" y="736"/>
      <point x="757" y="756"/>
      <point x="757" y="774" type="curve" smooth="yes"/>
      <point x="757" y="809"/>
      <point x="716" y="839"/>
      <point x="656" y="848" type="curve"/>
      <point x="656" y="899" type="line"/>
      <point x="1026" y="899" type="line"/>
      <point x="1026" y="899"/>
      <point x="1027" y="866"/>
      <point x="1027" y="850" type="curve"/>
      <point x="986" y="833"/>
      <point x="913" y="819"/>
      <point x="859" y="753" type="curve" smooth="yes"/>
      <point x="653" y="501" type="line"/>
      <point x="923" y="159" type="line" smooth="yes"/>
      <point x="982" y="84"/>
      <point x="1005" y="75"/>
      <point x="1078" y="47" type="curve"/>
      <point x="1078" y="33"/>
      <point x="1076" y="0"/>
      <point x="1076" y="0" type="curve"/>
      <point x="599" y="0" type="line"/>
      <point x="599" y="0"/>
      <point x="598" y="32"/>
      <point x="598" y="48" type="curve"/>
      <point x="642" y="71"/>
      <point x="716" y="75"/>
      <point x="716" y="115" type="curve" smooth="yes"/>
      <point x="716" y="129"/>
      <point x="708" y="146"/>
      <point x="691" y="165" type="curve"/>
      <point x="535" y="376" type="line"/>
      <point x="399" y="225" type="line" smooth="yes"/>
      <point x="369" y="192"/>
      <point x="343" y="143"/>
      <point x="343" y="113" type="curve" smooth="yes"/>
      <point x="343" y="77"/>
      <point x="399" y="63"/>
      <point x="458" y="51" type="curve"/>
      <point x="459" y="45"/>
      <point x="459" y="38"/>
      <point x="459" y="30" type="curve" smooth="yes"/>
      <point x="459" y="15"/>
      <point x="458" y="0"/>
      <point x="458" y="0" type="curve"/>
      <point x="75" y="0" type="line"/>
      <point x="75" y="0"/>
      <point x="73" y="31"/>
      <point x="73" y="48" type="curve"/>
      <point x="107" y="67"/>
      <point x="190" y="87"/>
    </contour>
  </outline>
</glyph>
<glyph name="y" format="1">
  <advance width="1094"/>
  <unicode hex="0079"/>
  <outline>
    <contour>
      <point x="527" y="0" type="curve"/>
      <point x="215" y="712" type="line" smooth="yes"/>
      <point x="151" y="857"/>
      <point x="103" y="831"/>
      <point x="57" y="847" type="curve"/>
      <point x="57" y="899" type="line"/>
      <point x="526" y="899" type="line"/>
      <point x="526" y="899"/>
      <point x="537" y="843"/>
      <point x="531" y="842" type="curve" smooth="yes"/>
      <point x="457" y="828"/>
      <point x="403" y="814"/>
      <point x="403" y="767" type="curve" smooth="yes"/>
      <point x="403" y="753"/>
      <point x="409" y="727"/>
      <point x="416" y="705" type="curve"/>
      <point x="614" y="212" type="line"/>
      <point x="785" y="675" type="line" smooth="yes"/>
      <point x="795" y="701"/>
      <point x="800" y="723"/>
      <point x="800" y="743" type="curve" smooth="yes"/>
      <point x="800" y="801"/>
      <point x="759" y="828"/>
      <point x="670" y="843" type="curve"/>
      <point x="669" y="849"/>
      <point x="669" y="858"/>
      <point x="669" y="866" type="curve" smooth="yes"/>
      <point x="669" y="883"/>
      <point x="670" y="899"/>
      <point x="670" y="899" type="curve"/>
      <point x="1037" y="899" type="line"/>
      <point x="1037" y="899"/>
      <point x="1038" y="866"/>
      <point x="1038" y="848" type="curve"/>
      <point x="993" y="812"/>
      <point x="923" y="827"/>
      <point x="889" y="707" type="curve"/>
      <point x="534" y="-167" type="line" smooth="yes"/>
      <point x="480" y="-301"/>
      <point x="408" y="-395"/>
      <point x="276" y="-395" type="curve" smooth="yes"/>
      <point x="188" y="-395"/>
      <point x="122" y="-351"/>
      <point x="122" y="-279" type="curve" smooth="yes"/>
      <point x="122" y="-226"/>
      <point x="165" y="-186"/>
      <point x="216" y="-186" type="curve" smooth="yes"/>
      <point x="218" y="-186"/>
      <point x="221" y="-186"/>
      <point x="223" y="-186" type="curve"/>
      <point x="310" y="-192"/>
      <point x="295" y="-271"/>
      <point x="359" y="-271" type="curve" smooth="yes"/>
      <point x="425" y="-271"/>
      <point x="461" y="-171"/>
    </contour>
    <contour>
      <point x="500" y="899" type="move" name="top"/>
    </contour>
  </outline>
</glyph>
<glyph name="z" format="1">
  <advance width="961"/>
  <unicode hex="007A"/>
  <outline>
    <contour>
      <point x="861" y="895" type="curve"/>
      <point x="861" y="840" type="line"/>
      <point x="331" y="60" type="line"/>
      <point x="515" y="60" type="line" smooth="yes"/>
      <point x="580" y="60"/>
      <point x="635" y="71"/>
      <point x="686" y="86" type="curve" smooth="yes"/>
      <point x="763" y="109"/>
      <point x="785" y="232"/>
      <point x="832" y="279" type="curve"/>
      <point x="849" y="279"/>
      <point x="866" y="277"/>
      <point x="883" y="277" type="curve"/>
      <point x="854" y="-11" type="line"/>
      <point x="854" y="-11"/>
      <point x="729" y="0"/>
      <point x="695" y="0" type="curve" smooth="yes"/>
      <point x="97" y="0" type="line"/>
      <point x="83" y="33" type="line"/>
      <point x="645" y="838" type="line"/>
      <point x="481" y="838" type="line" smooth="yes"/>
      <point x="437" y="838"/>
      <point x="394" y="838"/>
      <point x="356" y="829" type="curve"/>
      <point x="266" y="818"/>
      <point x="230" y="707"/>
      <point x="167" y="662" type="curve"/>
      <point x="122" y="664" type="line"/>
      <point x="143" y="925" type="line"/>
      <point x="212" y="899"/>
      <point x="268" y="899"/>
      <point x="310" y="899" type="curve" smooth="yes"/>
      <point x="806" y="899" type="line"/>
      <point x="825" y="898"/>
      <point x="860" y="895"/>
    </contour>
    <contour>
      <point x="475" y="899" type="move" name="top"/>
    </contour>
  </outline>
</glyph>
<glyph name="braceleft" format="1">
  <advance width="643"/>
  <unicode hex="007B"/>
  <outline>
    <contour>
      <point x="55" y="619" type="curve"/>
      <point x="55" y="637"/>
      <point x="61" y="657"/>
      <point x="77" y="667" type="curve"/>
      <point x="196" y="677"/>
      <point x="267" y="752"/>
      <point x="267" y="871" type="curve" smooth="yes"/>
      <point x="267" y="967"/>
      <point x="239" y="1061"/>
      <point x="239" y="1157" type="curve" smooth="yes"/>
      <point x="239" y="1372"/>
      <point x="382" y="1484"/>
      <point x="588" y="1497" type="curve"/>
      <point x="591" y="1488"/>
      <point x="593" y="1477"/>
      <point x="593" y="1467" type="curve" smooth="yes"/>
      <point x="593" y="1458"/>
      <point x="591" y="1448"/>
      <point x="588" y="1440" type="curve"/>
      <point x="479" y="1425"/>
      <point x="396" y="1382"/>
      <point x="396" y="1261" type="curve" smooth="yes"/>
      <point x="396" y="1162"/>
      <point x="438" y="1067"/>
      <point x="438" y="967" type="curve" smooth="yes"/>
      <point x="438" y="794"/>
      <point x="327" y="680"/>
      <point x="168" y="632" type="curve"/>
      <point x="326" y="585"/>
      <point x="438" y="468"/>
      <point x="438" y="297" type="curve" smooth="yes"/>
      <point x="438" y="194"/>
      <point x="394" y="97"/>
      <point x="394" y="-4" type="curve" smooth="yes"/>
      <point x="394" y="-117"/>
      <point x="490" y="-160"/>
      <point x="588" y="-176" type="curve"/>
      <point x="593" y="-184"/>
      <point x="596" y="-194"/>
      <point x="596" y="-205" type="curve" smooth="yes"/>
      <point x="596" y="-215"/>
      <point x="593" y="-225"/>
      <point x="588" y="-233" type="curve"/>
      <point x="371" y="-220"/>
      <point x="240" y="-101"/>
      <point x="240" y="120" type="curve" smooth="yes"/>
      <point x="240" y="216"/>
      <point x="265" y="310"/>
      <point x="265" y="406" type="curve" smooth="yes"/>
      <point x="265" y="583"/>
      <point x="152" y="547"/>
    </contour>
  </outline>
</glyph>
<glyph name="bar" format="1">
  <advance width="319"/>
  <unicode hex="007C"/>
  <outline>
    <contour>
      <point x="217" y="1244" type="curve" smooth="yes"/>
      <point x="217" y="-88" type="line" smooth="yes"/>
      <point x="217" y="-164"/>
      <point x="216" y="-244"/>
      <point x="186" y="-315" type="curve"/>
      <point x="153" y="-314"/>
      <point x="130" y="-301"/>
      <point x="102" y="-283" type="curve"/>
      <point x="102" y="1431" type="line"/>
      <point x="120" y="1457"/>
      <point x="151" y="1467"/>
      <point x="182" y="1467" type="curve" smooth="yes"/>
      <point x="186" y="1467" type="line"/>
      <point x="204" y="1395"/>
      <point x="217" y="1319"/>
    </contour>
  </outline>
</glyph>
<glyph name="braceright" format="1">
  <advance width="642"/>
  <unicode hex="007D"/>
  <outline>
    <contour>
      <point x="561" y="667" type="curve"/>
      <point x="577" y="657"/>
      <point x="584" y="637"/>
      <point x="584" y="619" type="curve"/>
      <point x="477" y="548"/>
      <point x="371" y="580"/>
      <point x="371" y="399" type="curve" smooth="yes"/>
      <point x="371" y="307"/>
      <point x="398" y="218"/>
      <point x="398" y="127" type="curve" smooth="yes"/>
      <point x="398" y="-97"/>
      <point x="273" y="-219"/>
      <point x="51" y="-233" type="curve"/>
      <point x="46" y="-228"/>
      <point x="43" y="-219"/>
      <point x="43" y="-212" type="curve" smooth="yes"/>
      <point x="43" y="-199"/>
      <point x="43" y="-187"/>
      <point x="51" y="-176" type="curve"/>
      <point x="150" y="-161"/>
      <point x="244" y="-117"/>
      <point x="244" y="-4" type="curve" smooth="yes"/>
      <point x="244" y="97"/>
      <point x="200" y="194"/>
      <point x="200" y="297" type="curve" smooth="yes"/>
      <point x="200" y="468"/>
      <point x="312" y="585"/>
      <point x="470" y="632" type="curve"/>
      <point x="310" y="679"/>
      <point x="200" y="795"/>
      <point x="200" y="967" type="curve" smooth="yes"/>
      <point x="200" y="1067"/>
      <point x="242" y="1162"/>
      <point x="242" y="1261" type="curve" smooth="yes"/>
      <point x="242" y="1380"/>
      <point x="159" y="1425"/>
      <point x="51" y="1440" type="curve"/>
      <point x="47" y="1448"/>
      <point x="45" y="1458"/>
      <point x="45" y="1467" type="curve" smooth="yes"/>
      <point x="45" y="1477"/>
      <point x="48" y="1488"/>
      <point x="51" y="1497" type="curve"/>
      <point x="256" y="1484"/>
      <point x="399" y="1372"/>
      <point x="399" y="1157" type="curve" smooth="yes"/>
      <point x="399" y="1059"/>
      <point x="371" y="964"/>
      <point x="371" y="866" type="curve" smooth="yes"/>
      <point x="371" y="748"/>
      <point x="445" y="676"/>
    </contour>
  </outline>
</glyph>
<glyph name="asciitilde" format="1">
  <advance width="969"/>
  <unicode hex="007E"/>
  <outline>
    <contour>
      <point x="812" y="846" type="curve"/>
      <point x="901" y="846" type="line"/>
      <point x="901" y="691"/>
      <point x="834" y="583"/>
      <point x="700" y="583" type="curve" smooth="yes"/>
      <point x="538" y="583"/>
      <point x="379" y="713"/>
      <point x="269" y="713" type="curve" smooth="yes"/>
      <point x="196" y="713"/>
      <point x="160" y="665"/>
      <point x="152" y="596" type="curve"/>
      <point x="61" y="596" type="line"/>
      <point x="73" y="731"/>
      <point x="125" y="851"/>
      <point x="278" y="851" type="curve" smooth="yes"/>
      <point x="420" y="851"/>
      <point x="593" y="718"/>
      <point x="697" y="718" type="curve" smooth="yes"/>
      <point x="779" y="718"/>
      <point x="809" y="770"/>
    </contour>
  </outline>
</glyph>
<glyph name="exclamdown" format="1">
  <advance width="431"/>
  <unicode hex="00A1"/>
  <outline>
    <contour>
      <point x="97" y="1191" type="curve" smooth="yes"/>
      <point x="97" y="1258"/>
      <point x="151" y="1312"/>
      <point x="218" y="1312" type="curve" smooth="yes"/>
      <point x="285" y="1312"/>
      <point x="342" y="1259"/>
      <point x="342" y="1191" type="curve" smooth="yes"/>
      <point x="342" y="1123"/>
      <point x="286" y="1067"/>
      <point x="218" y="1067" type="curve" smooth="yes"/>
      <point x="150" y="1067"/>
      <point x="97" y="1124"/>
    </contour>
    <contour>
      <point x="214" y="-29" type="curve" smooth="yes"/>
      <point x="137" y="-29"/>
      <point x="88" y="0"/>
      <point x="88" y="82" type="curve" smooth="yes"/>
      <point x="88" y="274"/>
      <point x="158" y="639"/>
      <point x="183" y="833" type="curve" smooth="yes"/>
      <point x="186" y="856"/>
      <point x="184" y="927"/>
      <point x="218" y="927" type="curve" smooth="yes"/>
      <point x="247" y="927"/>
      <point x="249" y="836"/>
      <point x="252" y="817" type="curve" smooth="yes"/>
      <point x="279" y="636"/>
      <point x="344" y="260"/>
      <point x="344" y="84" type="curve" smooth="yes"/>
      <point x="344" y="5"/>
      <point x="287" y="-29"/>
    </contour>
  </outline>
</glyph>
<glyph name="cent" format="1">
  <advance width="954"/>
  <unicode hex="00A2"/>
  <outline>
    <contour>
      <point x="339" y="-201" type="curve"/>
      <point x="391" y="6" type="line"/>
      <point x="197" y="56"/>
      <point x="68" y="224"/>
      <point x="68" y="447" type="curve" smooth="yes"/>
      <point x="68" y="676"/>
      <point x="227" y="923"/>
      <point x="539" y="923" type="curve" smooth="yes"/>
      <point x="549" y="923"/>
      <point x="559" y="922"/>
      <point x="570" y="922" type="curve"/>
      <point x="600" y="1107" type="line" smooth="yes"/>
      <point x="608" y="1157"/>
      <point x="629" y="1196"/>
      <point x="647" y="1223" type="curve"/>
      <point x="663" y="1223"/>
      <point x="680" y="1223"/>
      <point x="698" y="1221" type="curve"/>
      <point x="697" y="1187"/>
      <point x="696" y="1158"/>
      <point x="686" y="1097" type="curve" smooth="yes"/>
      <point x="657" y="916" type="line"/>
      <point x="787" y="896"/>
      <point x="876" y="832"/>
      <point x="876" y="735" type="curve" smooth="yes"/>
      <point x="876" y="675"/>
      <point x="834" y="639"/>
      <point x="787" y="639" type="curve" smooth="yes"/>
      <point x="665" y="639"/>
      <point x="761" y="775"/>
      <point x="634" y="830" type="curve"/>
      <point x="506" y="139" type="line"/>
      <point x="543" y="126"/>
      <point x="575" y="122"/>
      <point x="611" y="122" type="curve" smooth="yes"/>
      <point x="701" y="122"/>
      <point x="777" y="155"/>
      <point x="834" y="212" type="curve"/>
      <point x="847" y="206"/>
      <point x="857" y="198"/>
      <point x="866" y="189" type="curve"/>
      <point x="862" y="173"/>
      <point x="856" y="158"/>
      <point x="850" y="142" type="curve" smooth="yes"/>
      <point x="815" y="50"/>
      <point x="665" y="-16"/>
      <point x="547" y="-19" type="curve"/>
      <point x="522" y="-26"/>
      <point x="501" y="-29"/>
      <point x="479" y="-29" type="curve" smooth="yes"/>
      <point x="470" y="-29" type="line"/>
      <point x="455" y="-157"/>
      <point x="432" y="-209"/>
      <point x="405" y="-253" type="curve"/>
      <point x="378" y="-253"/>
      <point x="354" y="-244"/>
    </contour>
    <contour>
      <point x="428" y="165" type="curve"/>
      <point x="554" y="846" type="line"/>
      <point x="396" y="846"/>
      <point x="254" y="742"/>
      <point x="254" y="516" type="curve" smooth="yes"/>
      <point x="254" y="332"/>
      <point x="311" y="222"/>
    </contour>
  </outline>
</glyph>
<glyph name="sterling" format="1">
  <advance width="1041"/>
  <unicode hex="00A3"/>
  <outline>
    <contour>
      <point x="252" y="64" type="curve" smooth="yes"/>
      <point x="302" y="64"/>
      <point x="344" y="102"/>
      <point x="363" y="146" type="curve"/>
      <point x="326" y="167"/>
      <point x="275" y="196"/>
      <point x="231" y="196" type="curve" smooth="yes"/>
      <point x="203" y="196"/>
      <point x="179" y="178"/>
      <point x="179" y="149" type="curve" smooth="yes"/>
      <point x="179" y="103"/>
      <point x="202" y="64"/>
    </contour>
    <contour>
      <point x="733" y="565" type="curve"/>
      <point x="505" y="565" type="line"/>
      <point x="520" y="350" type="line"/>
      <point x="520" y="321"/>
      <point x="507" y="256"/>
      <point x="500" y="233" type="curve"/>
      <point x="569" y="204"/>
      <point x="673" y="151"/>
      <point x="747" y="151" type="curve" smooth="yes"/>
      <point x="904" y="151"/>
      <point x="916" y="303"/>
      <point x="950" y="303" type="curve" smooth="yes"/>
      <point x="956" y="303"/>
      <point x="964" y="300"/>
      <point x="969" y="298" type="curve"/>
      <point x="957" y="145"/>
      <point x="950" y="-20"/>
      <point x="750" y="-20" type="curve" smooth="yes"/>
      <point x="641" y="-20"/>
      <point x="531" y="46"/>
      <point x="440" y="100" type="curve"/>
      <point x="393" y="32"/>
      <point x="320" y="-20"/>
      <point x="235" y="-20" type="curve" smooth="yes"/>
      <point x="138" y="-20"/>
      <point x="69" y="56"/>
      <point x="69" y="151" type="curve" smooth="yes"/>
      <point x="69" y="248"/>
      <point x="140" y="301"/>
      <point x="233" y="301" type="curve" smooth="yes"/>
      <point x="280" y="301"/>
      <point x="326" y="292"/>
      <point x="371" y="279" type="curve"/>
      <point x="306" y="565" type="line"/>
      <point x="297" y="565"/>
      <point x="284" y="564"/>
      <point x="269" y="564" type="curve" smooth="yes"/>
      <point x="222" y="564"/>
      <point x="157" y="570"/>
      <point x="157" y="612" type="curve" smooth="yes"/>
      <point x="157" y="652"/>
      <point x="212" y="658"/>
      <point x="254" y="658" type="curve" smooth="yes"/>
      <point x="268" y="658"/>
      <point x="280" y="657"/>
      <point x="289" y="657" type="curve"/>
      <point x="286" y="723"/>
      <point x="279" y="790"/>
      <point x="279" y="856" type="curve" smooth="yes"/>
      <point x="279" y="1070"/>
      <point x="446" y="1201"/>
      <point x="651" y="1201" type="curve" smooth="yes"/>
      <point x="775" y="1201"/>
      <point x="931" y="1142"/>
      <point x="931" y="996" type="curve" smooth="yes"/>
      <point x="931" y="926"/>
      <point x="879" y="892"/>
      <point x="828" y="892" type="curve" smooth="yes"/>
      <point x="781" y="892"/>
      <point x="736" y="921"/>
      <point x="736" y="979" type="curve" smooth="yes"/>
      <point x="736" y="1009"/>
      <point x="756" y="1034"/>
      <point x="756" y="1062" type="curve" smooth="yes"/>
      <point x="756" y="1116"/>
      <point x="715" y="1155"/>
      <point x="662" y="1155" type="curve" smooth="yes"/>
      <point x="530" y="1155"/>
      <point x="494" y="979"/>
      <point x="494" y="878" type="curve" smooth="yes"/>
      <point x="494" y="804"/>
      <point x="501" y="730"/>
      <point x="505" y="657" type="curve"/>
      <point x="733" y="657" type="line"/>
      <point x="738" y="641"/>
      <point x="739" y="624"/>
      <point x="739" y="607" type="curve" smooth="yes"/>
      <point x="739" y="587"/>
      <point x="738" y="573"/>
    </contour>
  </outline>
</glyph>
<glyph name="currency" format="1">
  <advance width="1054"/>
  <unicode hex="00A4"/>
  <outline>
    <contour>
      <point x="749" y="1044" type="curve"/>
      <point x="792" y="1098"/>
      <point x="829" y="1157"/>
      <point x="889" y="1194" type="curve"/>
      <point x="923" y="1173"/>
      <point x="951" y="1143"/>
      <point x="971" y="1109" type="curve"/>
      <point x="937" y="1055"/>
      <point x="886" y="1007"/>
      <point x="844" y="959" type="curve"/>
      <point x="900" y="887"/>
      <point x="930" y="806"/>
      <point x="930" y="714" type="curve" smooth="yes"/>
      <point x="930" y="621"/>
      <point x="902" y="544"/>
      <point x="846" y="470" type="curve"/>
      <point x="887" y="421"/>
      <point x="947" y="373"/>
      <point x="978" y="318" type="curve"/>
      <point x="955" y="286"/>
      <point x="925" y="258"/>
      <point x="891" y="238" type="curve"/>
      <point x="843" y="267"/>
      <point x="790" y="340"/>
      <point x="754" y="384" type="curve"/>
      <point x="686" y="340"/>
      <point x="609" y="318"/>
      <point x="528" y="318" type="curve" smooth="yes"/>
      <point x="449" y="318"/>
      <point x="373" y="341"/>
      <point x="305" y="382" type="curve"/>
      <point x="261" y="327"/>
      <point x="225" y="268"/>
      <point x="163" y="233" type="curve"/>
      <point x="130" y="255"/>
      <point x="101" y="283"/>
      <point x="81" y="317" type="curve"/>
      <point x="117" y="371"/>
      <point x="166" y="419"/>
      <point x="209" y="467" type="curve"/>
      <point x="152" y="541"/>
      <point x="123" y="619"/>
      <point x="123" y="713" type="curve" smooth="yes"/>
      <point x="123" y="805"/>
      <point x="152" y="885"/>
      <point x="207" y="958" type="curve"/>
      <point x="166" y="1007"/>
      <point x="106" y="1055"/>
      <point x="74" y="1110" type="curve"/>
      <point x="98" y="1141"/>
      <point x="128" y="1170"/>
      <point x="162" y="1190" type="curve"/>
      <point x="212" y="1160"/>
      <point x="265" y="1087"/>
      <point x="301" y="1042" type="curve"/>
      <point x="369" y="1084"/>
      <point x="446" y="1109"/>
      <point x="526" y="1109" type="curve" smooth="yes"/>
      <point x="607" y="1109"/>
      <point x="680" y="1087"/>
    </contour>
    <contour>
      <point x="263" y="721" type="curve" smooth="yes"/>
      <point x="263" y="568"/>
      <point x="369" y="445"/>
      <point x="526" y="445" type="curve" smooth="yes"/>
      <point x="670" y="445"/>
      <point x="789" y="562"/>
      <point x="789" y="707" type="curve" smooth="yes"/>
      <point x="789" y="859"/>
      <point x="682" y="983"/>
      <point x="526" y="983" type="curve" smooth="yes"/>
      <point x="382" y="983"/>
      <point x="263" y="865"/>
    </contour>
  </outline>
</glyph>
<glyph name="brokenbar" format="1">
  <advance width="317"/>
  <unicode hex="00A6"/>
  <outline>
    <contour>
      <point x="99" y="1010" type="curve" smooth="yes"/>
      <point x="99" y="1343" type="line"/>
      <point x="116" y="1371"/>
      <point x="151" y="1379"/>
      <point x="182" y="1379" type="curve"/>
      <point x="200" y="1335"/>
      <point x="214" y="1296"/>
      <point x="214" y="1247" type="curve" smooth="yes"/>
      <point x="214" y="739" type="line"/>
      <point x="189" y="717"/>
      <point x="165" y="707"/>
      <point x="131" y="707" type="curve"/>
      <point x="101" y="793"/>
      <point x="99" y="911"/>
    </contour>
    <contour>
      <point x="99" y="-197" type="curve"/>
      <point x="99" y="407" type="line"/>
      <point x="116" y="435"/>
      <point x="151" y="443"/>
      <point x="182" y="443" type="curve"/>
      <point x="214" y="382"/>
      <point x="221" y="282"/>
      <point x="221" y="183" type="curve" smooth="yes"/>
      <point x="221" y="111"/>
      <point x="217" y="40"/>
      <point x="217" y="-17" type="curve" smooth="yes"/>
      <point x="217" y="-82"/>
      <point x="216" y="-172"/>
      <point x="182" y="-229" type="curve"/>
      <point x="142" y="-229"/>
      <point x="132" y="-213"/>
    </contour>
  </outline>
</glyph>
<glyph name="section" format="1">
  <advance width="806"/>
  <unicode hex="00A7"/>
  <outline>
    <contour>
      <point x="176" y="1073" type="curve"/>
      <point x="166" y="1098"/>
      <point x="162" y="1125"/>
      <point x="162" y="1152" type="curve" smooth="yes"/>
      <point x="162" y="1285"/>
      <point x="274" y="1360"/>
      <point x="398" y="1360" type="curve" smooth="yes"/>
      <point x="510" y="1360"/>
      <point x="708" y="1331"/>
      <point x="708" y="1181" type="curve" smooth="yes"/>
      <point x="708" y="1150"/>
      <point x="668" y="1134"/>
      <point x="643" y="1134" type="curve" smooth="yes"/>
      <point x="575" y="1134"/>
      <point x="510" y="1296"/>
      <point x="394" y="1296" type="curve" smooth="yes"/>
      <point x="322" y="1296"/>
      <point x="242" y="1262"/>
      <point x="242" y="1179" type="curve" smooth="yes"/>
      <point x="242" y="997"/>
      <point x="725" y="830"/>
      <point x="725" y="381" type="curve" smooth="yes"/>
      <point x="725" y="274"/>
      <point x="692" y="169"/>
      <point x="639" y="76" type="curve"/>
      <point x="654" y="46"/>
      <point x="664" y="13"/>
      <point x="664" y="-21" type="curve" smooth="yes"/>
      <point x="664" y="-152"/>
      <point x="529" y="-222"/>
      <point x="413" y="-222" type="curve" smooth="yes"/>
      <point x="297" y="-222"/>
      <point x="86" y="-187"/>
      <point x="86" y="-34" type="curve" smooth="yes"/>
      <point x="86" y="8"/>
      <point x="116" y="31"/>
      <point x="156" y="31" type="curve" smooth="yes"/>
      <point x="253" y="31"/>
      <point x="193" y="-149"/>
      <point x="410" y="-149" type="curve" smooth="yes"/>
      <point x="484" y="-149"/>
      <point x="586" y="-121"/>
      <point x="586" y="-30" type="curve" smooth="yes"/>
      <point x="586" y="203"/>
      <point x="93" y="344"/>
      <point x="93" y="757" type="curve" smooth="yes"/>
      <point x="93" y="867"/>
      <point x="126" y="975"/>
    </contour>
    <contour>
      <point x="215" y="1043" type="curve"/>
      <point x="184" y="997"/>
      <point x="168" y="928"/>
      <point x="168" y="872" type="curve" smooth="yes"/>
      <point x="168" y="517"/>
      <point x="494" y="390"/>
      <point x="605" y="110" type="curve"/>
      <point x="607" y="107" type="line"/>
      <point x="630" y="153"/>
      <point x="640" y="204"/>
      <point x="640" y="255" type="curve" smooth="yes"/>
      <point x="640" y="523"/>
      <point x="384" y="846"/>
    </contour>
  </outline>
</glyph>
<glyph name="copyright" format="1">
  <advance width="1503"/>
  <unicode hex="00A9"/>
  <outline>
    <contour>
      <point x="1012" y="1080" type="curve"/>
      <point x="1076" y="1080" type="line"/>
      <point x="1097" y="840" type="line"/>
      <point x="1085" y="838"/>
      <point x="1077" y="838"/>
      <point x="1067" y="838" type="curve"/>
      <point x="1018" y="972"/>
      <point x="929" y="1055"/>
      <point x="771" y="1055" type="curve" smooth="yes"/>
      <point x="590" y="1055"/>
      <point x="467" y="901"/>
      <point x="467" y="678" type="curve" smooth="yes"/>
      <point x="467" y="424"/>
      <point x="590" y="282"/>
      <point x="797" y="282" type="curve" smooth="yes"/>
      <point x="928" y="282"/>
      <point x="998" y="322"/>
      <point x="1084" y="392" type="curve"/>
      <point x="1094" y="389"/>
      <point x="1103" y="382"/>
      <point x="1110" y="376" type="curve"/>
      <point x="1055" y="269"/>
      <point x="900" y="205"/>
      <point x="759" y="205" type="curve" smooth="yes"/>
      <point x="501" y="205"/>
      <point x="306" y="388"/>
      <point x="306" y="647" type="curve" smooth="yes"/>
      <point x="306" y="901"/>
      <point x="507" y="1081"/>
      <point x="752" y="1096" type="curve"/>
      <point x="866" y="1096"/>
      <point x="936" y="1054"/>
      <point x="985" y="1054" type="curve" smooth="yes"/>
      <point x="997" y="1054"/>
      <point x="1004" y="1060"/>
    </contour>
    <contour>
      <point x="1431" y="646" type="curve" smooth="yes"/>
      <point x="1431" y="258"/>
      <point x="1126" y="-23"/>
      <point x="749" y="-23" type="curve" smooth="yes"/>
      <point x="393" y="-23"/>
      <point x="69" y="255"/>
      <point x="69" y="646" type="curve" smooth="yes"/>
      <point x="69" y="1033"/>
      <point x="391" y="1314"/>
      <point x="750" y="1314" type="curve" smooth="yes"/>
      <point x="1107" y="1314"/>
      <point x="1431" y="1041"/>
    </contour>
    <contour>
      <point x="1346" y="627" type="curve" smooth="yes"/>
      <point x="1346" y="969"/>
      <point x="1106" y="1249"/>
      <point x="744" y="1249" type="curve" smooth="yes"/>
      <point x="400" y="1249"/>
      <point x="158" y="982"/>
      <point x="158" y="666" type="curve" smooth="yes"/>
      <point x="158" y="314"/>
      <point x="409" y="41"/>
      <point x="768" y="41" type="curve" smooth="yes"/>
      <point x="1088" y="41"/>
      <point x="1346" y="300"/>
    </contour>
  </outline>
</glyph>
<glyph name="ordfeminine" format="1">
  <advance width="719"/>
  <unicode hex="00AA"/>
  <outline>
    <contour>
      <point x="436" y="893" type="curve"/>
      <point x="436" y="959" type="line" smooth="yes"/>
      <point x="436" y="1047"/>
      <point x="416" y="1117"/>
      <point x="311" y="1117" type="curve" smooth="yes"/>
      <point x="281" y="1117"/>
      <point x="202" y="1098"/>
      <point x="202" y="1058" type="curve" smooth="yes"/>
      <point x="202" y="1035"/>
      <point x="226" y="1017"/>
      <point x="226" y="995" type="curve" smooth="yes"/>
      <point x="226" y="966"/>
      <point x="172" y="935"/>
      <point x="146" y="935" type="curve" smooth="yes"/>
      <point x="115" y="935"/>
      <point x="89" y="990"/>
      <point x="89" y="1016" type="curve" smooth="yes"/>
      <point x="89" y="1129"/>
      <point x="255" y="1164"/>
      <point x="342" y="1164" type="curve" smooth="yes"/>
      <point x="515" y="1164"/>
      <point x="563" y="1095"/>
      <point x="563" y="928" type="curve" smooth="yes"/>
      <point x="563" y="907"/>
      <point x="557" y="842"/>
      <point x="557" y="780" type="curve" smooth="yes"/>
      <point x="557" y="687"/>
      <point x="557" y="634"/>
      <point x="594" y="634" type="curve" smooth="yes"/>
      <point x="606" y="634"/>
      <point x="622" y="640"/>
      <point x="643" y="651" type="curve"/>
      <point x="659" y="602" type="line"/>
      <point x="634" y="560"/>
      <point x="575" y="546"/>
      <point x="529" y="546" type="curve" smooth="yes"/>
      <point x="473" y="546"/>
      <point x="442" y="592"/>
      <point x="438" y="644" type="curve"/>
      <point x="377" y="592"/>
      <point x="307" y="546"/>
      <point x="224" y="546" type="curve" smooth="yes"/>
      <point x="147" y="546"/>
      <point x="67" y="587"/>
      <point x="67" y="673" type="curve" smooth="yes"/>
      <point x="67" y="839"/>
      <point x="318" y="853"/>
    </contour>
    <contour>
      <point x="436" y="688" type="curve"/>
      <point x="436" y="855" type="line"/>
      <point x="353" y="827"/>
      <point x="202" y="804"/>
      <point x="202" y="693" type="curve" smooth="yes"/>
      <point x="202" y="643"/>
      <point x="240" y="619"/>
      <point x="286" y="619" type="curve" smooth="yes"/>
      <point x="340" y="619"/>
      <point x="396" y="654"/>
    </contour>
  </outline>
</glyph>
<glyph name="guillemotleft" format="1">
  <advance width="805"/>
  <unicode hex="00AB"/>
  <outline>
    <contour>
      <point x="703" y="808" type="curve" smooth="yes"/>
      <point x="550" y="507" type="line"/>
      <point x="699" y="200" type="line" smooth="yes"/>
      <point x="710" y="177"/>
      <point x="715" y="157"/>
      <point x="720" y="134" type="curve"/>
      <point x="711" y="123"/>
      <point x="700" y="113"/>
      <point x="679" y="113" type="curve"/>
      <point x="658" y="126"/>
      <point x="644" y="143"/>
      <point x="623" y="172" type="curve" smooth="yes"/>
      <point x="379" y="507" type="line"/>
      <point x="466" y="626"/>
      <point x="620" y="829"/>
      <point x="675" y="898" type="curve"/>
      <point x="703" y="898"/>
      <point x="719" y="885"/>
      <point x="728" y="872" type="curve"/>
      <point x="723" y="854"/>
      <point x="712" y="825"/>
    </contour>
    <contour>
      <point x="238" y="507" type="curve"/>
      <point x="304" y="377"/>
      <point x="417" y="201"/>
      <point x="452" y="85" type="curve"/>
      <point x="443" y="74"/>
      <point x="432" y="63"/>
      <point x="410" y="63" type="curve"/>
      <point x="388" y="78"/>
      <point x="372" y="94"/>
      <point x="349" y="124" type="curve" smooth="yes"/>
      <point x="55" y="507" type="line"/>
      <point x="356" y="885" type="line" smooth="yes"/>
      <point x="374" y="907"/>
      <point x="391" y="933"/>
      <point x="406" y="947" type="curve"/>
      <point x="435" y="947"/>
      <point x="450" y="934"/>
      <point x="459" y="922" type="curve"/>
      <point x="425" y="814"/>
      <point x="306" y="635"/>
    </contour>
  </outline>
</glyph>
<glyph name="logicalnot" format="1">
  <advance width="1228"/>
  <unicode hex="00AC"/>
  <outline>
    <contour>
      <point x="93" y="893" type="curve"/>
      <point x="266" y="893" type="line" smooth="yes"/>
      <point x="511" y="893"/>
      <point x="756" y="894"/>
      <point x="1000" y="895" type="curve" smooth="yes"/>
      <point x="1045" y="895"/>
      <point x="1090" y="891"/>
      <point x="1135" y="885" type="curve"/>
      <point x="1148" y="799"/>
      <point x="1150" y="709"/>
      <point x="1150" y="620" type="curve" smooth="yes"/>
      <point x="1150" y="403" type="line" smooth="yes"/>
      <point x="1150" y="363"/>
      <point x="1149" y="316"/>
      <point x="1119" y="286" type="curve"/>
      <point x="1073" y="286"/>
      <point x="1038" y="306"/>
      <point x="995" y="314" type="curve"/>
      <point x="995" y="742" type="line"/>
      <point x="182" y="742" type="line" smooth="yes"/>
      <point x="141" y="742"/>
      <point x="93" y="743"/>
      <point x="61" y="773" type="curve"/>
      <point x="61" y="819"/>
      <point x="81" y="851"/>
    </contour>
  </outline>
</glyph>
<glyph name="registered" format="1">
  <advance width="1503"/>
  <unicode hex="00AE"/>
  <outline>
    <contour>
      <point x="697" y="644" type="curve"/>
      <point x="626" y="644" type="line"/>
      <point x="626" y="338" type="line" smooth="yes"/>
      <point x="626" y="276"/>
      <point x="698" y="278"/>
      <point x="741" y="266" type="curve"/>
      <point x="740" y="241" type="line"/>
      <point x="374" y="241" type="line"/>
      <point x="372" y="266" type="line"/>
      <point x="420" y="283"/>
      <point x="481" y="281"/>
      <point x="481" y="349" type="curve" smooth="yes"/>
      <point x="481" y="951" type="line" smooth="yes"/>
      <point x="481" y="1012"/>
      <point x="426" y="1025"/>
      <point x="380" y="1045" type="curve"/>
      <point x="381" y="1069" type="line"/>
      <point x="742" y="1069" type="line" smooth="yes"/>
      <point x="874" y="1069"/>
      <point x="1060" y="1020"/>
      <point x="1060" y="857" type="curve" smooth="yes"/>
      <point x="1060" y="729"/>
      <point x="944" y="674"/>
      <point x="834" y="652" type="curve"/>
      <point x="881" y="577"/>
      <point x="1035" y="302"/>
      <point x="1105" y="282" type="curve"/>
      <point x="1112" y="262"/>
      <point x="1142" y="273"/>
      <point x="1142" y="241" type="curve"/>
      <point x="943" y="241" type="line"/>
      <point x="858" y="372"/>
      <point x="774" y="505"/>
    </contour>
    <contour>
      <point x="626" y="1018" type="curve"/>
      <point x="626" y="680" type="line"/>
      <point x="749" y="682"/>
      <point x="906" y="694"/>
      <point x="906" y="853" type="curve" smooth="yes"/>
      <point x="906" y="979"/>
      <point x="804" y="1024"/>
      <point x="693" y="1024" type="curve" smooth="yes"/>
      <point x="671" y="1024"/>
      <point x="648" y="1022"/>
    </contour>
    <contour>
      <point x="1431" y="646" type="curve" smooth="yes"/>
      <point x="1431" y="262"/>
      <point x="1129" y="-23"/>
      <point x="749" y="-23" type="curve" smooth="yes"/>
      <point x="377" y="-23"/>
      <point x="69" y="271"/>
      <point x="69" y="646" type="curve" smooth="yes"/>
      <point x="69" y="1021"/>
      <point x="379" y="1314"/>
      <point x="750" y="1314" type="curve" smooth="yes"/>
      <point x="1124" y="1314"/>
      <point x="1431" y="1024"/>
    </contour>
    <contour>
      <point x="1346" y="627" type="curve" smooth="yes"/>
      <point x="1346" y="976"/>
      <point x="1099" y="1249"/>
      <point x="744" y="1249" type="curve" smooth="yes"/>
      <point x="415" y="1249"/>
      <point x="158" y="996"/>
      <point x="158" y="666" type="curve" smooth="yes"/>
      <point x="158" y="313"/>
      <point x="410" y="41"/>
      <point x="768" y="41" type="curve" smooth="yes"/>
      <point x="1092" y="41"/>
      <point x="1346" y="305"/>
    </contour>
  </outline>
</glyph>
<glyph name="degree" format="1">
  <advance width="612"/>
  <unicode hex="00B0"/>
  <outline>
    <contour>
      <point x="497" y="1045" type="curve" smooth="yes"/>
      <point x="497" y="1145"/>
      <point x="412" y="1233"/>
      <point x="306" y="1233" type="curve" smooth="yes"/>
      <point x="200" y="1233"/>
      <point x="114" y="1145"/>
      <point x="114" y="1045" type="curve" smooth="yes"/>
      <point x="114" y="940"/>
      <point x="200" y="855"/>
      <point x="306" y="855" type="curve" smooth="yes"/>
      <point x="412" y="855"/>
      <point x="497" y="943"/>
    </contour>
    <contour>
      <point x="547" y="1045" type="curve" smooth="yes"/>
      <point x="547" y="914"/>
      <point x="440" y="803"/>
      <point x="305" y="803" type="curve" smooth="yes"/>
      <point x="168" y="803"/>
      <point x="60" y="911"/>
      <point x="60" y="1045" type="curve" smooth="yes"/>
      <point x="60" y="1177"/>
      <point x="168" y="1287"/>
      <point x="305" y="1287" type="curve" smooth="yes"/>
      <point x="440" y="1287"/>
      <point x="547" y="1177"/>
    </contour>
  </outline>
</glyph>
